{"glyphs":{"0":{"ha":893,"x_min":56,"x_max":836,"o":"m 446 983 q 642 926 553 983 q 783 756 731 869 q 836 482 836 642 q 783 209 836 322 q 642 39 731 96 q 446 -18 553 -18 q 251 39 340 -18 q 109 209 163 96 q 56 482 56 322 q 109 755 56 642 q 251 926 163 868 q 446 983 340 983 m 446 814 q 288 719 343 814 q 232 482 232 625 q 288 245 232 339 q 446 151 343 151 q 605 245 550 151 q 660 482 660 339 q 605 719 660 625 q 446 814 550 814 z "},"1":{"ha":465,"x_min":56,"x_max":388,"o":"m 367 972 q 382 967 376 972 q 388 951 388 961 l 388 21 q 382 6 388 11 q 367 0 376 0 l 225 0 q 210 6 215 0 q 204 21 204 11 l 204 822 l 76 822 q 61 828 67 822 q 56 843 56 833 l 56 951 q 61 967 56 961 q 76 972 67 972 l 367 972 z "},"2":{"ha":739,"x_min":43,"x_max":675,"o":"m 654 150 q 669 144 664 150 q 675 129 675 139 l 675 21 q 669 6 675 11 q 654 0 664 0 l 83 0 q 68 6 74 0 q 63 21 63 11 l 63 150 l 221 318 l 322 422 q 457 572 421 522 q 493 675 493 621 q 451 778 493 739 q 343 818 408 818 q 243 791 289 818 q 165 724 197 764 q 150 715 158 715 q 135 722 144 715 l 50 806 q 43 821 43 813 q 49 835 43 826 q 174 941 94 899 q 349 983 253 983 q 513 944 440 983 q 627 835 586 904 q 668 682 668 767 q 644 572 668 624 q 581 474 621 521 q 463 343 542 426 l 382 257 l 283 150 l 654 150 z "},"3":{"ha":771,"x_min":63,"x_max":708,"o":"m 554 513 q 666 419 624 478 q 708 279 708 360 q 667 128 708 196 q 549 21 625 60 q 372 -18 472 -18 q 196 19 276 -18 q 68 119 115 56 q 63 133 63 128 q 69 149 63 142 l 154 231 q 169 239 163 239 q 185 231 179 239 q 263 170 219 192 q 363 149 306 149 q 483 189 439 149 q 528 290 528 229 q 482 389 528 349 q 338 432 436 429 q 317 453 317 432 l 317 551 q 339 572 317 572 q 472 612 432 575 q 511 700 511 649 q 469 785 511 753 q 375 817 426 817 q 286 796 328 817 q 214 736 244 775 q 200 728 208 728 q 183 736 192 728 l 99 817 q 92 832 92 824 q 97 846 92 840 q 220 947 144 910 q 382 983 296 983 q 526 949 460 983 q 633 855 593 915 q 672 718 672 794 q 641 602 672 654 q 554 513 610 550 z "},"4":{"ha":821,"x_min":56,"x_max":758,"o":"m 738 343 q 753 338 747 343 q 758 322 758 332 l 758 215 q 753 200 758 206 q 738 194 747 194 l 650 194 l 650 21 q 644 6 650 11 q 629 0 639 0 l 488 0 q 472 6 478 0 q 467 21 467 11 l 467 194 l 76 194 q 61 200 67 194 q 56 215 56 206 l 56 329 q 63 356 56 343 l 458 958 q 483 972 468 972 l 629 972 q 644 967 639 972 q 650 951 650 961 l 650 343 l 738 343 m 467 699 l 235 343 l 467 343 l 467 699 z "},"5":{"ha":760,"x_min":64,"x_max":697,"o":"m 376 653 q 539 609 465 653 q 655 491 613 565 q 697 328 697 417 q 652 146 697 224 q 528 26 607 68 q 350 -17 450 -17 q 178 26 253 -17 q 68 128 103 69 q 64 140 64 135 q 74 154 64 149 l 175 226 q 190 232 182 232 q 206 224 197 232 q 350 150 261 150 q 471 202 422 150 q 519 328 519 254 q 497 411 519 372 q 435 474 474 450 q 351 497 396 497 q 222 442 274 497 q 194 433 210 428 l 83 468 q 69 493 65 474 l 190 954 q 213 972 194 972 l 624 972 q 639 967 633 972 q 644 951 644 961 l 644 843 q 639 828 644 833 q 624 822 633 822 l 319 822 l 269 629 q 311 644 282 636 q 376 653 340 653 z "},"6":{"ha":778,"x_min":56,"x_max":722,"o":"m 419 635 q 574 583 504 626 q 683 469 643 539 q 722 314 722 399 q 679 145 722 221 q 560 26 636 69 q 389 -18 483 -18 q 219 26 294 -18 q 99 145 143 69 q 56 314 56 221 q 80 442 56 374 q 158 575 104 510 l 494 988 q 511 997 501 997 q 524 992 518 997 l 618 907 q 628 890 628 899 q 622 878 628 883 l 419 635 m 389 151 q 501 198 457 151 q 546 314 546 244 q 501 429 546 383 q 389 475 457 475 q 276 429 321 475 q 232 314 232 383 q 276 198 232 244 q 389 151 321 151 z "},"7":{"ha":732,"x_min":56,"x_max":692,"o":"m 672 972 q 687 967 682 972 q 689 951 692 961 l 321 21 q 297 0 314 0 l 158 0 q 142 6 149 0 q 140 21 136 13 l 461 822 l 76 822 q 61 828 67 822 q 56 843 56 833 l 56 951 q 61 967 56 961 q 76 972 67 972 l 672 972 z "},"8":{"ha":793,"x_min":63,"x_max":729,"o":"m 567 550 q 684 449 639 517 q 729 292 729 381 q 681 129 729 200 q 556 20 633 58 q 396 -18 479 -18 q 235 20 313 -18 q 110 129 158 58 q 63 292 63 200 q 108 449 63 381 q 226 550 153 517 q 151 631 179 582 q 124 735 124 679 q 158 858 124 801 q 253 949 192 915 q 396 983 315 983 q 539 949 476 983 q 635 858 601 915 q 669 735 669 801 q 642 631 669 679 q 567 550 614 582 m 285 729 q 316 651 285 683 q 396 618 347 618 q 476 651 444 618 q 507 729 507 683 q 476 805 507 774 q 396 836 444 836 q 316 805 347 836 q 285 729 285 774 m 396 151 q 500 192 457 151 q 543 297 543 232 q 499 402 543 363 q 396 442 456 442 q 294 402 338 442 q 250 297 250 363 q 293 192 250 232 q 396 151 336 151 z "},"9":{"ha":778,"x_min":56,"x_max":722,"o":"m 389 983 q 559 940 483 983 q 678 820 635 896 q 722 651 722 744 q 698 524 722 592 q 619 390 674 456 l 283 -22 q 267 -32 276 -32 q 254 -26 260 -32 l 160 58 q 150 75 150 67 q 156 88 150 82 l 358 331 q 204 383 274 339 q 95 497 135 426 q 56 651 56 567 q 99 820 56 744 q 218 940 142 896 q 389 983 294 983 m 389 490 q 501 536 457 490 q 546 651 546 582 q 501 767 546 721 q 389 814 457 814 q 276 767 321 814 q 232 651 232 721 q 276 536 232 582 q 389 490 321 490 z "}," ":{"ha":389,"x_min":0,"x_max":0,"o":""},"A":{"ha":953,"x_min":40,"x_max":910,"o":"m 908 24 q 910 15 910 21 q 892 0 910 0 l 738 0 q 714 17 719 0 l 657 185 l 296 185 l 239 17 q 215 0 233 0 l 61 0 q 45 7 50 0 q 44 24 40 14 l 382 956 q 406 972 389 972 l 544 972 q 571 956 565 972 l 908 24 m 604 346 l 476 725 l 349 346 l 604 346 z "},"Á":{"ha":953,"x_min":43,"x_max":910,"o":"m 908 24 q 910 15 910 21 q 892 0 910 0 l 738 0 q 714 17 719 0 l 657 185 l 296 185 l 239 17 q 215 0 233 0 l 61 0 q 45 7 50 0 q 44 24 40 14 l 382 956 q 406 972 389 972 l 544 972 q 571 956 565 972 l 908 24 m 604 346 l 476 725 l 349 346 l 604 346 m 640 1261 q 658 1255 653 1261 q 657 1238 663 1249 l 574 1063 q 550 1046 567 1046 l 425 1046 q 408 1052 413 1046 q 408 1069 403 1058 l 492 1244 q 515 1261 499 1261 l 640 1261 z "},"Ă":{"ha":953,"x_min":43,"x_max":910,"o":"m 908 24 q 910 15 910 21 q 892 0 910 0 l 738 0 q 714 17 719 0 l 657 185 l 296 185 l 239 17 q 215 0 233 0 l 61 0 q 45 7 50 0 q 44 24 40 14 l 382 956 q 406 972 389 972 l 544 972 q 571 956 565 972 l 908 24 m 604 346 l 476 725 l 349 346 l 604 346 m 588 1243 q 610 1263 592 1263 l 679 1263 q 699 1242 701 1263 q 634 1115 692 1165 q 483 1065 576 1065 q 333 1115 390 1065 q 268 1242 275 1165 l 268 1244 q 288 1263 268 1263 l 358 1263 q 381 1243 374 1263 q 415 1191 389 1213 q 483 1169 442 1169 q 552 1191 525 1169 q 588 1243 579 1213 z "},"Ǎ":{"ha":953,"x_min":43,"x_max":910,"o":"m 908 24 q 910 15 910 21 q 892 0 910 0 l 738 0 q 714 17 719 0 l 657 185 l 296 185 l 239 17 q 215 0 233 0 l 61 0 q 45 7 50 0 q 44 24 40 14 l 382 956 q 406 972 389 972 l 544 972 q 571 956 565 972 l 908 24 m 604 346 l 476 725 l 349 346 l 604 346 m 431 1075 q 406 1086 415 1075 l 272 1236 q 267 1249 267 1242 q 272 1258 267 1254 q 285 1261 276 1261 l 374 1261 q 399 1250 389 1261 l 483 1151 l 567 1250 q 592 1261 576 1261 l 682 1261 q 695 1258 690 1261 q 700 1249 700 1254 q 694 1236 700 1242 l 561 1086 q 536 1075 551 1075 l 431 1075 z "},"Â":{"ha":953,"x_min":43,"x_max":910,"o":"m 908 24 q 910 15 910 21 q 892 0 910 0 l 738 0 q 714 17 719 0 l 657 185 l 296 185 l 239 17 q 215 0 233 0 l 61 0 q 45 7 50 0 q 44 24 40 14 l 382 956 q 406 972 389 972 l 544 972 q 571 956 565 972 l 908 24 m 604 346 l 476 725 l 349 346 l 604 346 m 536 1261 q 561 1250 551 1261 l 694 1100 q 700 1088 700 1094 q 695 1078 700 1082 q 682 1075 690 1075 l 592 1075 q 567 1086 576 1075 l 483 1185 l 399 1086 q 374 1075 389 1075 l 285 1075 q 272 1078 276 1075 q 267 1088 267 1082 q 272 1100 267 1094 l 406 1250 q 431 1261 415 1261 l 536 1261 z "},"Ä":{"ha":953,"x_min":43,"x_max":910,"o":"m 908 24 q 910 15 910 21 q 892 0 910 0 l 738 0 q 714 17 719 0 l 657 185 l 296 185 l 239 17 q 215 0 233 0 l 61 0 q 45 7 50 0 q 44 24 40 14 l 382 956 q 406 972 389 972 l 544 972 q 571 956 565 972 l 908 24 m 604 346 l 476 725 l 349 346 l 604 346 m 333 1085 q 267 1112 294 1085 q 240 1178 240 1139 q 267 1244 240 1217 q 333 1271 294 1271 q 399 1244 371 1271 q 426 1178 426 1217 q 399 1112 426 1139 q 333 1085 371 1085 m 633 1085 q 568 1112 596 1085 q 540 1178 540 1139 q 568 1244 540 1217 q 633 1271 596 1271 q 699 1244 671 1271 q 726 1178 726 1217 q 699 1112 726 1139 q 633 1085 671 1085 z "},"À":{"ha":953,"x_min":43,"x_max":910,"o":"m 908 24 q 910 15 910 21 q 892 0 910 0 l 738 0 q 714 17 719 0 l 657 185 l 296 185 l 239 17 q 215 0 233 0 l 61 0 q 45 7 50 0 q 44 24 40 14 l 382 956 q 406 972 389 972 l 544 972 q 571 956 565 972 l 908 24 m 604 346 l 476 725 l 349 346 l 604 346 m 439 1261 q 463 1244 456 1261 l 546 1069 q 549 1060 549 1061 q 529 1046 549 1046 l 404 1046 q 381 1063 388 1046 l 297 1238 q 294 1247 294 1246 q 314 1261 294 1261 l 439 1261 z "},"Ā":{"ha":953,"x_min":43,"x_max":910,"o":"m 908 24 q 910 15 910 21 q 892 0 910 0 l 738 0 q 714 17 719 0 l 657 185 l 296 185 l 239 17 q 215 0 233 0 l 61 0 q 45 7 50 0 q 44 24 40 14 l 382 956 q 406 972 389 972 l 544 972 q 571 956 565 972 l 908 24 m 604 346 l 476 725 l 349 346 l 604 346 m 693 1261 q 708 1256 703 1261 q 714 1240 714 1250 l 714 1139 q 708 1124 714 1129 q 693 1118 703 1118 l 275 1118 q 260 1124 265 1118 q 254 1139 254 1129 l 254 1240 q 260 1256 254 1250 q 275 1261 265 1261 l 693 1261 z "},"Ą":{"ha":953,"x_min":40,"x_max":910,"o":"m 908 24 q 910 15 910 21 q 892 0 910 0 l 889 0 q 796 -33 831 0 q 761 -107 761 -67 q 777 -148 761 -132 q 825 -164 793 -164 q 854 -161 843 -164 l 854 -275 q 778 -290 821 -290 q 660 -253 710 -290 q 611 -143 611 -217 q 640 -51 611 -92 q 714 18 668 -10 l 657 185 l 296 185 l 239 17 q 215 0 233 0 l 61 0 q 45 7 50 0 q 44 24 40 14 l 382 956 q 406 972 389 972 l 544 972 q 571 956 565 972 l 908 24 m 604 346 l 476 725 l 349 346 l 604 346 z "},"Å":{"ha":953,"x_min":43,"x_max":910,"o":"m 908 24 q 910 15 910 21 q 892 0 910 0 l 738 0 q 714 17 719 0 l 657 185 l 296 185 l 239 17 q 215 0 233 0 l 61 0 q 45 7 50 0 q 44 24 40 14 l 382 956 q 406 972 389 972 l 544 972 q 571 956 565 972 l 908 24 m 604 346 l 476 725 l 349 346 l 604 346 m 485 1318 q 581 1276 540 1318 q 622 1179 622 1235 q 581 1083 622 1124 q 485 1042 540 1042 q 385 1083 426 1042 q 343 1179 343 1124 q 385 1277 343 1236 q 485 1318 426 1318 m 483 1147 q 507 1157 497 1147 q 517 1181 517 1167 q 507 1204 517 1194 q 483 1214 497 1214 q 460 1204 469 1214 q 450 1181 450 1194 q 460 1157 450 1167 q 483 1147 469 1147 z "},"Ã":{"ha":953,"x_min":43,"x_max":910,"o":"m 908 24 q 910 15 910 21 q 892 0 910 0 l 738 0 q 714 17 719 0 l 657 185 l 296 185 l 239 17 q 215 0 233 0 l 61 0 q 45 7 50 0 q 44 24 40 14 l 382 956 q 406 972 389 972 l 544 972 q 571 956 565 972 l 908 24 m 604 346 l 476 725 l 349 346 l 604 346 m 378 1292 q 446 1278 417 1292 q 513 1236 475 1264 q 560 1205 540 1215 q 603 1194 579 1194 q 643 1206 626 1194 q 667 1233 660 1217 q 682 1244 671 1244 l 722 1244 q 736 1231 736 1244 q 692 1126 732 1161 q 590 1090 651 1090 q 523 1103 551 1090 q 456 1144 494 1117 q 408 1176 428 1165 q 365 1186 389 1186 q 325 1175 342 1186 q 301 1147 308 1164 q 286 1136 297 1136 l 246 1136 q 232 1154 232 1136 q 277 1256 238 1221 q 378 1292 317 1292 z "},"Æ":{"ha":1200,"x_min":40,"x_max":1117,"o":"m 1096 168 q 1111 163 1106 168 q 1117 147 1117 157 l 1117 21 q 1111 6 1117 11 q 1096 0 1106 0 l 583 0 q 568 6 574 0 q 563 21 563 11 l 563 200 l 315 200 l 240 17 q 217 0 233 0 l 61 0 q 45 7 50 0 q 44 24 40 14 l 454 956 q 478 972 461 972 l 1094 972 q 1110 967 1104 972 q 1115 951 1115 961 l 1115 825 q 1110 810 1115 815 q 1094 804 1104 804 l 753 804 l 753 585 l 1074 585 q 1089 579 1083 585 q 1094 564 1094 574 l 1094 438 q 1089 422 1094 428 q 1074 417 1083 417 l 753 417 l 753 168 l 1096 168 m 563 363 l 563 800 l 382 363 l 563 363 z "},"B":{"ha":850,"x_min":90,"x_max":800,"o":"m 607 521 q 744 435 689 500 q 800 281 800 371 q 442 0 800 0 l 111 0 q 96 6 101 0 q 90 21 90 11 l 90 951 q 96 967 90 961 q 111 972 101 972 l 442 972 q 600 939 535 972 q 698 850 665 906 q 731 726 731 794 q 696 597 731 653 q 607 521 661 542 m 551 703 q 424 804 551 804 l 281 804 l 281 589 l 424 589 q 517 617 483 589 q 551 703 551 646 m 447 168 q 567 201 525 168 q 610 301 610 235 q 567 399 610 365 q 447 432 525 432 l 281 432 l 281 168 l 447 168 z "},"C":{"ha":965,"x_min":63,"x_max":908,"o":"m 901 151 q 908 138 908 146 q 901 122 908 129 q 748 19 835 56 q 563 -18 661 -18 q 311 49 426 -18 q 129 230 196 115 q 63 482 63 344 q 129 735 63 619 q 310 917 196 850 q 563 983 425 983 q 748 947 661 983 q 901 843 835 910 q 908 829 908 838 q 901 814 908 821 l 810 715 q 794 708 804 708 q 781 714 786 708 q 561 797 686 797 q 408 756 478 797 q 299 643 339 715 q 258 482 258 571 q 299 322 258 394 q 408 209 339 250 q 561 168 478 168 q 781 251 686 168 q 794 257 786 257 q 810 250 804 257 l 901 151 z "},"Ć":{"ha":965,"x_min":63,"x_max":908,"o":"m 901 151 q 908 138 908 146 q 901 122 908 129 q 748 19 835 56 q 563 -18 661 -18 q 311 49 426 -18 q 129 230 196 115 q 63 482 63 344 q 129 735 63 619 q 310 917 196 850 q 563 983 425 983 q 748 947 661 983 q 901 843 835 910 q 908 829 908 838 q 901 814 908 821 l 810 715 q 794 708 804 708 q 781 714 786 708 q 561 797 686 797 q 408 756 478 797 q 299 643 339 715 q 258 482 258 571 q 299 322 258 394 q 408 209 339 250 q 561 168 478 168 q 781 251 686 168 q 794 257 786 257 q 810 250 804 257 l 901 151 m 710 1261 q 727 1255 722 1261 q 726 1238 732 1249 l 643 1063 q 619 1046 636 1046 l 494 1046 q 477 1052 482 1046 q 478 1069 472 1058 l 561 1244 q 585 1261 568 1261 l 710 1261 z "},"Č":{"ha":965,"x_min":63,"x_max":908,"o":"m 901 151 q 908 138 908 146 q 901 122 908 129 q 748 19 835 56 q 563 -18 661 -18 q 311 49 426 -18 q 129 230 196 115 q 63 482 63 344 q 129 735 63 619 q 310 917 196 850 q 563 983 425 983 q 748 947 661 983 q 901 843 835 910 q 908 829 908 838 q 901 814 908 821 l 810 715 q 794 708 804 708 q 781 714 786 708 q 561 797 686 797 q 408 756 478 797 q 299 643 339 715 q 258 482 258 571 q 299 322 258 394 q 408 209 339 250 q 561 168 478 168 q 781 251 686 168 q 794 257 786 257 q 810 250 804 257 l 901 151 m 500 1075 q 475 1086 485 1075 l 342 1236 q 336 1249 336 1242 q 341 1258 336 1254 q 354 1261 346 1261 l 443 1261 q 468 1250 458 1261 l 553 1151 l 636 1250 q 661 1261 646 1261 l 751 1261 q 765 1258 760 1261 q 769 1249 769 1254 q 764 1236 769 1242 l 631 1086 q 606 1075 621 1075 l 500 1075 z "},"Ç":{"ha":965,"x_min":63,"x_max":908,"o":"m 901 151 q 908 138 908 146 q 901 122 908 129 q 765 26 842 63 q 600 -17 688 -11 l 567 -46 q 653 -81 617 -50 q 690 -161 690 -111 q 638 -270 690 -235 q 504 -306 585 -306 q 447 -301 476 -306 q 435 -286 435 -300 l 435 -222 q 450 -208 435 -208 q 486 -211 475 -211 q 544 -200 524 -211 q 565 -169 565 -189 q 549 -145 565 -156 q 504 -135 532 -135 q 451 -144 479 -135 q 444 -146 449 -146 q 435 -135 435 -146 l 435 -69 q 442 -53 435 -60 l 483 -12 q 269 76 365 6 q 117 252 172 146 q 63 482 63 358 q 129 735 63 619 q 310 917 196 850 q 563 983 425 983 q 748 947 661 983 q 901 843 835 910 q 908 829 908 838 q 901 814 908 821 l 810 715 q 794 708 804 708 q 781 714 786 708 q 561 797 686 797 q 408 756 478 797 q 299 643 339 715 q 258 482 258 571 q 299 322 258 394 q 408 209 339 250 q 561 168 478 168 q 781 251 686 168 q 794 257 786 257 q 810 250 804 257 l 901 151 z "},"Ċ":{"ha":965,"x_min":63,"x_max":908,"o":"m 901 151 q 908 138 908 146 q 901 122 908 129 q 748 19 835 56 q 563 -18 661 -18 q 311 49 426 -18 q 129 230 196 115 q 63 482 63 344 q 129 735 63 619 q 310 917 196 850 q 563 983 425 983 q 748 947 661 983 q 901 843 835 910 q 908 829 908 838 q 901 814 908 821 l 810 715 q 794 708 804 708 q 781 714 786 708 q 561 797 686 797 q 408 756 478 797 q 299 643 339 715 q 258 482 258 571 q 299 322 258 394 q 408 209 339 250 q 561 168 478 168 q 781 251 686 168 q 794 257 786 257 q 810 250 804 257 l 901 151 m 553 1085 q 487 1112 514 1085 q 460 1178 460 1139 q 487 1244 460 1217 q 553 1271 514 1271 q 618 1244 590 1271 q 646 1178 646 1217 q 618 1112 646 1139 q 553 1085 590 1085 z "},"D":{"ha":950,"x_min":90,"x_max":894,"o":"m 385 972 q 661 908 546 972 q 835 734 776 844 q 894 486 894 624 q 835 238 894 349 q 661 64 776 128 q 385 0 546 0 l 111 0 q 96 6 101 0 q 90 21 90 11 l 90 951 q 96 967 90 961 q 111 972 101 972 l 385 972 m 385 168 q 621 251 540 168 q 701 486 701 333 q 621 722 701 639 q 385 804 540 804 l 281 804 l 281 168 l 385 168 z "},"Ð":{"ha":961,"x_min":35,"x_max":906,"o":"m 396 972 q 672 908 557 972 q 847 734 788 844 q 906 486 906 624 q 847 238 906 349 q 672 64 788 128 q 396 0 557 0 l 122 0 q 107 6 113 0 q 101 21 101 11 l 101 407 l 56 407 q 40 413 46 407 q 35 428 35 418 l 35 529 q 40 544 35 539 q 56 550 46 550 l 101 550 l 101 951 q 107 967 101 961 q 122 972 113 972 l 396 972 m 396 168 q 632 251 551 168 q 713 486 713 333 q 632 722 713 639 q 396 804 551 804 l 292 804 l 292 550 l 474 550 q 489 544 483 550 q 494 529 494 539 l 494 428 q 489 413 494 418 q 474 407 483 407 l 292 407 l 292 168 l 396 168 z "},"Ď":{"ha":950,"x_min":90,"x_max":894,"o":"m 385 972 q 661 908 546 972 q 835 734 776 844 q 894 486 894 624 q 835 238 894 349 q 661 64 776 128 q 385 0 546 0 l 111 0 q 96 6 101 0 q 90 21 90 11 l 90 951 q 96 967 90 961 q 111 972 101 972 l 385 972 m 385 168 q 621 251 540 168 q 701 486 701 333 q 621 722 701 639 q 385 804 540 804 l 281 804 l 281 168 l 385 168 m 408 1075 q 383 1086 393 1075 l 250 1236 q 244 1249 244 1242 q 249 1258 244 1254 q 263 1261 254 1261 l 351 1261 q 376 1250 367 1261 l 461 1151 l 544 1250 q 569 1261 554 1261 l 660 1261 q 673 1258 668 1261 q 678 1249 678 1254 q 672 1236 678 1242 l 539 1086 q 514 1075 529 1075 l 408 1075 z "},"Đ":{"ha":961,"x_min":35,"x_max":906,"o":"m 396 972 q 672 908 557 972 q 847 734 788 844 q 906 486 906 624 q 847 238 906 349 q 672 64 788 128 q 396 0 557 0 l 122 0 q 107 6 113 0 q 101 21 101 11 l 101 407 l 56 407 q 40 413 46 407 q 35 428 35 418 l 35 529 q 40 544 35 539 q 56 550 46 550 l 101 550 l 101 951 q 107 967 101 961 q 122 972 113 972 l 396 972 m 396 168 q 632 251 551 168 q 713 486 713 333 q 632 722 713 639 q 396 804 551 804 l 292 804 l 292 550 l 474 550 q 489 544 483 550 q 494 529 494 539 l 494 428 q 489 413 494 418 q 474 407 483 407 l 292 407 l 292 168 l 396 168 z "},"E":{"ha":728,"x_min":90,"x_max":644,"o":"m 624 168 q 639 163 633 168 q 644 147 644 157 l 644 21 q 639 6 644 11 q 624 0 633 0 l 111 0 q 96 6 101 0 q 90 21 90 11 l 90 951 q 96 967 90 961 q 111 972 101 972 l 622 972 q 638 967 632 972 q 643 951 643 961 l 643 825 q 638 810 643 815 q 622 804 632 804 l 281 804 l 281 585 l 601 585 q 617 579 611 585 q 622 564 622 574 l 622 438 q 617 422 622 428 q 601 417 611 417 l 281 417 l 281 168 l 624 168 z "},"É":{"ha":728,"x_min":90,"x_max":644,"o":"m 624 168 q 639 163 633 168 q 644 147 644 157 l 644 21 q 639 6 644 11 q 624 0 633 0 l 111 0 q 96 6 101 0 q 90 21 90 11 l 90 951 q 96 967 90 961 q 111 972 101 972 l 622 972 q 638 967 632 972 q 643 951 643 961 l 643 825 q 638 810 643 815 q 622 804 632 804 l 281 804 l 281 585 l 601 585 q 617 579 611 585 q 622 564 622 574 l 622 438 q 617 422 622 428 q 601 417 611 417 l 281 417 l 281 168 l 624 168 m 529 1261 q 547 1255 542 1261 q 546 1238 551 1249 l 463 1063 q 439 1046 456 1046 l 314 1046 q 297 1052 301 1046 q 297 1069 292 1058 l 381 1244 q 404 1261 388 1261 l 529 1261 z "},"Ě":{"ha":728,"x_min":90,"x_max":644,"o":"m 624 168 q 639 163 633 168 q 644 147 644 157 l 644 21 q 639 6 644 11 q 624 0 633 0 l 111 0 q 96 6 101 0 q 90 21 90 11 l 90 951 q 96 967 90 961 q 111 972 101 972 l 622 972 q 638 967 632 972 q 643 951 643 961 l 643 825 q 638 810 643 815 q 622 804 632 804 l 281 804 l 281 585 l 601 585 q 617 579 611 585 q 622 564 622 574 l 622 438 q 617 422 622 428 q 601 417 611 417 l 281 417 l 281 168 l 624 168 m 319 1075 q 294 1086 304 1075 l 161 1236 q 156 1249 156 1242 q 160 1258 156 1254 q 174 1261 165 1261 l 263 1261 q 288 1250 278 1261 l 372 1151 l 456 1250 q 481 1261 465 1261 l 571 1261 q 584 1258 579 1261 q 589 1249 589 1254 q 583 1236 589 1242 l 450 1086 q 425 1075 440 1075 l 319 1075 z "},"Ê":{"ha":728,"x_min":90,"x_max":644,"o":"m 624 168 q 639 163 633 168 q 644 147 644 157 l 644 21 q 639 6 644 11 q 624 0 633 0 l 111 0 q 96 6 101 0 q 90 21 90 11 l 90 951 q 96 967 90 961 q 111 972 101 972 l 622 972 q 638 967 632 972 q 643 951 643 961 l 643 825 q 638 810 643 815 q 622 804 632 804 l 281 804 l 281 585 l 601 585 q 617 579 611 585 q 622 564 622 574 l 622 438 q 617 422 622 428 q 601 417 611 417 l 281 417 l 281 168 l 624 168 m 425 1261 q 450 1250 440 1261 l 583 1100 q 589 1088 589 1094 q 584 1078 589 1082 q 571 1075 579 1075 l 481 1075 q 456 1086 465 1075 l 372 1185 l 288 1086 q 263 1075 278 1075 l 174 1075 q 160 1078 165 1075 q 156 1088 156 1082 q 161 1100 156 1094 l 294 1250 q 319 1261 304 1261 l 425 1261 z "},"Ë":{"ha":728,"x_min":90,"x_max":644,"o":"m 624 168 q 639 163 633 168 q 644 147 644 157 l 644 21 q 639 6 644 11 q 624 0 633 0 l 111 0 q 96 6 101 0 q 90 21 90 11 l 90 951 q 96 967 90 961 q 111 972 101 972 l 622 972 q 638 967 632 972 q 643 951 643 961 l 643 825 q 638 810 643 815 q 622 804 632 804 l 281 804 l 281 585 l 601 585 q 617 579 611 585 q 622 564 622 574 l 622 438 q 617 422 622 428 q 601 417 611 417 l 281 417 l 281 168 l 624 168 m 222 1085 q 156 1112 183 1085 q 129 1178 129 1139 q 156 1244 129 1217 q 222 1271 183 1271 q 288 1244 260 1271 q 315 1178 315 1217 q 288 1112 315 1139 q 222 1085 260 1085 m 522 1085 q 457 1112 485 1085 q 429 1178 429 1139 q 457 1244 429 1217 q 522 1271 485 1271 q 588 1244 560 1271 q 615 1178 615 1217 q 588 1112 615 1139 q 522 1085 560 1085 z "},"Ė":{"ha":728,"x_min":90,"x_max":644,"o":"m 624 168 q 639 163 633 168 q 644 147 644 157 l 644 21 q 639 6 644 11 q 624 0 633 0 l 111 0 q 96 6 101 0 q 90 21 90 11 l 90 951 q 96 967 90 961 q 111 972 101 972 l 622 972 q 638 967 632 972 q 643 951 643 961 l 643 825 q 638 810 643 815 q 622 804 632 804 l 281 804 l 281 585 l 601 585 q 617 579 611 585 q 622 564 622 574 l 622 438 q 617 422 622 428 q 601 417 611 417 l 281 417 l 281 168 l 624 168 m 372 1085 q 306 1112 333 1085 q 279 1178 279 1139 q 306 1244 279 1217 q 372 1271 333 1271 q 438 1244 410 1271 q 465 1178 465 1217 q 438 1112 465 1139 q 372 1085 410 1085 z "},"È":{"ha":728,"x_min":90,"x_max":644,"o":"m 624 168 q 639 163 633 168 q 644 147 644 157 l 644 21 q 639 6 644 11 q 624 0 633 0 l 111 0 q 96 6 101 0 q 90 21 90 11 l 90 951 q 96 967 90 961 q 111 972 101 972 l 622 972 q 638 967 632 972 q 643 951 643 961 l 643 825 q 638 810 643 815 q 622 804 632 804 l 281 804 l 281 585 l 601 585 q 617 579 611 585 q 622 564 622 574 l 622 438 q 617 422 622 428 q 601 417 611 417 l 281 417 l 281 168 l 624 168 m 328 1261 q 351 1244 344 1261 l 435 1069 q 438 1060 438 1061 q 418 1046 438 1046 l 293 1046 q 269 1063 276 1046 l 186 1238 q 183 1247 183 1246 q 203 1261 183 1261 l 328 1261 z "},"Ē":{"ha":728,"x_min":90,"x_max":644,"o":"m 624 168 q 639 163 633 168 q 644 147 644 157 l 644 21 q 639 6 644 11 q 624 0 633 0 l 111 0 q 96 6 101 0 q 90 21 90 11 l 90 951 q 96 967 90 961 q 111 972 101 972 l 622 972 q 638 967 632 972 q 643 951 643 961 l 643 825 q 638 810 643 815 q 622 804 632 804 l 281 804 l 281 585 l 601 585 q 617 579 611 585 q 622 564 622 574 l 622 438 q 617 422 622 428 q 601 417 611 417 l 281 417 l 281 168 l 624 168 m 582 1261 q 597 1256 592 1261 q 603 1240 603 1250 l 603 1139 q 597 1124 603 1129 q 582 1118 592 1118 l 164 1118 q 149 1124 154 1118 q 143 1139 143 1129 l 143 1240 q 149 1256 143 1250 q 164 1261 154 1261 l 582 1261 z "},"Ę":{"ha":728,"x_min":90,"x_max":644,"o":"m 624 168 q 639 163 633 168 q 644 147 644 157 l 644 21 q 639 6 644 11 q 624 0 633 0 l 572 0 q 525 -41 542 -15 q 508 -93 508 -67 q 524 -134 508 -118 q 572 -150 540 -150 q 601 -147 590 -150 l 601 -261 q 525 -276 568 -276 q 408 -240 457 -276 q 358 -129 358 -203 q 418 0 358 -57 l 111 0 q 96 6 101 0 q 90 21 90 11 l 90 951 q 96 967 90 961 q 111 972 101 972 l 622 972 q 638 967 632 972 q 643 951 643 961 l 643 825 q 638 810 643 815 q 622 804 632 804 l 281 804 l 281 585 l 601 585 q 617 579 611 585 q 622 564 622 574 l 622 438 q 617 422 622 428 q 601 417 611 417 l 281 417 l 281 168 l 624 168 z "},"F":{"ha":714,"x_min":90,"x_max":631,"o":"m 610 972 q 625 967 619 972 q 631 951 631 961 l 631 825 q 625 810 631 815 q 610 804 619 804 l 281 804 l 281 585 l 592 585 q 607 579 601 585 q 613 564 613 574 l 613 438 q 607 422 613 428 q 592 417 601 417 l 281 417 l 281 21 q 275 6 281 11 q 260 0 269 0 l 111 0 q 96 6 101 0 q 90 21 90 11 l 90 951 q 96 967 90 961 q 111 972 101 972 l 610 972 z "},"G":{"ha":1061,"x_min":63,"x_max":1006,"o":"m 985 542 q 1000 536 994 542 q 1006 521 1006 531 l 1006 439 q 953 208 1006 313 q 801 43 900 104 q 567 -18 701 -18 q 313 49 429 -18 q 130 233 197 117 q 63 486 63 349 q 129 736 63 622 q 311 917 196 850 q 563 983 426 983 q 748 947 661 983 q 901 843 835 910 q 908 829 908 838 q 901 814 908 821 l 810 715 q 794 708 804 708 q 781 714 786 708 q 561 797 686 797 q 408 756 478 797 q 299 644 339 715 q 258 486 258 572 q 298 324 258 397 q 408 210 338 251 q 565 168 478 168 q 748 228 681 168 q 819 382 815 289 l 574 382 q 558 388 564 382 q 553 403 553 393 l 553 521 q 558 536 553 531 q 574 542 564 542 l 985 542 z "},"Ğ":{"ha":1061,"x_min":63,"x_max":1006,"o":"m 985 542 q 1000 536 994 542 q 1006 521 1006 531 l 1006 439 q 953 208 1006 313 q 801 43 900 104 q 567 -18 701 -18 q 313 49 429 -18 q 130 233 197 117 q 63 486 63 349 q 129 736 63 622 q 311 917 196 850 q 563 983 426 983 q 748 947 661 983 q 901 843 835 910 q 908 829 908 838 q 901 814 908 821 l 810 715 q 794 708 804 708 q 781 714 786 708 q 561 797 686 797 q 408 756 478 797 q 299 644 339 715 q 258 486 258 572 q 298 324 258 397 q 408 210 338 251 q 565 168 478 168 q 748 228 681 168 q 819 382 815 289 l 574 382 q 558 388 564 382 q 553 403 553 393 l 553 521 q 558 536 553 531 q 574 542 564 542 l 985 542 m 664 1243 q 686 1263 668 1263 l 756 1263 q 775 1242 778 1263 q 710 1115 768 1165 q 560 1065 653 1065 q 409 1115 467 1065 q 344 1242 351 1165 l 344 1244 q 364 1263 344 1263 l 435 1263 q 457 1243 450 1263 q 492 1191 465 1213 q 560 1169 518 1169 q 628 1191 601 1169 q 664 1243 656 1213 z "},"Ģ":{"ha":1061,"x_min":63,"x_max":1006,"o":"m 985 542 q 1000 536 994 542 q 1006 521 1006 531 l 1006 439 q 953 208 1006 313 q 801 43 900 104 q 567 -18 701 -18 q 313 49 429 -18 q 130 233 197 117 q 63 486 63 349 q 129 736 63 622 q 311 917 196 850 q 563 983 426 983 q 748 947 661 983 q 901 843 835 910 q 908 829 908 838 q 901 814 908 821 l 810 715 q 794 708 804 708 q 781 714 786 708 q 561 797 686 797 q 408 756 478 797 q 299 644 339 715 q 258 486 258 572 q 298 324 258 397 q 408 210 338 251 q 565 168 478 168 q 748 228 681 168 q 819 382 815 289 l 574 382 q 558 388 564 382 q 553 403 553 393 l 553 521 q 558 536 553 531 q 574 542 564 542 l 985 542 m 539 -53 q 611 -84 582 -53 q 640 -167 640 -115 q 613 -286 640 -229 q 554 -379 586 -343 q 539 -386 547 -386 l 521 -386 q 511 -382 514 -386 q 511 -371 508 -378 q 539 -254 539 -311 q 467 -225 496 -254 q 438 -153 438 -196 q 467 -82 438 -111 q 539 -53 496 -53 z "},"Ġ":{"ha":1061,"x_min":63,"x_max":1006,"o":"m 985 542 q 1000 536 994 542 q 1006 521 1006 531 l 1006 439 q 953 208 1006 313 q 801 43 900 104 q 567 -18 701 -18 q 313 49 429 -18 q 130 233 197 117 q 63 486 63 349 q 129 736 63 622 q 311 917 196 850 q 563 983 426 983 q 748 947 661 983 q 901 843 835 910 q 908 829 908 838 q 901 814 908 821 l 810 715 q 794 708 804 708 q 781 714 786 708 q 561 797 686 797 q 408 756 478 797 q 299 644 339 715 q 258 486 258 572 q 298 324 258 397 q 408 210 338 251 q 565 168 478 168 q 748 228 681 168 q 819 382 815 289 l 574 382 q 558 388 564 382 q 553 403 553 393 l 553 521 q 558 536 553 531 q 574 542 564 542 l 985 542 m 560 1085 q 494 1112 521 1085 q 467 1178 467 1139 q 494 1244 467 1217 q 560 1271 521 1271 q 625 1244 597 1271 q 653 1178 653 1217 q 625 1112 653 1139 q 560 1085 597 1085 z "},"H":{"ha":928,"x_min":90,"x_max":836,"o":"m 815 972 q 831 967 825 972 q 836 951 836 961 l 836 21 q 831 6 836 11 q 815 0 825 0 l 667 0 q 651 6 657 0 q 646 21 646 11 l 646 394 l 281 394 l 281 21 q 275 6 281 11 q 260 0 269 0 l 111 0 q 96 6 101 0 q 90 21 90 11 l 90 951 q 96 967 90 961 q 111 972 101 972 l 260 972 q 275 967 269 972 q 281 951 281 961 l 281 563 l 646 563 l 646 951 q 651 967 646 961 q 667 972 657 972 l 815 972 z "},"Ħ":{"ha":928,"x_min":90,"x_max":836,"o":"m 815 972 q 831 967 825 972 q 836 951 836 961 l 836 21 q 831 6 836 11 q 815 0 825 0 l 667 0 q 651 6 657 0 q 646 21 646 11 l 646 394 l 281 394 l 281 21 q 275 6 281 11 q 260 0 269 0 l 111 0 q 96 6 101 0 q 90 21 90 11 l 90 951 q 96 967 90 961 q 111 972 101 972 l 260 972 q 275 967 269 972 q 281 951 281 961 l 281 807 l 646 807 l 646 951 q 651 967 646 961 q 667 972 657 972 l 815 972 m 646 563 l 646 654 l 281 654 l 281 563 l 646 563 z "},"I":{"ha":371,"x_min":90,"x_max":281,"o":"m 90 951 q 96 967 90 961 q 111 972 101 972 l 260 972 q 275 967 269 972 q 281 951 281 961 l 281 21 q 275 6 281 11 q 260 0 269 0 l 111 0 q 96 6 101 0 q 90 21 90 11 l 90 951 z "},"Ĳ":{"ha":1114,"x_min":90,"x_max":1024,"o":"m 90 951 q 96 967 90 961 q 111 972 101 972 l 260 972 q 275 967 269 972 q 281 951 281 961 l 281 21 q 275 6 281 11 q 260 0 269 0 l 111 0 q 96 6 101 0 q 90 21 90 11 l 90 951 m 508 219 q 522 226 514 226 q 539 221 532 226 q 607 183 578 196 q 681 171 636 171 q 793 219 753 171 q 833 371 833 268 l 833 951 q 839 967 833 961 q 854 972 844 972 l 1003 972 q 1018 967 1013 972 q 1024 951 1024 961 l 1024 364 q 933 80 1024 172 q 686 -12 843 -12 q 536 15 601 -12 q 433 88 471 43 q 428 101 428 93 q 433 117 428 110 l 508 219 z "},"Í":{"ha":371,"x_min":90,"x_max":363,"o":"m 90 951 q 96 967 90 961 q 111 972 101 972 l 260 972 q 275 967 269 972 q 281 951 281 961 l 281 21 q 275 6 281 11 q 260 0 269 0 l 111 0 q 96 6 101 0 q 90 21 90 11 l 90 951 m 343 1261 q 360 1255 356 1261 q 360 1238 365 1249 l 276 1063 q 253 1046 269 1046 l 128 1046 q 110 1052 115 1046 q 111 1069 106 1058 l 194 1244 q 218 1261 201 1261 l 343 1261 z "},"Ǐ":{"ha":371,"x_min":-31,"x_max":403,"o":"m 90 951 q 96 967 90 961 q 111 972 101 972 l 260 972 q 275 967 269 972 q 281 951 281 961 l 281 21 q 275 6 281 11 q 260 0 269 0 l 111 0 q 96 6 101 0 q 90 21 90 11 l 90 951 m 133 1075 q 108 1086 118 1075 l -25 1236 q -31 1249 -31 1242 q -26 1258 -31 1254 q -12 1261 -21 1261 l 76 1261 q 101 1250 92 1261 l 186 1151 l 269 1250 q 294 1261 279 1261 l 385 1261 q 398 1258 393 1261 q 403 1249 403 1254 q 397 1236 403 1242 l 264 1086 q 239 1075 254 1075 l 133 1075 z "},"Î":{"ha":371,"x_min":-31,"x_max":403,"o":"m 90 951 q 96 967 90 961 q 111 972 101 972 l 260 972 q 275 967 269 972 q 281 951 281 961 l 281 21 q 275 6 281 11 q 260 0 269 0 l 111 0 q 96 6 101 0 q 90 21 90 11 l 90 951 m 239 1261 q 264 1250 254 1261 l 397 1100 q 403 1088 403 1094 q 398 1078 403 1082 q 385 1075 393 1075 l 294 1075 q 269 1086 279 1075 l 186 1185 l 101 1086 q 76 1075 92 1075 l -12 1075 q -26 1078 -21 1075 q -31 1088 -31 1082 q -25 1100 -31 1094 l 108 1250 q 133 1261 118 1261 l 239 1261 z "},"Ï":{"ha":371,"x_min":-57,"x_max":429,"o":"m 90 951 q 96 967 90 961 q 111 972 101 972 l 260 972 q 275 967 269 972 q 281 951 281 961 l 281 21 q 275 6 281 11 q 260 0 269 0 l 111 0 q 96 6 101 0 q 90 21 90 11 l 90 951 m 36 1085 q -30 1112 -3 1085 q -57 1178 -57 1139 q -30 1244 -57 1217 q 36 1271 -3 1271 q 101 1244 74 1271 q 129 1178 129 1217 q 101 1112 129 1139 q 36 1085 74 1085 m 336 1085 q 271 1112 299 1085 q 243 1178 243 1139 q 271 1244 243 1217 q 336 1271 299 1271 q 401 1244 374 1271 q 429 1178 429 1217 q 401 1112 429 1139 q 336 1085 374 1085 z "},"İ":{"ha":371,"x_min":90,"x_max":281,"o":"m 90 951 q 96 967 90 961 q 111 972 101 972 l 260 972 q 275 967 269 972 q 281 951 281 961 l 281 21 q 275 6 281 11 q 260 0 269 0 l 111 0 q 96 6 101 0 q 90 21 90 11 l 90 951 m 186 1085 q 120 1112 147 1085 q 93 1178 93 1139 q 120 1244 93 1217 q 186 1271 147 1271 q 251 1244 224 1271 q 279 1178 279 1217 q 251 1112 279 1139 q 186 1085 224 1085 z "},"Ì":{"ha":371,"x_min":-3,"x_max":281,"o":"m 90 951 q 96 967 90 961 q 111 972 101 972 l 260 972 q 275 967 269 972 q 281 951 281 961 l 281 21 q 275 6 281 11 q 260 0 269 0 l 111 0 q 96 6 101 0 q 90 21 90 11 l 90 951 m 142 1261 q 165 1244 158 1261 l 249 1069 q 251 1060 251 1061 q 232 1046 251 1046 l 107 1046 q 83 1063 90 1046 l 0 1238 q -3 1247 -3 1246 q 17 1261 -3 1261 l 142 1261 z "},"Ī":{"ha":371,"x_min":-43,"x_max":417,"o":"m 90 951 q 96 967 90 961 q 111 972 101 972 l 260 972 q 275 967 269 972 q 281 951 281 961 l 281 21 q 275 6 281 11 q 260 0 269 0 l 111 0 q 96 6 101 0 q 90 21 90 11 l 90 951 m 396 1261 q 411 1256 406 1261 q 417 1240 417 1250 l 417 1139 q 411 1124 417 1129 q 396 1118 406 1118 l -22 1118 q -37 1124 -32 1118 q -43 1139 -43 1129 l -43 1240 q -37 1256 -43 1250 q -22 1261 -32 1261 l 396 1261 z "},"J":{"ha":743,"x_min":57,"x_max":653,"o":"m 138 219 q 151 226 143 226 q 168 221 161 226 q 236 183 207 196 q 310 171 265 171 q 422 219 382 171 q 463 371 463 268 l 463 951 q 468 967 463 961 q 483 972 474 972 l 632 972 q 647 967 642 972 q 653 951 653 961 l 653 364 q 563 80 653 172 q 315 -12 472 -12 q 165 15 231 -12 q 63 88 100 43 q 57 101 57 93 q 63 117 57 110 l 138 219 z "},"K":{"ha":910,"x_min":90,"x_max":867,"o":"m 863 25 q 867 13 867 19 q 850 0 867 0 l 674 0 q 649 13 657 0 l 358 413 l 281 322 l 281 21 q 275 6 281 11 q 260 0 269 0 l 111 0 q 96 6 101 0 q 90 21 90 11 l 90 951 q 96 967 90 961 q 111 972 101 972 l 260 972 q 275 967 269 972 q 281 951 281 961 l 281 575 l 606 961 q 631 972 615 972 l 815 972 q 828 969 824 972 q 832 961 832 965 q 826 947 832 953 l 485 557 l 863 25 z "},"Ķ":{"ha":976,"x_min":90,"x_max":867,"o":"m 863 25 q 867 13 867 19 q 850 0 867 0 l 674 0 q 649 13 657 0 l 358 413 l 281 322 l 281 21 q 275 6 281 11 q 260 0 269 0 l 111 0 q 96 6 101 0 q 90 21 90 11 l 90 951 q 96 967 90 961 q 111 972 101 972 l 260 972 q 275 967 269 972 q 281 951 281 961 l 281 575 l 606 961 q 631 972 615 972 l 815 972 q 828 969 824 972 q 832 961 832 965 q 826 947 832 953 l 485 557 l 863 25 m 492 -53 q 564 -84 535 -53 q 593 -167 593 -115 q 566 -286 593 -229 q 507 -379 539 -343 q 492 -386 500 -386 l 474 -386 q 464 -382 467 -386 q 464 -371 461 -378 q 492 -254 492 -311 q 419 -225 449 -254 q 390 -153 390 -196 q 419 -82 390 -111 q 492 -53 449 -53 z "},"L":{"ha":679,"x_min":90,"x_max":617,"o":"m 596 168 q 611 163 606 168 q 617 147 617 157 l 617 21 q 611 6 617 11 q 596 0 606 0 l 111 0 q 96 6 101 0 q 90 21 90 11 l 90 951 q 96 967 90 961 q 111 972 101 972 l 260 972 q 275 967 269 972 q 281 951 281 961 l 281 168 l 596 168 z "},"Ĺ":{"ha":679,"x_min":90,"x_max":617,"o":"m 596 168 q 611 163 606 168 q 617 147 617 157 l 617 21 q 611 6 617 11 q 596 0 606 0 l 111 0 q 96 6 101 0 q 90 21 90 11 l 90 951 q 96 967 90 961 q 111 972 101 972 l 260 972 q 275 967 269 972 q 281 951 281 961 l 281 168 l 596 168 m 369 1258 q 387 1252 382 1258 q 386 1235 392 1246 l 303 1060 q 279 1043 296 1043 l 154 1043 q 137 1049 142 1043 q 138 1067 132 1056 l 221 1242 q 244 1258 228 1258 l 369 1258 z "},"Ľ":{"ha":679,"x_min":90,"x_max":617,"o":"m 596 168 q 611 163 606 168 q 617 147 617 157 l 617 21 q 611 6 617 11 q 596 0 606 0 l 111 0 q 96 6 101 0 q 90 21 90 11 l 90 951 q 96 967 90 961 q 111 972 101 972 l 260 972 q 275 967 269 972 q 281 951 281 961 l 281 168 l 596 168 m 493 1028 q 565 997 536 1028 q 594 914 594 965 q 567 794 594 851 q 508 701 540 738 q 493 694 501 694 l 475 694 q 465 699 468 694 q 465 710 463 703 q 493 826 493 769 q 421 856 450 826 q 392 928 392 885 q 421 999 392 969 q 493 1028 450 1028 z "},"Ļ":{"ha":679,"x_min":90,"x_max":617,"o":"m 596 168 q 611 163 606 168 q 617 147 617 157 l 617 21 q 611 6 617 11 q 596 0 606 0 l 111 0 q 96 6 101 0 q 90 21 90 11 l 90 951 q 96 967 90 961 q 111 972 101 972 l 260 972 q 275 967 269 972 q 281 951 281 961 l 281 168 l 596 168 m 338 -53 q 410 -84 381 -53 q 439 -167 439 -115 q 412 -286 439 -229 q 353 -379 385 -343 q 338 -386 346 -386 l 319 -386 q 310 -382 313 -386 q 310 -371 307 -378 q 338 -254 338 -311 q 265 -225 294 -254 q 236 -153 236 -196 q 265 -82 236 -111 q 338 -53 294 -53 z "},"Ŀ":{"ha":704,"x_min":90,"x_max":638,"o":"m 596 168 q 611 163 606 168 q 617 147 617 157 l 617 21 q 611 6 617 11 q 596 0 606 0 l 111 0 q 96 6 101 0 q 90 21 90 11 l 90 951 q 96 967 90 961 q 111 972 101 972 l 260 972 q 275 967 269 972 q 281 951 281 961 l 281 168 l 596 168 m 538 410 q 465 439 494 410 q 436 511 436 468 q 465 582 436 553 q 538 611 494 611 q 608 582 579 611 q 638 511 638 553 q 608 439 638 468 q 538 410 579 410 z "},"Ł":{"ha":708,"x_min":42,"x_max":646,"o":"m 625 168 q 640 163 635 168 q 646 147 646 157 l 646 21 q 640 6 646 11 q 625 0 635 0 l 140 0 q 125 6 131 0 q 119 21 119 11 l 119 288 l 67 236 q 53 229 60 229 q 42 247 42 229 l 42 368 q 53 394 42 383 l 119 460 l 119 951 q 125 967 119 961 q 140 972 131 972 l 289 972 q 304 967 299 972 q 310 951 310 961 l 310 644 l 444 776 q 458 783 451 783 q 469 765 469 783 l 469 646 q 458 619 469 631 l 310 474 l 310 168 l 625 168 z "},"M":{"ha":1196,"x_min":90,"x_max":1106,"o":"m 1085 972 q 1100 967 1094 972 q 1106 951 1106 961 l 1106 21 q 1100 6 1106 11 q 1085 0 1094 0 l 936 0 q 921 6 926 0 q 915 21 915 11 l 915 574 l 690 17 q 665 0 685 0 l 531 0 q 506 17 513 0 l 281 574 l 281 21 q 275 6 281 11 q 260 0 269 0 l 111 0 q 96 6 101 0 q 90 21 90 11 l 90 951 q 96 967 90 961 q 111 972 101 972 l 282 972 q 307 958 301 972 l 599 218 l 889 958 q 914 972 894 972 l 1085 972 z "},"N":{"ha":961,"x_min":90,"x_max":871,"o":"m 850 972 q 865 967 860 972 q 871 951 871 961 l 871 21 q 865 6 871 11 q 850 0 860 0 l 679 0 q 654 14 663 0 l 281 674 l 281 21 q 275 6 281 11 q 260 0 269 0 l 111 0 q 96 6 101 0 q 90 21 90 11 l 90 951 q 96 967 90 961 q 111 972 101 972 l 282 972 q 307 958 299 972 l 681 299 l 681 951 q 686 967 681 961 q 701 972 692 972 l 850 972 z "},"Ń":{"ha":961,"x_min":90,"x_max":871,"o":"m 850 972 q 865 967 860 972 q 871 951 871 961 l 871 21 q 865 6 871 11 q 850 0 860 0 l 679 0 q 654 14 663 0 l 281 674 l 281 21 q 275 6 281 11 q 260 0 269 0 l 111 0 q 96 6 101 0 q 90 21 90 11 l 90 951 q 96 967 90 961 q 111 972 101 972 l 282 972 q 307 958 299 972 l 681 299 l 681 951 q 686 967 681 961 q 701 972 692 972 l 850 972 m 638 1261 q 655 1255 650 1261 q 654 1238 660 1249 l 571 1063 q 547 1046 564 1046 l 422 1046 q 405 1052 410 1046 q 406 1069 400 1058 l 489 1244 q 513 1261 496 1261 l 638 1261 z "},"Ň":{"ha":961,"x_min":90,"x_max":871,"o":"m 850 972 q 865 967 860 972 q 871 951 871 961 l 871 21 q 865 6 871 11 q 850 0 860 0 l 679 0 q 654 14 663 0 l 281 674 l 281 21 q 275 6 281 11 q 260 0 269 0 l 111 0 q 96 6 101 0 q 90 21 90 11 l 90 951 q 96 967 90 961 q 111 972 101 972 l 282 972 q 307 958 299 972 l 681 299 l 681 951 q 686 967 681 961 q 701 972 692 972 l 850 972 m 428 1075 q 403 1086 413 1075 l 269 1236 q 264 1249 264 1242 q 269 1258 264 1254 q 282 1261 274 1261 l 371 1261 q 396 1250 386 1261 l 481 1151 l 564 1250 q 589 1261 574 1261 l 679 1261 q 692 1258 688 1261 q 697 1249 697 1254 q 692 1236 697 1242 l 558 1086 q 533 1075 549 1075 l 428 1075 z "},"Ņ":{"ha":961,"x_min":90,"x_max":871,"o":"m 850 972 q 865 967 860 972 q 871 951 871 961 l 871 21 q 865 6 871 11 q 850 0 860 0 l 679 0 q 654 14 663 0 l 281 674 l 281 21 q 275 6 281 11 q 260 0 269 0 l 111 0 q 96 6 101 0 q 90 21 90 11 l 90 951 q 96 967 90 961 q 111 972 101 972 l 282 972 q 307 958 299 972 l 681 299 l 681 951 q 686 967 681 961 q 701 972 692 972 l 850 972 m 481 -53 q 553 -84 524 -53 q 582 -167 582 -115 q 555 -286 582 -229 q 496 -379 528 -343 q 481 -386 489 -386 l 463 -386 q 453 -382 456 -386 q 453 -371 450 -378 q 481 -254 481 -311 q 408 -225 438 -254 q 379 -153 379 -196 q 408 -82 379 -111 q 481 -53 438 -53 z "},"Ŋ":{"ha":961,"x_min":90,"x_max":871,"o":"m 850 972 q 865 967 860 972 q 871 951 871 961 l 871 21 q 865 7 871 11 q 760 -215 847 -143 q 533 -287 672 -287 q 383 -260 449 -287 q 281 -187 318 -232 q 275 -174 275 -182 q 281 -158 275 -165 l 356 -56 q 369 -49 361 -49 q 386 -54 379 -49 q 454 -92 425 -79 q 528 -104 483 -104 q 669 1 638 -104 q 654 14 661 3 l 281 674 l 281 21 q 275 6 281 11 q 260 0 269 0 l 111 0 q 96 6 101 0 q 90 21 90 11 l 90 951 q 96 967 90 961 q 111 972 101 972 l 282 972 q 307 958 299 972 l 681 299 l 681 951 q 686 967 681 961 q 701 972 692 972 l 850 972 z "},"Ñ":{"ha":961,"x_min":90,"x_max":871,"o":"m 850 972 q 865 967 860 972 q 871 951 871 961 l 871 21 q 865 6 871 11 q 850 0 860 0 l 679 0 q 654 14 663 0 l 281 674 l 281 21 q 275 6 281 11 q 260 0 269 0 l 111 0 q 96 6 101 0 q 90 21 90 11 l 90 951 q 96 967 90 961 q 111 972 101 972 l 282 972 q 307 958 299 972 l 681 299 l 681 951 q 686 967 681 961 q 701 972 692 972 l 850 972 m 375 1292 q 443 1278 414 1292 q 510 1236 472 1264 q 557 1205 538 1215 q 600 1194 576 1194 q 640 1206 624 1194 q 664 1233 657 1217 q 679 1244 668 1244 l 719 1244 q 733 1231 733 1244 q 689 1126 729 1161 q 588 1090 649 1090 q 520 1103 549 1090 q 453 1144 492 1117 q 406 1176 425 1165 q 363 1186 386 1186 q 322 1175 339 1186 q 299 1147 306 1164 q 283 1136 294 1136 l 243 1136 q 229 1154 229 1136 q 274 1256 235 1221 q 375 1292 314 1292 z "},"O":{"ha":1125,"x_min":63,"x_max":1063,"o":"m 563 -18 q 312 49 426 -18 q 130 231 197 115 q 63 482 63 346 q 130 734 63 619 q 312 916 197 849 q 563 983 426 983 q 813 916 699 983 q 995 734 928 849 q 1063 482 1063 619 q 995 231 1063 346 q 813 49 928 115 q 563 -18 699 -18 m 563 165 q 719 207 649 165 q 831 322 790 249 q 872 482 872 394 q 831 642 872 569 q 719 758 790 715 q 563 800 649 800 q 406 758 476 800 q 294 642 335 715 q 253 482 253 569 q 294 322 253 394 q 406 207 335 249 q 563 165 476 165 z "},"Ó":{"ha":1125,"x_min":63,"x_max":1063,"o":"m 563 -18 q 312 49 426 -18 q 130 231 197 115 q 63 482 63 346 q 130 734 63 619 q 312 916 197 849 q 563 983 426 983 q 813 916 699 983 q 995 734 928 849 q 1063 482 1063 619 q 995 231 1063 346 q 813 49 928 115 q 563 -18 699 -18 m 563 165 q 719 207 649 165 q 831 322 790 249 q 872 482 872 394 q 831 642 872 569 q 719 758 790 715 q 563 800 649 800 q 406 758 476 800 q 294 642 335 715 q 253 482 253 569 q 294 322 253 394 q 406 207 335 249 q 563 165 476 165 m 719 1261 q 737 1255 732 1261 q 736 1238 742 1249 l 653 1063 q 629 1046 646 1046 l 504 1046 q 487 1052 492 1046 q 488 1069 482 1058 l 571 1244 q 594 1261 578 1261 l 719 1261 z "},"Ǒ":{"ha":1125,"x_min":63,"x_max":1063,"o":"m 563 -18 q 312 49 426 -18 q 130 231 197 115 q 63 482 63 346 q 130 734 63 619 q 312 916 197 849 q 563 983 426 983 q 813 916 699 983 q 995 734 928 849 q 1063 482 1063 619 q 995 231 1063 346 q 813 49 928 115 q 563 -18 699 -18 m 563 165 q 719 207 649 165 q 831 322 790 249 q 872 482 872 394 q 831 642 872 569 q 719 758 790 715 q 563 800 649 800 q 406 758 476 800 q 294 642 335 715 q 253 482 253 569 q 294 322 253 394 q 406 207 335 249 q 563 165 476 165 m 510 1075 q 485 1086 494 1075 l 351 1236 q 346 1249 346 1242 q 351 1258 346 1254 q 364 1261 356 1261 l 453 1261 q 478 1250 468 1261 l 563 1151 l 646 1250 q 671 1261 656 1261 l 761 1261 q 774 1258 769 1261 q 779 1249 779 1254 q 774 1236 779 1242 l 640 1086 q 615 1075 631 1075 l 510 1075 z "},"Ô":{"ha":1125,"x_min":63,"x_max":1063,"o":"m 563 -18 q 312 49 426 -18 q 130 231 197 115 q 63 482 63 346 q 130 734 63 619 q 312 916 197 849 q 563 983 426 983 q 813 916 699 983 q 995 734 928 849 q 1063 482 1063 619 q 995 231 1063 346 q 813 49 928 115 q 563 -18 699 -18 m 563 165 q 719 207 649 165 q 831 322 790 249 q 872 482 872 394 q 831 642 872 569 q 719 758 790 715 q 563 800 649 800 q 406 758 476 800 q 294 642 335 715 q 253 482 253 569 q 294 322 253 394 q 406 207 335 249 q 563 165 476 165 m 615 1261 q 640 1250 631 1261 l 774 1100 q 779 1088 779 1094 q 774 1078 779 1082 q 761 1075 769 1075 l 671 1075 q 646 1086 656 1075 l 563 1185 l 478 1086 q 453 1075 468 1075 l 364 1075 q 351 1078 356 1075 q 346 1088 346 1082 q 351 1100 346 1094 l 485 1250 q 510 1261 494 1261 l 615 1261 z "},"Ö":{"ha":1125,"x_min":63,"x_max":1063,"o":"m 563 -18 q 312 49 426 -18 q 130 231 197 115 q 63 482 63 346 q 130 734 63 619 q 312 916 197 849 q 563 983 426 983 q 813 916 699 983 q 995 734 928 849 q 1063 482 1063 619 q 995 231 1063 346 q 813 49 928 115 q 563 -18 699 -18 m 563 165 q 719 207 649 165 q 831 322 790 249 q 872 482 872 394 q 831 642 872 569 q 719 758 790 715 q 563 800 649 800 q 406 758 476 800 q 294 642 335 715 q 253 482 253 569 q 294 322 253 394 q 406 207 335 249 q 563 165 476 165 m 413 1085 q 347 1112 374 1085 q 319 1178 319 1139 q 347 1244 319 1217 q 413 1271 374 1271 q 478 1244 450 1271 q 506 1178 506 1217 q 478 1112 506 1139 q 413 1085 450 1085 m 713 1085 q 647 1112 675 1085 q 619 1178 619 1139 q 647 1244 619 1217 q 713 1271 675 1271 q 778 1244 750 1271 q 806 1178 806 1217 q 778 1112 806 1139 q 713 1085 750 1085 z "},"Ò":{"ha":1125,"x_min":63,"x_max":1063,"o":"m 563 -18 q 312 49 426 -18 q 130 231 197 115 q 63 482 63 346 q 130 734 63 619 q 312 916 197 849 q 563 983 426 983 q 813 916 699 983 q 995 734 928 849 q 1063 482 1063 619 q 995 231 1063 346 q 813 49 928 115 q 563 -18 699 -18 m 563 165 q 719 207 649 165 q 831 322 790 249 q 872 482 872 394 q 831 642 872 569 q 719 758 790 715 q 563 800 649 800 q 406 758 476 800 q 294 642 335 715 q 253 482 253 569 q 294 322 253 394 q 406 207 335 249 q 563 165 476 165 m 518 1261 q 542 1244 535 1261 l 625 1069 q 628 1060 628 1061 q 608 1046 628 1046 l 483 1046 q 460 1063 467 1046 l 376 1238 q 374 1247 374 1246 q 393 1261 374 1261 l 518 1261 z "},"Ő":{"ha":1125,"x_min":63,"x_max":1063,"o":"m 563 -18 q 312 49 426 -18 q 130 231 197 115 q 63 482 63 346 q 130 734 63 619 q 312 916 197 849 q 563 983 426 983 q 813 916 699 983 q 995 734 928 849 q 1063 482 1063 619 q 995 231 1063 346 q 813 49 928 115 q 563 -18 699 -18 m 563 165 q 719 207 649 165 q 831 322 790 249 q 872 482 872 394 q 831 642 872 569 q 719 758 790 715 q 563 800 649 800 q 406 758 476 800 q 294 642 335 715 q 253 482 253 569 q 294 322 253 394 q 406 207 335 249 q 563 165 476 165 m 875 1261 q 892 1255 888 1261 q 892 1238 897 1249 l 808 1063 q 785 1046 801 1046 l 660 1046 q 642 1052 647 1046 q 643 1069 638 1058 l 726 1244 q 750 1261 733 1261 l 875 1261 m 621 1261 q 638 1255 633 1261 q 638 1238 643 1249 l 554 1063 q 531 1046 547 1046 l 406 1046 q 388 1052 393 1046 q 389 1069 383 1058 l 472 1244 q 496 1261 479 1261 l 621 1261 z "},"Ō":{"ha":1125,"x_min":63,"x_max":1063,"o":"m 563 -18 q 312 49 426 -18 q 130 231 197 115 q 63 482 63 346 q 130 734 63 619 q 312 916 197 849 q 563 983 426 983 q 813 916 699 983 q 995 734 928 849 q 1063 482 1063 619 q 995 231 1063 346 q 813 49 928 115 q 563 -18 699 -18 m 563 165 q 719 207 649 165 q 831 322 790 249 q 872 482 872 394 q 831 642 872 569 q 719 758 790 715 q 563 800 649 800 q 406 758 476 800 q 294 642 335 715 q 253 482 253 569 q 294 322 253 394 q 406 207 335 249 q 563 165 476 165 m 772 1261 q 788 1256 782 1261 q 793 1240 793 1250 l 793 1139 q 788 1124 793 1129 q 772 1118 782 1118 l 354 1118 q 339 1124 344 1118 q 333 1139 333 1129 l 333 1240 q 339 1256 333 1250 q 354 1261 344 1261 l 772 1261 z "},"Ǫ":{"ha":1125,"x_min":63,"x_max":1063,"o":"m 549 -18 q 508 -58 522 -33 q 493 -107 493 -82 q 509 -148 493 -132 q 557 -164 525 -164 q 586 -161 575 -164 l 586 -275 q 510 -290 553 -290 q 392 -253 442 -290 q 343 -143 343 -217 q 421 3 343 -61 q 236 102 318 32 q 108 271 154 172 q 63 482 63 369 q 130 734 63 619 q 312 916 197 849 q 563 983 426 983 q 813 916 699 983 q 995 734 928 849 q 1063 482 1063 619 q 995 231 1063 346 q 813 49 928 115 q 563 -18 699 -18 l 549 -18 m 253 482 q 294 322 253 394 q 406 207 335 249 q 563 165 476 165 q 719 207 649 165 q 831 322 790 249 q 872 482 872 394 q 831 642 872 569 q 719 758 790 715 q 563 800 649 800 q 406 758 476 800 q 294 642 335 715 q 253 482 253 569 z "},"Ø":{"ha":1125,"x_min":63,"x_max":1063,"o":"m 844 896 q 1004 719 946 828 q 1063 482 1063 610 q 995 231 1063 346 q 813 49 928 115 q 563 -18 699 -18 q 429 0 492 -18 l 404 -54 q 381 -69 397 -69 l 243 -69 q 225 -56 225 -69 l 228 -44 l 281 69 q 121 246 179 138 q 63 482 63 354 q 130 734 63 619 q 312 916 197 849 q 563 983 426 983 q 696 965 633 983 l 721 1019 q 744 1035 728 1035 l 882 1035 q 900 1021 900 1035 l 897 1010 l 844 896 m 253 482 q 281 348 253 411 q 360 240 310 285 l 617 796 q 563 800 592 800 q 406 758 476 800 q 294 642 335 715 q 253 482 253 569 m 563 165 q 719 207 649 165 q 831 322 790 249 q 872 482 872 394 q 844 617 872 554 q 765 725 815 681 l 508 169 q 563 165 533 165 z "},"Õ":{"ha":1125,"x_min":63,"x_max":1063,"o":"m 563 -18 q 312 49 426 -18 q 130 231 197 115 q 63 482 63 346 q 130 734 63 619 q 312 916 197 849 q 563 983 426 983 q 813 916 699 983 q 995 734 928 849 q 1063 482 1063 619 q 995 231 1063 346 q 813 49 928 115 q 563 -18 699 -18 m 563 165 q 719 207 649 165 q 831 322 790 249 q 872 482 872 394 q 831 642 872 569 q 719 758 790 715 q 563 800 649 800 q 406 758 476 800 q 294 642 335 715 q 253 482 253 569 q 294 322 253 394 q 406 207 335 249 q 563 165 476 165 m 457 1292 q 525 1278 496 1292 q 592 1236 554 1264 q 639 1205 619 1215 q 682 1194 658 1194 q 722 1206 706 1194 q 746 1233 739 1217 q 761 1244 750 1244 l 801 1244 q 815 1231 815 1244 q 771 1126 811 1161 q 669 1090 731 1090 q 602 1103 631 1090 q 535 1144 574 1117 q 488 1176 507 1165 q 444 1186 468 1186 q 404 1175 421 1186 q 381 1147 388 1164 q 365 1136 376 1136 l 325 1136 q 311 1154 311 1136 q 356 1256 317 1221 q 457 1292 396 1292 z "},"Œ":{"ha":1510,"x_min":63,"x_max":1426,"o":"m 1406 168 q 1421 163 1415 168 q 1426 147 1426 157 l 1426 21 q 1421 6 1426 11 q 1406 0 1415 0 l 893 0 q 878 6 883 0 q 872 21 872 11 l 872 89 q 728 10 807 38 q 563 -18 649 -18 q 312 49 426 -18 q 130 231 197 115 q 63 482 63 346 q 130 734 63 619 q 312 916 197 849 q 563 983 426 983 q 728 956 649 983 q 872 876 807 928 l 872 951 q 878 967 872 961 q 893 972 883 972 l 1404 972 q 1419 967 1414 972 q 1425 951 1425 961 l 1425 825 q 1419 810 1425 815 q 1404 804 1414 804 l 1063 804 l 1063 585 l 1383 585 q 1399 579 1393 585 q 1404 564 1404 574 l 1404 438 q 1399 422 1404 428 q 1383 417 1393 417 l 1063 417 l 1063 168 l 1406 168 m 563 165 q 719 207 649 165 q 831 322 790 249 q 872 482 872 394 q 831 642 872 569 q 719 758 790 715 q 563 800 649 800 q 406 758 476 800 q 294 642 335 715 q 253 482 253 569 q 294 322 253 394 q 406 207 335 249 q 563 165 476 165 z "},"P":{"ha":800,"x_min":90,"x_max":751,"o":"m 399 972 q 590 932 511 972 q 710 820 669 892 q 751 656 751 749 q 710 490 751 561 q 590 378 669 418 q 399 338 511 338 l 281 338 l 281 21 q 275 6 281 11 q 260 0 269 0 l 111 0 q 96 6 101 0 q 90 21 90 11 l 90 951 q 96 967 90 961 q 111 972 101 972 l 399 972 m 394 507 q 520 542 471 507 q 569 656 569 576 q 519 769 569 733 q 394 804 469 804 l 281 804 l 281 507 l 394 507 z "},"Þ":{"ha":814,"x_min":90,"x_max":765,"o":"m 413 803 q 674 719 583 803 q 765 486 765 636 q 674 253 765 336 q 413 169 583 169 l 281 169 l 281 21 q 275 6 281 11 q 260 0 269 0 l 111 0 q 96 6 101 0 q 90 21 90 11 l 90 951 q 96 967 90 961 q 111 972 101 972 l 260 972 q 275 967 269 972 q 281 951 281 961 l 281 803 l 413 803 m 400 338 q 536 371 489 338 q 583 486 583 404 q 536 601 583 568 q 400 635 489 635 l 281 635 l 281 338 l 400 338 z "},"Q":{"ha":1125,"x_min":63,"x_max":1063,"o":"m 1054 111 q 1061 97 1061 106 q 1054 82 1061 89 l 954 -18 q 939 -25 947 -25 q 925 -18 932 -25 l 840 67 q 563 -18 717 -18 q 312 49 426 -18 q 130 231 197 115 q 63 482 63 346 q 130 734 63 619 q 312 916 197 849 q 563 983 426 983 q 813 916 699 983 q 995 734 928 849 q 1063 482 1063 619 q 1039 329 1063 403 q 972 194 1015 256 l 1054 111 m 563 165 q 707 201 642 165 l 596 313 q 588 328 588 321 q 594 342 588 335 l 696 442 q 711 449 703 449 q 725 442 718 449 l 836 331 q 872 482 872 399 q 831 642 872 569 q 719 758 790 715 q 563 800 649 800 q 406 758 476 800 q 294 642 335 715 q 253 482 253 569 q 294 322 253 394 q 406 207 335 249 q 563 165 476 165 z "},"R":{"ha":835,"x_min":90,"x_max":772,"o":"m 768 25 q 772 13 772 19 q 754 0 772 0 l 596 0 q 571 14 579 0 l 361 338 l 281 338 l 281 21 q 275 6 281 11 q 260 0 269 0 l 111 0 q 96 6 101 0 q 90 21 90 11 l 90 951 q 96 967 90 961 q 111 972 101 972 l 399 972 q 590 932 511 972 q 710 820 669 892 q 751 656 751 749 q 699 471 751 549 q 547 360 646 393 l 768 25 m 281 507 l 394 507 q 520 542 471 507 q 569 656 569 576 q 519 769 569 733 q 394 804 469 804 l 281 804 l 281 507 z "},"Ŕ":{"ha":835,"x_min":90,"x_max":772,"o":"m 768 25 q 772 13 772 19 q 754 0 772 0 l 596 0 q 571 14 579 0 l 361 338 l 281 338 l 281 21 q 275 6 281 11 q 260 0 269 0 l 111 0 q 96 6 101 0 q 90 21 90 11 l 90 951 q 96 967 90 961 q 111 972 101 972 l 399 972 q 590 932 511 972 q 710 820 669 892 q 751 656 751 749 q 699 471 751 549 q 547 360 646 393 l 768 25 m 281 507 l 394 507 q 520 542 471 507 q 569 656 569 576 q 519 769 569 733 q 394 804 469 804 l 281 804 l 281 507 m 550 1261 q 567 1255 563 1261 q 567 1238 572 1249 l 483 1063 q 460 1046 476 1046 l 335 1046 q 317 1052 322 1046 q 318 1069 313 1058 l 401 1244 q 425 1261 408 1261 l 550 1261 z "},"Ř":{"ha":835,"x_min":90,"x_max":772,"o":"m 768 25 q 772 13 772 19 q 754 0 772 0 l 596 0 q 571 14 579 0 l 361 338 l 281 338 l 281 21 q 275 6 281 11 q 260 0 269 0 l 111 0 q 96 6 101 0 q 90 21 90 11 l 90 951 q 96 967 90 961 q 111 972 101 972 l 399 972 q 590 932 511 972 q 710 820 669 892 q 751 656 751 749 q 699 471 751 549 q 547 360 646 393 l 768 25 m 281 507 l 394 507 q 520 542 471 507 q 569 656 569 576 q 519 769 569 733 q 394 804 469 804 l 281 804 l 281 507 m 340 1075 q 315 1086 325 1075 l 182 1236 q 176 1249 176 1242 q 181 1258 176 1254 q 194 1261 186 1261 l 283 1261 q 308 1250 299 1261 l 393 1151 l 476 1250 q 501 1261 486 1261 l 592 1261 q 605 1258 600 1261 q 610 1249 610 1254 q 604 1236 610 1242 l 471 1086 q 446 1075 461 1075 l 340 1075 z "},"Ŗ":{"ha":835,"x_min":90,"x_max":772,"o":"m 768 25 q 772 13 772 19 q 754 0 772 0 l 596 0 q 571 14 579 0 l 361 338 l 281 338 l 281 21 q 275 6 281 11 q 260 0 269 0 l 111 0 q 96 6 101 0 q 90 21 90 11 l 90 951 q 96 967 90 961 q 111 972 101 972 l 399 972 q 590 932 511 972 q 710 820 669 892 q 751 656 751 749 q 699 471 751 549 q 547 360 646 393 l 768 25 m 281 507 l 394 507 q 520 542 471 507 q 569 656 569 576 q 519 769 569 733 q 394 804 469 804 l 281 804 l 281 507 m 393 -53 q 465 -84 436 -53 q 494 -167 494 -115 q 467 -286 494 -229 q 408 -379 440 -343 q 393 -386 401 -386 l 375 -386 q 365 -382 368 -386 q 365 -371 363 -378 q 393 -254 393 -311 q 321 -225 350 -254 q 292 -153 292 -196 q 321 -82 292 -111 q 393 -53 350 -53 z "},"S":{"ha":782,"x_min":56,"x_max":726,"o":"m 264 707 q 286 650 264 674 q 342 611 308 626 q 438 572 376 596 q 585 509 526 540 q 685 419 643 478 q 726 269 726 361 q 678 117 726 182 q 553 17 631 51 q 389 -18 475 -18 q 201 26 289 -18 q 61 133 114 71 q 56 147 56 142 q 63 163 56 153 l 146 253 q 161 261 153 261 q 176 254 167 261 q 282 183 231 207 q 393 160 333 160 q 498 191 456 160 q 540 274 540 222 q 517 333 540 308 q 460 375 494 358 q 363 417 425 392 q 216 483 272 451 q 119 570 160 514 q 79 711 79 626 q 121 855 79 793 q 232 950 163 917 q 382 983 301 983 q 679 854 550 983 q 686 840 686 849 q 679 825 686 832 l 603 732 q 588 722 597 722 q 574 728 579 722 q 478 788 519 769 q 388 806 438 806 q 297 778 331 806 q 264 707 264 750 z "},"Ś":{"ha":782,"x_min":56,"x_max":726,"o":"m 264 707 q 286 650 264 674 q 342 611 308 626 q 438 572 376 596 q 585 509 526 540 q 685 419 643 478 q 726 269 726 361 q 678 117 726 182 q 553 17 631 51 q 389 -18 475 -18 q 201 26 289 -18 q 61 133 114 71 q 56 147 56 142 q 63 163 56 153 l 146 253 q 161 261 153 261 q 176 254 167 261 q 282 183 231 207 q 393 160 333 160 q 498 191 456 160 q 540 274 540 222 q 517 333 540 308 q 460 375 494 358 q 363 417 425 392 q 216 483 272 451 q 119 570 160 514 q 79 711 79 626 q 121 855 79 793 q 232 950 163 917 q 382 983 301 983 q 679 854 550 983 q 686 840 686 849 q 679 825 686 832 l 603 732 q 588 722 597 722 q 574 728 579 722 q 478 788 519 769 q 388 806 438 806 q 297 778 331 806 q 264 707 264 750 m 535 1261 q 552 1255 547 1261 q 551 1238 557 1249 l 468 1063 q 444 1046 461 1046 l 319 1046 q 302 1052 307 1046 q 303 1069 297 1058 l 386 1244 q 410 1261 393 1261 l 535 1261 z "},"Š":{"ha":782,"x_min":56,"x_max":726,"o":"m 264 707 q 286 650 264 674 q 342 611 308 626 q 438 572 376 596 q 585 509 526 540 q 685 419 643 478 q 726 269 726 361 q 678 117 726 182 q 553 17 631 51 q 389 -18 475 -18 q 201 26 289 -18 q 61 133 114 71 q 56 147 56 142 q 63 163 56 153 l 146 253 q 161 261 153 261 q 176 254 167 261 q 282 183 231 207 q 393 160 333 160 q 498 191 456 160 q 540 274 540 222 q 517 333 540 308 q 460 375 494 358 q 363 417 425 392 q 216 483 272 451 q 119 570 160 514 q 79 711 79 626 q 121 855 79 793 q 232 950 163 917 q 382 983 301 983 q 679 854 550 983 q 686 840 686 849 q 679 825 686 832 l 603 732 q 588 722 597 722 q 574 728 579 722 q 478 788 519 769 q 388 806 438 806 q 297 778 331 806 q 264 707 264 750 m 325 1075 q 300 1086 310 1075 l 167 1236 q 161 1249 161 1242 q 166 1258 161 1254 q 179 1261 171 1261 l 268 1261 q 293 1250 283 1261 l 378 1151 l 461 1250 q 486 1261 471 1261 l 576 1261 q 590 1258 585 1261 q 594 1249 594 1254 q 589 1236 594 1242 l 456 1086 q 431 1075 446 1075 l 325 1075 z "},"Ş":{"ha":782,"x_min":56,"x_max":726,"o":"m 726 269 q 685 125 726 188 q 574 26 643 63 q 425 -17 506 -10 l 392 -46 q 478 -81 442 -50 q 515 -161 515 -111 q 463 -270 515 -235 q 329 -306 410 -306 q 272 -301 301 -306 q 260 -286 260 -300 l 260 -222 q 275 -208 260 -208 q 311 -211 300 -211 q 369 -200 349 -211 q 390 -169 390 -189 q 374 -145 390 -156 q 329 -135 357 -135 q 276 -144 304 -135 q 269 -146 274 -146 q 260 -135 260 -146 l 260 -69 q 267 -53 260 -60 l 310 -10 q 167 44 233 6 q 61 133 101 83 q 56 147 56 142 q 63 163 56 153 l 146 253 q 161 261 153 261 q 176 254 167 261 q 282 183 231 207 q 393 160 333 160 q 498 191 456 160 q 540 274 540 222 q 517 333 540 308 q 460 375 494 358 q 363 417 425 392 q 216 483 272 451 q 119 570 160 514 q 79 711 79 626 q 121 855 79 793 q 232 950 163 917 q 382 983 301 983 q 679 854 550 983 q 686 840 686 849 q 679 825 686 832 l 603 732 q 588 722 597 722 q 574 728 579 722 q 478 788 519 769 q 388 806 438 806 q 297 778 331 806 q 264 707 264 750 q 286 650 264 674 q 342 611 308 626 q 438 572 376 596 q 585 509 526 540 q 685 419 643 478 q 726 269 726 361 z "},"Ș":{"ha":782,"x_min":56,"x_max":726,"o":"m 264 707 q 286 650 264 674 q 342 611 308 626 q 438 572 376 596 q 585 509 526 540 q 685 419 643 478 q 726 269 726 361 q 678 117 726 182 q 553 17 631 51 q 389 -18 475 -18 q 201 26 289 -18 q 61 133 114 71 q 56 147 56 142 q 63 163 56 153 l 146 253 q 161 261 153 261 q 176 254 167 261 q 282 183 231 207 q 393 160 333 160 q 498 191 456 160 q 540 274 540 222 q 517 333 540 308 q 460 375 494 358 q 363 417 425 392 q 216 483 272 451 q 119 570 160 514 q 79 711 79 626 q 121 855 79 793 q 232 950 163 917 q 382 983 301 983 q 679 854 550 983 q 686 840 686 849 q 679 825 686 832 l 603 732 q 588 722 597 722 q 574 728 579 722 q 478 788 519 769 q 388 806 438 806 q 297 778 331 806 q 264 707 264 750 m 378 -53 q 450 -84 421 -53 q 479 -167 479 -115 q 452 -286 479 -229 q 393 -379 425 -343 q 378 -386 386 -386 l 360 -386 q 350 -382 353 -386 q 350 -371 347 -378 q 378 -254 378 -311 q 306 -225 335 -254 q 276 -153 276 -196 q 306 -82 276 -111 q 378 -53 335 -53 z "},"T":{"ha":778,"x_min":63,"x_max":715,"o":"m 694 972 q 710 967 704 972 q 715 951 715 961 l 715 825 q 710 810 715 815 q 694 804 704 804 l 485 804 l 485 21 q 479 6 485 11 q 464 0 474 0 l 315 0 q 300 6 306 0 q 294 21 294 11 l 294 804 l 83 804 q 68 810 74 804 q 63 825 63 815 l 63 951 q 68 967 63 961 q 83 972 74 972 l 694 972 z "},"Ŧ":{"ha":778,"x_min":63,"x_max":715,"o":"m 694 972 q 710 967 704 972 q 715 951 715 961 l 715 825 q 710 810 715 815 q 694 804 704 804 l 485 804 l 485 681 l 599 681 q 614 675 608 681 q 619 660 619 669 l 619 558 q 614 543 619 549 q 599 538 608 538 l 485 538 l 485 21 q 479 6 485 11 q 464 0 474 0 l 315 0 q 300 6 306 0 q 294 21 294 11 l 294 538 l 181 538 q 165 543 171 538 q 160 558 160 549 l 160 660 q 165 675 160 669 q 181 681 171 681 l 294 681 l 294 804 l 83 804 q 68 810 74 804 q 63 825 63 815 l 63 951 q 68 967 63 961 q 83 972 74 972 l 694 972 z "},"Ť":{"ha":778,"x_min":63,"x_max":715,"o":"m 694 972 q 710 967 704 972 q 715 951 715 961 l 715 825 q 710 810 715 815 q 694 804 704 804 l 485 804 l 485 21 q 479 6 485 11 q 464 0 474 0 l 315 0 q 300 6 306 0 q 294 21 294 11 l 294 804 l 83 804 q 68 810 74 804 q 63 825 63 815 l 63 951 q 68 967 63 961 q 83 972 74 972 l 694 972 m 336 1075 q 311 1086 321 1075 l 178 1236 q 172 1249 172 1242 q 177 1258 172 1254 q 190 1261 182 1261 l 279 1261 q 304 1250 294 1261 l 389 1151 l 472 1250 q 497 1261 482 1261 l 588 1261 q 601 1258 596 1261 q 606 1249 606 1254 q 600 1236 606 1242 l 467 1086 q 442 1075 457 1075 l 336 1075 z "},"Ţ":{"ha":778,"x_min":63,"x_max":715,"o":"m 694 972 q 710 967 704 972 q 715 951 715 961 l 715 825 q 710 810 715 815 q 694 804 704 804 l 485 804 l 485 21 q 479 6 485 11 q 464 0 474 0 l 315 0 q 300 6 306 0 q 294 21 294 11 l 294 804 l 83 804 q 68 810 74 804 q 63 825 63 815 l 63 951 q 68 967 63 961 q 83 972 74 972 l 694 972 m 403 -46 q 490 -81 453 -50 q 526 -161 526 -111 q 474 -270 526 -235 q 340 -306 421 -306 q 283 -301 313 -306 q 271 -286 271 -300 l 271 -222 q 286 -208 271 -208 q 322 -211 311 -211 q 381 -200 360 -211 q 401 -169 401 -189 q 385 -145 401 -156 q 340 -135 368 -135 q 288 -144 315 -135 q 281 -146 285 -146 q 271 -135 271 -146 l 271 -69 q 278 -53 271 -60 l 332 0 l 454 0 l 403 -46 z "},"Ț":{"ha":778,"x_min":63,"x_max":715,"o":"m 694 972 q 710 967 704 972 q 715 951 715 961 l 715 825 q 710 810 715 815 q 694 804 704 804 l 485 804 l 485 21 q 479 6 485 11 q 464 0 474 0 l 315 0 q 300 6 306 0 q 294 21 294 11 l 294 804 l 83 804 q 68 810 74 804 q 63 825 63 815 l 63 951 q 68 967 63 961 q 83 972 74 972 l 694 972 m 389 -53 q 461 -84 432 -53 q 490 -167 490 -115 q 463 -286 490 -229 q 404 -379 436 -343 q 389 -386 397 -386 l 371 -386 q 361 -382 364 -386 q 361 -371 358 -378 q 389 -254 389 -311 q 317 -225 346 -254 q 288 -153 288 -196 q 317 -82 288 -111 q 389 -53 346 -53 z "},"U":{"ha":904,"x_min":83,"x_max":821,"o":"m 800 972 q 815 967 810 972 q 821 951 821 961 l 821 378 q 774 163 821 253 q 643 28 726 74 q 453 -18 560 -18 q 261 28 344 -18 q 131 163 178 74 q 83 378 83 253 l 83 951 q 89 967 83 961 q 104 972 94 972 l 253 972 q 268 967 263 972 q 274 951 274 961 l 274 378 q 321 222 274 276 q 453 168 368 168 q 584 222 538 168 q 631 378 631 276 l 631 951 q 636 967 631 961 q 651 972 642 972 l 800 972 z "},"Ú":{"ha":904,"x_min":83,"x_max":821,"o":"m 800 972 q 815 967 810 972 q 821 951 821 961 l 821 378 q 774 163 821 253 q 643 28 726 74 q 453 -18 560 -18 q 261 28 344 -18 q 131 163 178 74 q 83 378 83 253 l 83 951 q 89 967 83 961 q 104 972 94 972 l 253 972 q 268 967 263 972 q 274 951 274 961 l 274 378 q 321 222 274 276 q 453 168 368 168 q 584 222 538 168 q 631 378 631 276 l 631 951 q 636 967 631 961 q 651 972 642 972 l 800 972 m 610 1261 q 627 1255 622 1261 q 626 1238 632 1249 l 543 1063 q 519 1046 536 1046 l 394 1046 q 377 1052 382 1046 q 378 1069 372 1058 l 461 1244 q 485 1261 468 1261 l 610 1261 z "},"Ŭ":{"ha":904,"x_min":83,"x_max":821,"o":"m 800 972 q 815 967 810 972 q 821 951 821 961 l 821 378 q 774 163 821 253 q 643 28 726 74 q 453 -18 560 -18 q 261 28 344 -18 q 131 163 178 74 q 83 378 83 253 l 83 951 q 89 967 83 961 q 104 972 94 972 l 253 972 q 268 967 263 972 q 274 951 274 961 l 274 378 q 321 222 274 276 q 453 168 368 168 q 584 222 538 168 q 631 378 631 276 l 631 951 q 636 967 631 961 q 651 972 642 972 l 800 972 m 557 1243 q 579 1263 561 1263 l 649 1263 q 668 1242 671 1263 q 603 1115 661 1165 q 453 1065 546 1065 q 302 1115 360 1065 q 238 1242 244 1165 l 238 1244 q 257 1263 238 1263 l 328 1263 q 350 1243 343 1263 q 385 1191 358 1213 q 453 1169 411 1169 q 522 1191 494 1169 q 557 1243 549 1213 z "},"Ǔ":{"ha":904,"x_min":83,"x_max":821,"o":"m 800 972 q 815 967 810 972 q 821 951 821 961 l 821 378 q 774 163 821 253 q 643 28 726 74 q 453 -18 560 -18 q 261 28 344 -18 q 131 163 178 74 q 83 378 83 253 l 83 951 q 89 967 83 961 q 104 972 94 972 l 253 972 q 268 967 263 972 q 274 951 274 961 l 274 378 q 321 222 274 276 q 453 168 368 168 q 584 222 538 168 q 631 378 631 276 l 631 951 q 636 967 631 961 q 651 972 642 972 l 800 972 m 400 1075 q 375 1086 385 1075 l 242 1236 q 236 1249 236 1242 q 241 1258 236 1254 q 254 1261 246 1261 l 343 1261 q 368 1250 358 1261 l 453 1151 l 536 1250 q 561 1261 546 1261 l 651 1261 q 665 1258 660 1261 q 669 1249 669 1254 q 664 1236 669 1242 l 531 1086 q 506 1075 521 1075 l 400 1075 z "},"Û":{"ha":904,"x_min":83,"x_max":821,"o":"m 800 972 q 815 967 810 972 q 821 951 821 961 l 821 378 q 774 163 821 253 q 643 28 726 74 q 453 -18 560 -18 q 261 28 344 -18 q 131 163 178 74 q 83 378 83 253 l 83 951 q 89 967 83 961 q 104 972 94 972 l 253 972 q 268 967 263 972 q 274 951 274 961 l 274 378 q 321 222 274 276 q 453 168 368 168 q 584 222 538 168 q 631 378 631 276 l 631 951 q 636 967 631 961 q 651 972 642 972 l 800 972 m 506 1261 q 531 1250 521 1261 l 664 1100 q 669 1088 669 1094 q 665 1078 669 1082 q 651 1075 660 1075 l 561 1075 q 536 1086 546 1075 l 453 1185 l 368 1086 q 343 1075 358 1075 l 254 1075 q 241 1078 246 1075 q 236 1088 236 1082 q 242 1100 236 1094 l 375 1250 q 400 1261 385 1261 l 506 1261 z "},"Ü":{"ha":904,"x_min":83,"x_max":821,"o":"m 800 972 q 815 967 810 972 q 821 951 821 961 l 821 378 q 774 163 821 253 q 643 28 726 74 q 453 -18 560 -18 q 261 28 344 -18 q 131 163 178 74 q 83 378 83 253 l 83 951 q 89 967 83 961 q 104 972 94 972 l 253 972 q 268 967 263 972 q 274 951 274 961 l 274 378 q 321 222 274 276 q 453 168 368 168 q 584 222 538 168 q 631 378 631 276 l 631 951 q 636 967 631 961 q 651 972 642 972 l 800 972 m 303 1085 q 237 1112 264 1085 q 210 1178 210 1139 q 237 1244 210 1217 q 303 1271 264 1271 q 368 1244 340 1271 q 396 1178 396 1217 q 368 1112 396 1139 q 303 1085 340 1085 m 603 1085 q 538 1112 565 1085 q 510 1178 510 1139 q 538 1244 510 1217 q 603 1271 565 1271 q 668 1244 640 1271 q 696 1178 696 1217 q 668 1112 696 1139 q 603 1085 640 1085 z "},"Ù":{"ha":904,"x_min":83,"x_max":821,"o":"m 800 972 q 815 967 810 972 q 821 951 821 961 l 821 378 q 774 163 821 253 q 643 28 726 74 q 453 -18 560 -18 q 261 28 344 -18 q 131 163 178 74 q 83 378 83 253 l 83 951 q 89 967 83 961 q 104 972 94 972 l 253 972 q 268 967 263 972 q 274 951 274 961 l 274 378 q 321 222 274 276 q 453 168 368 168 q 584 222 538 168 q 631 378 631 276 l 631 951 q 636 967 631 961 q 651 972 642 972 l 800 972 m 408 1261 q 432 1244 425 1261 l 515 1069 q 518 1060 518 1061 q 499 1046 518 1046 l 374 1046 q 350 1063 357 1046 l 267 1238 q 264 1247 264 1246 q 283 1261 264 1261 l 408 1261 z "},"Ű":{"ha":904,"x_min":83,"x_max":821,"o":"m 800 972 q 815 967 810 972 q 821 951 821 961 l 821 378 q 774 163 821 253 q 643 28 726 74 q 453 -18 560 -18 q 261 28 344 -18 q 131 163 178 74 q 83 378 83 253 l 83 951 q 89 967 83 961 q 104 972 94 972 l 253 972 q 268 967 263 972 q 274 951 274 961 l 274 378 q 321 222 274 276 q 453 168 368 168 q 584 222 538 168 q 631 378 631 276 l 631 951 q 636 967 631 961 q 651 972 642 972 l 800 972 m 765 1261 q 783 1255 778 1261 q 782 1238 788 1249 l 699 1063 q 675 1046 692 1046 l 550 1046 q 533 1052 538 1046 q 533 1069 528 1058 l 617 1244 q 640 1261 624 1261 l 765 1261 m 511 1261 q 528 1255 524 1261 q 528 1238 533 1249 l 444 1063 q 421 1046 438 1046 l 296 1046 q 278 1052 283 1046 q 279 1069 274 1058 l 363 1244 q 386 1261 369 1261 l 511 1261 z "},"Ū":{"ha":904,"x_min":83,"x_max":821,"o":"m 800 972 q 815 967 810 972 q 821 951 821 961 l 821 378 q 774 163 821 253 q 643 28 726 74 q 453 -18 560 -18 q 261 28 344 -18 q 131 163 178 74 q 83 378 83 253 l 83 951 q 89 967 83 961 q 104 972 94 972 l 253 972 q 268 967 263 972 q 274 951 274 961 l 274 378 q 321 222 274 276 q 453 168 368 168 q 584 222 538 168 q 631 378 631 276 l 631 951 q 636 967 631 961 q 651 972 642 972 l 800 972 m 663 1261 q 678 1256 672 1261 q 683 1240 683 1250 l 683 1139 q 678 1124 683 1129 q 663 1118 672 1118 l 244 1118 q 229 1124 235 1118 q 224 1139 224 1129 l 224 1240 q 229 1256 224 1250 q 244 1261 235 1261 l 663 1261 z "},"Ų":{"ha":904,"x_min":83,"x_max":821,"o":"m 800 972 q 815 967 810 972 q 821 951 821 961 l 821 378 q 758 135 821 232 q 586 3 696 39 q 474 -107 474 -42 q 489 -148 474 -132 q 536 -164 504 -164 q 567 -161 556 -164 l 567 -275 q 490 -290 533 -290 q 373 -253 422 -290 q 324 -143 324 -217 q 388 -14 324 -68 q 166 108 249 7 q 83 378 83 210 l 83 951 q 89 967 83 961 q 104 972 94 972 l 253 972 q 268 967 263 972 q 274 951 274 961 l 274 378 q 321 222 274 276 q 453 168 368 168 q 584 222 538 168 q 631 378 631 276 l 631 951 q 636 967 631 961 q 651 972 642 972 l 800 972 z "},"Ů":{"ha":904,"x_min":83,"x_max":821,"o":"m 800 972 q 815 967 810 972 q 821 951 821 961 l 821 378 q 774 163 821 253 q 643 28 726 74 q 453 -18 560 -18 q 261 28 344 -18 q 131 163 178 74 q 83 378 83 253 l 83 951 q 89 967 83 961 q 104 972 94 972 l 253 972 q 268 967 263 972 q 274 951 274 961 l 274 378 q 321 222 274 276 q 453 168 368 168 q 584 222 538 168 q 631 378 631 276 l 631 951 q 636 967 631 961 q 651 972 642 972 l 800 972 m 454 1318 q 551 1276 510 1318 q 592 1179 592 1235 q 551 1083 592 1124 q 454 1042 510 1042 q 354 1083 396 1042 q 313 1179 313 1124 q 354 1277 313 1236 q 454 1318 396 1318 m 453 1147 q 476 1157 467 1147 q 486 1181 486 1167 q 476 1204 486 1194 q 453 1214 467 1214 q 429 1204 439 1214 q 419 1181 419 1194 q 429 1157 419 1167 q 453 1147 439 1147 z "},"V":{"ha":978,"x_min":56,"x_max":925,"o":"m 726 956 q 750 972 732 972 l 904 972 q 920 965 915 972 q 921 949 925 958 l 583 17 q 557 0 578 0 l 418 0 q 394 17 401 0 l 57 949 q 56 957 56 951 q 74 972 56 972 l 228 972 q 251 956 246 972 l 489 247 l 726 956 z "},"W":{"ha":1547,"x_min":56,"x_max":1493,"o":"m 1474 972 q 1489 966 1485 972 q 1490 949 1493 960 l 1194 17 q 1168 0 1188 0 l 1021 0 q 997 17 1001 0 l 772 688 l 547 17 q 524 0 540 0 l 376 0 q 360 4 368 0 q 351 17 353 8 l 57 949 q 56 957 56 951 q 74 972 56 972 l 228 972 q 251 956 246 972 l 453 250 l 679 956 q 690 969 681 965 q 701 972 696 972 l 843 972 q 856 969 850 972 q 865 956 861 965 l 1092 250 l 1296 956 q 1319 972 1300 972 l 1474 972 z "},"Ẃ":{"ha":1547,"x_min":56,"x_max":1492,"o":"m 1474 972 q 1489 966 1485 972 q 1490 949 1493 960 l 1194 17 q 1168 0 1188 0 l 1021 0 q 997 17 1001 0 l 772 688 l 547 17 q 524 0 540 0 l 376 0 q 360 4 368 0 q 351 17 353 8 l 57 949 q 56 957 56 951 q 74 972 56 972 l 228 972 q 251 956 246 972 l 453 250 l 679 956 q 690 969 681 965 q 701 972 696 972 l 843 972 q 856 969 850 972 q 865 956 861 965 l 1092 250 l 1296 956 q 1319 972 1300 972 l 1474 972 m 932 1261 q 949 1255 944 1261 q 949 1238 954 1249 l 865 1063 q 842 1046 858 1046 l 717 1046 q 699 1052 704 1046 q 700 1069 694 1058 l 783 1244 q 807 1261 790 1261 l 932 1261 z "},"Ŵ":{"ha":1547,"x_min":56,"x_max":1492,"o":"m 1474 972 q 1489 966 1485 972 q 1490 949 1493 960 l 1194 17 q 1168 0 1188 0 l 1021 0 q 997 17 1001 0 l 772 688 l 547 17 q 524 0 540 0 l 376 0 q 360 4 368 0 q 351 17 353 8 l 57 949 q 56 957 56 951 q 74 972 56 972 l 228 972 q 251 956 246 972 l 453 250 l 679 956 q 690 969 681 965 q 701 972 696 972 l 843 972 q 856 969 850 972 q 865 956 861 965 l 1092 250 l 1296 956 q 1319 972 1300 972 l 1474 972 m 828 1261 q 853 1250 843 1261 l 986 1100 q 992 1088 992 1094 q 987 1078 992 1082 q 974 1075 982 1075 l 883 1075 q 858 1086 868 1075 l 775 1185 l 690 1086 q 665 1075 681 1075 l 576 1075 q 563 1078 568 1075 q 558 1088 558 1082 q 564 1100 558 1094 l 697 1250 q 722 1261 707 1261 l 828 1261 z "},"Ẅ":{"ha":1547,"x_min":56,"x_max":1492,"o":"m 1474 972 q 1489 966 1485 972 q 1490 949 1493 960 l 1194 17 q 1168 0 1188 0 l 1021 0 q 997 17 1001 0 l 772 688 l 547 17 q 524 0 540 0 l 376 0 q 360 4 368 0 q 351 17 353 8 l 57 949 q 56 957 56 951 q 74 972 56 972 l 228 972 q 251 956 246 972 l 453 250 l 679 956 q 690 969 681 965 q 701 972 696 972 l 843 972 q 856 969 850 972 q 865 956 861 965 l 1092 250 l 1296 956 q 1319 972 1300 972 l 1474 972 m 625 1085 q 559 1112 586 1085 q 532 1178 532 1139 q 559 1244 532 1217 q 625 1271 586 1271 q 690 1244 663 1271 q 718 1178 718 1217 q 690 1112 718 1139 q 625 1085 663 1085 m 925 1085 q 860 1112 888 1085 q 832 1178 832 1139 q 860 1244 832 1217 q 925 1271 888 1271 q 990 1244 963 1271 q 1018 1178 1018 1217 q 990 1112 1018 1139 q 925 1085 963 1085 z "},"Ẁ":{"ha":1547,"x_min":56,"x_max":1492,"o":"m 1474 972 q 1489 966 1485 972 q 1490 949 1493 960 l 1194 17 q 1168 0 1188 0 l 1021 0 q 997 17 1001 0 l 772 688 l 547 17 q 524 0 540 0 l 376 0 q 360 4 368 0 q 351 17 353 8 l 57 949 q 56 957 56 951 q 74 972 56 972 l 228 972 q 251 956 246 972 l 453 250 l 679 956 q 690 969 681 965 q 701 972 696 972 l 843 972 q 856 969 850 972 q 865 956 861 965 l 1092 250 l 1296 956 q 1319 972 1300 972 l 1474 972 m 731 1261 q 754 1244 747 1261 l 838 1069 q 840 1060 840 1061 q 821 1046 840 1046 l 696 1046 q 672 1063 679 1046 l 589 1238 q 586 1247 586 1246 q 606 1261 586 1261 l 731 1261 z "},"X":{"ha":894,"x_min":56,"x_max":839,"o":"m 835 25 q 839 13 839 19 q 821 0 839 0 l 664 0 q 639 14 647 0 l 447 331 l 256 14 q 231 0 247 0 l 74 0 q 56 13 56 0 q 60 25 56 19 l 346 497 l 74 947 q 69 960 69 954 q 88 972 69 972 l 244 972 q 269 958 261 972 l 447 665 l 625 958 q 650 972 633 972 l 807 972 q 825 960 825 972 q 821 947 825 954 l 549 497 l 835 25 z "},"Y":{"ha":881,"x_min":56,"x_max":824,"o":"m 806 972 q 824 960 824 972 q 819 947 824 954 l 535 451 l 535 21 q 529 6 535 11 q 514 0 524 0 l 365 0 q 350 6 356 0 q 344 21 344 11 l 344 456 l 60 947 q 56 960 56 954 q 74 972 56 972 l 231 972 q 256 958 247 972 l 440 633 l 625 958 q 650 972 633 972 l 806 972 z "},"Ý":{"ha":881,"x_min":56,"x_max":824,"o":"m 806 972 q 824 960 824 972 q 819 947 824 954 l 535 451 l 535 21 q 529 6 535 11 q 514 0 524 0 l 365 0 q 350 6 356 0 q 344 21 344 11 l 344 456 l 60 947 q 56 960 56 954 q 74 972 56 972 l 231 972 q 256 958 247 972 l 440 633 l 625 958 q 650 972 633 972 l 806 972 m 597 1261 q 615 1255 610 1261 q 614 1238 619 1249 l 531 1063 q 507 1046 524 1046 l 382 1046 q 365 1052 369 1046 q 365 1069 360 1058 l 449 1244 q 472 1261 456 1261 l 597 1261 z "},"Ŷ":{"ha":881,"x_min":56,"x_max":824,"o":"m 806 972 q 824 960 824 972 q 819 947 824 954 l 535 451 l 535 21 q 529 6 535 11 q 514 0 524 0 l 365 0 q 350 6 356 0 q 344 21 344 11 l 344 456 l 60 947 q 56 960 56 954 q 74 972 56 972 l 231 972 q 256 958 247 972 l 440 633 l 625 958 q 650 972 633 972 l 806 972 m 493 1261 q 518 1250 508 1261 l 651 1100 q 657 1088 657 1094 q 652 1078 657 1082 q 639 1075 647 1075 l 549 1075 q 524 1086 533 1075 l 440 1185 l 356 1086 q 331 1075 346 1075 l 242 1075 q 228 1078 233 1075 q 224 1088 224 1082 q 229 1100 224 1094 l 363 1250 q 388 1261 372 1261 l 493 1261 z "},"Ÿ":{"ha":881,"x_min":56,"x_max":824,"o":"m 806 972 q 824 960 824 972 q 819 947 824 954 l 535 451 l 535 21 q 529 6 535 11 q 514 0 524 0 l 365 0 q 350 6 356 0 q 344 21 344 11 l 344 456 l 60 947 q 56 960 56 954 q 74 972 56 972 l 231 972 q 256 958 247 972 l 440 633 l 625 958 q 650 972 633 972 l 806 972 m 290 1085 q 224 1112 251 1085 q 197 1178 197 1139 q 224 1244 197 1217 q 290 1271 251 1271 q 356 1244 328 1271 q 383 1178 383 1217 q 356 1112 383 1139 q 290 1085 328 1085 m 590 1085 q 525 1112 553 1085 q 497 1178 497 1139 q 525 1244 497 1217 q 590 1271 553 1271 q 656 1244 628 1271 q 683 1178 683 1217 q 656 1112 683 1139 q 590 1085 628 1085 z "},"Ỳ":{"ha":881,"x_min":56,"x_max":824,"o":"m 806 972 q 824 960 824 972 q 819 947 824 954 l 535 451 l 535 21 q 529 6 535 11 q 514 0 524 0 l 365 0 q 350 6 356 0 q 344 21 344 11 l 344 456 l 60 947 q 56 960 56 954 q 74 972 56 972 l 231 972 q 256 958 247 972 l 440 633 l 625 958 q 650 972 633 972 l 806 972 m 396 1261 q 419 1244 413 1261 l 503 1069 q 506 1060 506 1061 q 486 1046 506 1046 l 361 1046 q 338 1063 344 1046 l 254 1238 q 251 1247 251 1246 q 271 1261 251 1261 l 396 1261 z "},"Z":{"ha":822,"x_min":69,"x_max":753,"o":"m 732 168 q 747 163 742 168 q 753 147 753 157 l 753 21 q 747 6 753 11 q 732 0 742 0 l 90 0 q 75 6 81 0 q 69 21 69 11 l 69 154 q 78 179 69 167 l 535 804 l 104 804 q 89 810 94 804 q 83 825 83 815 l 83 951 q 89 967 83 961 q 104 972 94 972 l 718 972 q 733 967 728 972 q 739 951 739 961 l 739 818 q 731 793 739 806 l 274 168 l 732 168 z "},"Ź":{"ha":822,"x_min":69,"x_max":753,"o":"m 732 168 q 747 163 742 168 q 753 147 753 157 l 753 21 q 747 6 753 11 q 732 0 742 0 l 90 0 q 75 6 81 0 q 69 21 69 11 l 69 154 q 78 179 69 167 l 535 804 l 104 804 q 89 810 94 804 q 83 825 83 815 l 83 951 q 89 967 83 961 q 104 972 94 972 l 718 972 q 733 967 728 972 q 739 951 739 961 l 739 818 q 731 793 739 806 l 274 168 l 732 168 m 568 1261 q 585 1255 581 1261 q 585 1238 590 1249 l 501 1063 q 478 1046 494 1046 l 353 1046 q 335 1052 340 1046 q 336 1069 331 1058 l 419 1244 q 443 1261 426 1261 l 568 1261 z "},"Ž":{"ha":822,"x_min":69,"x_max":753,"o":"m 732 168 q 747 163 742 168 q 753 147 753 157 l 753 21 q 747 6 753 11 q 732 0 742 0 l 90 0 q 75 6 81 0 q 69 21 69 11 l 69 154 q 78 179 69 167 l 535 804 l 104 804 q 89 810 94 804 q 83 825 83 815 l 83 951 q 89 967 83 961 q 104 972 94 972 l 718 972 q 733 967 728 972 q 739 951 739 961 l 739 818 q 731 793 739 806 l 274 168 l 732 168 m 358 1075 q 333 1086 343 1075 l 200 1236 q 194 1249 194 1242 q 199 1258 194 1254 q 213 1261 204 1261 l 301 1261 q 326 1250 317 1261 l 411 1151 l 494 1250 q 519 1261 504 1261 l 610 1261 q 623 1258 618 1261 q 628 1249 628 1254 q 622 1236 628 1242 l 489 1086 q 464 1075 479 1075 l 358 1075 z "},"Ż":{"ha":822,"x_min":69,"x_max":753,"o":"m 732 168 q 747 163 742 168 q 753 147 753 157 l 753 21 q 747 6 753 11 q 732 0 742 0 l 90 0 q 75 6 81 0 q 69 21 69 11 l 69 154 q 78 179 69 167 l 535 804 l 104 804 q 89 810 94 804 q 83 825 83 815 l 83 951 q 89 967 83 961 q 104 972 94 972 l 718 972 q 733 967 728 972 q 739 951 739 961 l 739 818 q 731 793 739 806 l 274 168 l 732 168 m 411 1085 q 345 1112 372 1085 q 318 1178 318 1139 q 345 1244 318 1217 q 411 1271 372 1271 q 476 1244 449 1271 q 504 1178 504 1217 q 476 1112 504 1139 q 411 1085 449 1085 z "},"a":{"ha":842,"x_min":56,"x_max":765,"o":"m 744 681 q 760 675 754 681 q 765 660 765 669 l 765 21 q 760 6 765 11 q 744 0 754 0 l 617 0 q 596 21 599 0 l 590 79 q 385 -18 507 -18 q 216 29 292 -18 q 98 158 140 76 q 56 339 56 240 q 98 519 56 438 q 216 649 140 601 q 385 696 292 696 q 592 596 504 696 l 596 660 q 617 681 599 681 l 744 681 m 407 149 q 495 175 456 149 q 558 245 535 201 q 581 340 581 289 q 531 474 581 418 q 407 529 481 529 q 281 476 331 529 q 232 340 232 422 q 281 203 232 258 q 407 149 331 149 z "},"á":{"ha":842,"x_min":56,"x_max":765,"o":"m 744 681 q 760 675 754 681 q 765 660 765 669 l 765 21 q 760 6 765 11 q 744 0 754 0 l 617 0 q 596 21 599 0 l 590 79 q 385 -18 507 -18 q 216 29 292 -18 q 98 158 140 76 q 56 339 56 240 q 98 519 56 438 q 216 649 140 601 q 385 696 292 696 q 592 596 504 696 l 596 660 q 617 681 599 681 l 744 681 m 407 149 q 495 175 456 149 q 558 245 535 201 q 581 340 581 289 q 531 474 581 418 q 407 529 481 529 q 281 476 331 529 q 232 340 232 422 q 281 203 232 258 q 407 149 331 149 m 567 969 q 584 963 579 969 q 583 946 589 957 l 500 771 q 476 754 493 754 l 351 754 q 334 760 339 754 q 335 778 329 767 l 418 953 q 442 969 425 969 l 567 969 z "},"ă":{"ha":842,"x_min":56,"x_max":765,"o":"m 744 681 q 760 675 754 681 q 765 660 765 669 l 765 21 q 760 6 765 11 q 744 0 754 0 l 617 0 q 596 21 599 0 l 590 79 q 385 -18 507 -18 q 216 29 292 -18 q 98 158 140 76 q 56 339 56 240 q 98 519 56 438 q 216 649 140 601 q 385 696 292 696 q 592 596 504 696 l 596 660 q 617 681 599 681 l 744 681 m 407 149 q 495 175 456 149 q 558 245 535 201 q 581 340 581 289 q 531 474 581 418 q 407 529 481 529 q 281 476 331 529 q 232 340 232 422 q 281 203 232 258 q 407 149 331 149 m 514 951 q 536 971 518 971 l 606 971 q 625 950 628 971 q 560 824 618 874 q 410 774 503 774 q 259 824 317 774 q 194 950 201 874 l 194 953 q 214 971 194 971 l 285 971 q 307 951 300 971 q 342 899 315 921 q 410 878 368 878 q 478 899 451 878 q 514 951 506 921 z "},"ǎ":{"ha":842,"x_min":56,"x_max":765,"o":"m 744 681 q 760 675 754 681 q 765 660 765 669 l 765 21 q 760 6 765 11 q 744 0 754 0 l 617 0 q 596 21 599 0 l 590 79 q 385 -18 507 -18 q 216 29 292 -18 q 98 158 140 76 q 56 339 56 240 q 98 519 56 438 q 216 649 140 601 q 385 696 292 696 q 592 596 504 696 l 596 660 q 617 681 599 681 l 744 681 m 407 149 q 495 175 456 149 q 558 245 535 201 q 581 340 581 289 q 531 474 581 418 q 407 529 481 529 q 281 476 331 529 q 232 340 232 422 q 281 203 232 258 q 407 149 331 149 m 357 783 q 332 794 342 783 l 199 944 q 193 957 193 950 q 198 966 193 963 q 211 969 203 969 l 300 969 q 325 958 315 969 l 410 860 l 493 958 q 518 969 503 969 l 608 969 q 622 966 617 969 q 626 957 626 963 q 621 944 626 950 l 488 794 q 463 783 478 783 l 357 783 z "},"â":{"ha":842,"x_min":56,"x_max":765,"o":"m 744 681 q 760 675 754 681 q 765 660 765 669 l 765 21 q 760 6 765 11 q 744 0 754 0 l 617 0 q 596 21 599 0 l 590 79 q 385 -18 507 -18 q 216 29 292 -18 q 98 158 140 76 q 56 339 56 240 q 98 519 56 438 q 216 649 140 601 q 385 696 292 696 q 592 596 504 696 l 596 660 q 617 681 599 681 l 744 681 m 407 149 q 495 175 456 149 q 558 245 535 201 q 581 340 581 289 q 531 474 581 418 q 407 529 481 529 q 281 476 331 529 q 232 340 232 422 q 281 203 232 258 q 407 149 331 149 m 463 969 q 488 958 478 969 l 621 808 q 626 796 626 803 q 622 787 626 790 q 608 783 617 783 l 518 783 q 493 794 503 783 l 410 893 l 325 794 q 300 783 315 783 l 211 783 q 198 787 203 783 q 193 796 193 790 q 199 808 193 803 l 332 958 q 357 969 342 969 l 463 969 z "},"ä":{"ha":842,"x_min":56,"x_max":765,"o":"m 744 681 q 760 675 754 681 q 765 660 765 669 l 765 21 q 760 6 765 11 q 744 0 754 0 l 617 0 q 596 21 599 0 l 590 79 q 385 -18 507 -18 q 216 29 292 -18 q 98 158 140 76 q 56 339 56 240 q 98 519 56 438 q 216 649 140 601 q 385 696 292 696 q 592 596 504 696 l 596 660 q 617 681 599 681 l 744 681 m 407 149 q 495 175 456 149 q 558 245 535 201 q 581 340 581 289 q 531 474 581 418 q 407 529 481 529 q 281 476 331 529 q 232 340 232 422 q 281 203 232 258 q 407 149 331 149 m 260 793 q 194 820 221 793 q 167 886 167 847 q 194 952 167 925 q 260 979 221 979 q 325 952 297 979 q 353 886 353 925 q 325 820 353 847 q 260 793 297 793 m 560 793 q 494 820 522 793 q 467 886 467 847 q 494 952 467 925 q 560 979 522 979 q 625 952 597 979 q 653 886 653 925 q 625 820 653 847 q 560 793 597 793 z "},"à":{"ha":842,"x_min":56,"x_max":765,"o":"m 744 681 q 760 675 754 681 q 765 660 765 669 l 765 21 q 760 6 765 11 q 744 0 754 0 l 617 0 q 596 21 599 0 l 590 79 q 385 -18 507 -18 q 216 29 292 -18 q 98 158 140 76 q 56 339 56 240 q 98 519 56 438 q 216 649 140 601 q 385 696 292 696 q 592 596 504 696 l 596 660 q 617 681 599 681 l 744 681 m 407 149 q 495 175 456 149 q 558 245 535 201 q 581 340 581 289 q 531 474 581 418 q 407 529 481 529 q 281 476 331 529 q 232 340 232 422 q 281 203 232 258 q 407 149 331 149 m 365 969 q 389 953 382 969 l 472 778 q 475 768 475 769 q 456 754 475 754 l 331 754 q 307 771 314 754 l 224 946 q 221 956 221 954 q 240 969 221 969 l 365 969 z "},"ā":{"ha":842,"x_min":56,"x_max":765,"o":"m 744 681 q 760 675 754 681 q 765 660 765 669 l 765 21 q 760 6 765 11 q 744 0 754 0 l 617 0 q 596 21 599 0 l 590 79 q 385 -18 507 -18 q 216 29 292 -18 q 98 158 140 76 q 56 339 56 240 q 98 519 56 438 q 216 649 140 601 q 385 696 292 696 q 592 596 504 696 l 596 660 q 617 681 599 681 l 744 681 m 407 149 q 495 175 456 149 q 558 245 535 201 q 581 340 581 289 q 531 474 581 418 q 407 529 481 529 q 281 476 331 529 q 232 340 232 422 q 281 203 232 258 q 407 149 331 149 m 619 969 q 635 964 629 969 q 640 949 640 958 l 640 847 q 635 832 640 838 q 619 826 629 826 l 201 826 q 186 832 192 826 q 181 847 181 838 l 181 949 q 186 964 181 958 q 201 969 192 969 l 619 969 z "},"ą":{"ha":842,"x_min":56,"x_max":765,"o":"m 744 681 q 760 675 754 681 q 765 660 765 669 l 765 21 q 760 6 765 11 q 744 0 754 0 l 729 0 q 635 -33 669 0 q 601 -107 601 -67 q 617 -148 601 -132 q 665 -164 633 -164 q 694 -161 683 -164 l 694 -275 q 618 -290 661 -290 q 501 -253 550 -290 q 451 -143 451 -217 q 492 -35 451 -82 q 594 40 532 11 l 590 79 q 385 -18 507 -18 q 216 29 292 -18 q 98 158 140 76 q 56 339 56 240 q 98 519 56 438 q 216 649 140 601 q 385 696 292 696 q 592 596 504 696 l 596 660 q 617 681 599 681 l 744 681 m 407 149 q 495 175 456 149 q 558 245 535 201 q 581 340 581 289 q 531 474 581 418 q 407 529 481 529 q 281 476 331 529 q 232 340 232 422 q 281 203 232 258 q 407 149 331 149 z "},"å":{"ha":842,"x_min":56,"x_max":765,"o":"m 744 681 q 760 675 754 681 q 765 660 765 669 l 765 21 q 760 6 765 11 q 744 0 754 0 l 617 0 q 596 21 599 0 l 590 79 q 385 -18 507 -18 q 216 29 292 -18 q 98 158 140 76 q 56 339 56 240 q 98 519 56 438 q 216 649 140 601 q 385 696 292 696 q 592 596 504 696 l 596 660 q 617 681 599 681 l 744 681 m 407 149 q 495 175 456 149 q 558 245 535 201 q 581 340 581 289 q 531 474 581 418 q 407 529 481 529 q 281 476 331 529 q 232 340 232 422 q 281 203 232 258 q 407 149 331 149 m 411 1026 q 508 985 467 1026 q 549 888 549 943 q 508 791 549 832 q 411 750 467 750 q 311 791 353 750 q 269 888 269 832 q 311 985 269 944 q 411 1026 353 1026 m 410 856 q 433 865 424 856 q 443 889 443 875 q 433 913 443 903 q 410 922 424 922 q 386 913 396 922 q 376 889 376 903 q 386 865 376 875 q 410 856 396 856 z "},"ã":{"ha":842,"x_min":56,"x_max":765,"o":"m 744 681 q 760 675 754 681 q 765 660 765 669 l 765 21 q 760 6 765 11 q 744 0 754 0 l 617 0 q 596 21 599 0 l 590 79 q 385 -18 507 -18 q 216 29 292 -18 q 98 158 140 76 q 56 339 56 240 q 98 519 56 438 q 216 649 140 601 q 385 696 292 696 q 592 596 504 696 l 596 660 q 617 681 599 681 l 744 681 m 407 149 q 495 175 456 149 q 558 245 535 201 q 581 340 581 289 q 531 474 581 418 q 407 529 481 529 q 281 476 331 529 q 232 340 232 422 q 281 203 232 258 q 407 149 331 149 m 304 1000 q 372 986 343 1000 q 439 944 401 972 q 486 913 467 924 q 529 903 506 903 q 569 914 553 903 q 593 942 586 925 q 608 953 597 953 l 649 953 q 663 939 663 953 q 618 834 658 869 q 517 799 578 799 q 449 812 478 799 q 382 853 421 825 q 335 884 354 874 q 292 894 315 894 q 251 883 268 894 q 228 856 235 872 q 213 844 224 844 l 172 844 q 158 863 158 844 q 203 965 164 929 q 304 1000 243 1000 z "},"æ":{"ha":1308,"x_min":56,"x_max":1253,"o":"m 1253 354 q 1243 291 1253 310 q 1204 272 1233 272 l 768 272 q 832 167 782 204 q 963 131 882 131 q 1038 142 1003 131 q 1107 178 1072 153 q 1122 183 1114 183 q 1138 176 1131 183 l 1199 117 q 1206 103 1206 110 q 1197 86 1206 94 q 1083 9 1147 36 q 944 -18 1018 -18 q 765 25 844 -18 l 765 21 q 760 6 765 11 q 744 0 754 0 l 617 0 q 596 21 599 0 l 590 79 q 385 -18 507 -18 q 216 29 292 -18 q 98 158 140 76 q 56 339 56 240 q 98 519 56 438 q 216 649 140 601 q 385 696 292 696 q 592 596 504 696 l 596 660 q 617 681 599 681 l 744 681 q 760 675 754 681 q 765 660 765 669 l 765 656 q 929 696 843 696 q 1099 649 1025 696 q 1213 525 1172 603 q 1253 354 1253 447 m 931 540 q 822 501 867 540 q 765 392 776 463 l 1090 392 q 1037 501 1081 463 q 931 540 993 540 m 407 149 q 495 175 456 149 q 558 245 535 201 q 581 340 581 289 q 531 474 581 418 q 407 529 481 529 q 281 476 331 529 q 232 340 232 422 q 281 203 232 258 q 407 149 331 149 z "},"b":{"ha":842,"x_min":76,"x_max":786,"o":"m 457 696 q 626 649 550 696 q 744 519 701 601 q 786 339 786 438 q 744 158 786 240 q 626 29 701 76 q 457 -18 550 -18 q 251 79 335 -18 l 246 21 q 225 0 243 0 l 97 0 q 82 6 88 0 q 76 21 76 11 l 76 993 q 82 1008 76 1003 q 97 1014 88 1014 l 239 1014 q 254 1008 249 1014 q 260 993 260 1003 l 260 607 q 457 696 344 696 m 435 149 q 560 203 511 149 q 610 340 610 258 q 560 476 610 422 q 435 529 511 529 q 311 474 361 529 q 261 340 261 418 q 284 245 261 289 q 347 175 307 201 q 435 149 386 149 z "},"c":{"ha":724,"x_min":56,"x_max":675,"o":"m 407 151 q 486 167 453 151 q 553 213 519 183 q 568 219 560 219 q 583 213 578 219 l 668 132 q 675 117 675 125 q 669 103 675 108 q 551 14 621 46 q 403 -18 482 -18 q 227 29 307 -18 q 101 158 147 76 q 56 339 56 240 q 101 519 56 438 q 227 649 147 601 q 403 696 307 696 q 549 664 481 696 q 665 575 617 632 q 671 561 671 569 q 664 546 671 553 l 579 464 q 565 457 572 457 q 549 465 557 457 q 483 510 515 494 q 407 526 450 526 q 281 473 331 526 q 232 339 232 419 q 281 205 232 258 q 407 151 331 151 z "},"ć":{"ha":799,"x_min":56,"x_max":675,"o":"m 407 151 q 486 167 453 151 q 553 213 519 183 q 568 219 560 219 q 583 213 578 219 l 668 132 q 675 117 675 125 q 669 103 675 108 q 551 14 621 46 q 403 -18 482 -18 q 227 29 307 -18 q 101 158 147 76 q 56 339 56 240 q 101 519 56 438 q 227 649 147 601 q 403 696 307 696 q 549 664 481 696 q 665 575 617 632 q 671 561 671 569 q 664 546 671 553 l 579 464 q 565 457 572 457 q 549 465 557 457 q 483 510 515 494 q 407 526 450 526 q 281 473 331 526 q 232 339 232 419 q 281 205 232 258 q 407 151 331 151 m 589 1011 q 606 1005 601 1011 q 606 988 611 999 l 522 813 q 499 796 515 796 l 374 796 q 356 802 361 796 q 357 819 351 808 l 440 994 q 464 1011 447 1011 l 589 1011 z "},"č":{"ha":799,"x_min":56,"x_max":675,"o":"m 407 151 q 486 167 453 151 q 553 213 519 183 q 568 219 560 219 q 583 213 578 219 l 668 132 q 675 117 675 125 q 669 103 675 108 q 551 14 621 46 q 403 -18 482 -18 q 227 29 307 -18 q 101 158 147 76 q 56 339 56 240 q 101 519 56 438 q 227 649 147 601 q 403 696 307 696 q 549 664 481 696 q 665 575 617 632 q 671 561 671 569 q 664 546 671 553 l 579 464 q 565 457 572 457 q 549 465 557 457 q 483 510 515 494 q 407 526 450 526 q 281 473 331 526 q 232 339 232 419 q 281 205 232 258 q 407 151 331 151 m 329 786 q 304 797 314 786 l 171 947 q 165 960 165 953 q 170 969 165 965 q 183 972 175 972 l 272 972 q 297 961 288 972 l 382 863 l 465 961 q 490 972 475 972 l 581 972 q 594 969 589 972 q 599 960 599 965 q 593 947 599 953 l 460 797 q 435 786 450 786 l 329 786 z "},"ç":{"ha":799,"x_min":56,"x_max":675,"o":"m 668 132 q 675 117 675 125 q 669 103 675 108 q 566 20 626 51 q 436 -17 506 -11 l 403 -46 q 490 -81 453 -50 q 526 -161 526 -111 q 474 -270 526 -235 q 340 -306 421 -306 q 283 -301 313 -306 q 271 -286 271 -300 l 271 -222 q 286 -208 271 -208 q 322 -211 311 -211 q 381 -200 360 -211 q 401 -169 401 -189 q 385 -145 401 -156 q 340 -135 368 -135 q 288 -144 315 -135 q 281 -146 285 -146 q 271 -135 271 -146 l 271 -69 q 278 -53 271 -60 l 322 -8 q 184 59 244 10 q 90 181 124 108 q 56 339 56 254 q 101 519 56 438 q 227 649 147 601 q 403 696 307 696 q 549 664 481 696 q 665 575 617 632 q 671 561 671 569 q 664 546 671 553 l 579 464 q 565 457 572 457 q 549 465 557 457 q 483 510 515 494 q 407 526 450 526 q 281 473 331 526 q 232 339 232 419 q 281 205 232 258 q 407 151 331 151 q 486 167 453 151 q 553 213 519 183 q 568 219 560 219 q 583 213 578 219 l 668 132 z "},"ċ":{"ha":799,"x_min":56,"x_max":675,"o":"m 407 151 q 486 167 453 151 q 553 213 519 183 q 568 219 560 219 q 583 213 578 219 l 668 132 q 675 117 675 125 q 669 103 675 108 q 551 14 621 46 q 403 -18 482 -18 q 227 29 307 -18 q 101 158 147 76 q 56 339 56 240 q 101 519 56 438 q 227 649 147 601 q 403 696 307 696 q 549 664 481 696 q 665 575 617 632 q 671 561 671 569 q 664 546 671 553 l 579 464 q 565 457 572 457 q 549 465 557 457 q 483 510 515 494 q 407 526 450 526 q 281 473 331 526 q 232 339 232 419 q 281 205 232 258 q 407 151 331 151 m 419 793 q 353 820 381 793 q 326 886 326 847 q 353 952 326 925 q 419 979 381 979 q 485 952 457 979 q 513 886 513 925 q 485 820 513 847 q 419 793 457 793 z "},"d":{"ha":842,"x_min":56,"x_max":765,"o":"m 744 1014 q 760 1008 754 1014 q 765 993 765 1003 l 765 21 q 760 6 765 11 q 744 0 754 0 l 617 0 q 596 21 599 0 l 590 79 q 385 -18 507 -18 q 216 29 292 -18 q 98 158 140 76 q 56 339 56 240 q 98 519 56 438 q 216 649 140 601 q 385 696 292 696 q 582 607 497 696 l 582 993 q 588 1008 582 1003 q 603 1014 593 1014 l 744 1014 m 407 149 q 495 175 456 149 q 558 245 535 201 q 581 340 581 289 q 531 474 581 418 q 407 529 481 529 q 281 476 331 529 q 232 340 232 422 q 281 203 232 258 q 407 149 331 149 z "},"ð":{"ha":825,"x_min":56,"x_max":804,"o":"m 785 903 q 804 883 804 903 l 804 794 q 785 772 804 775 l 765 769 l 765 21 q 760 6 765 11 q 744 0 754 0 l 617 0 q 596 21 599 0 l 590 79 q 385 -18 507 -18 q 216 29 292 -18 q 98 158 140 76 q 56 339 56 240 q 98 519 56 438 q 216 649 140 601 q 385 696 292 696 q 582 607 497 696 l 582 747 l 479 735 l 476 735 q 457 754 457 735 l 457 843 q 476 865 457 863 l 582 878 l 582 993 q 588 1008 582 1003 q 603 1014 593 1014 l 744 1014 q 760 1008 754 1014 q 765 993 765 1003 l 765 901 l 782 903 l 785 903 m 407 149 q 495 175 456 149 q 558 245 535 201 q 581 340 581 289 q 531 474 581 418 q 407 529 481 529 q 281 476 331 529 q 232 340 232 422 q 281 203 232 258 q 407 149 331 149 z "},"ď":{"ha":1069,"x_min":56,"x_max":1071,"o":"m 744 1014 q 760 1008 754 1014 q 765 993 765 1003 l 765 21 q 760 6 765 11 q 744 0 754 0 l 617 0 q 596 21 599 0 l 590 79 q 385 -18 507 -18 q 216 29 292 -18 q 98 158 140 76 q 56 339 56 240 q 98 519 56 438 q 216 649 140 601 q 385 696 292 696 q 582 607 497 696 l 582 993 q 588 1008 582 1003 q 603 1014 593 1014 l 744 1014 m 407 149 q 495 175 456 149 q 558 245 535 201 q 581 340 581 289 q 531 474 581 418 q 407 529 481 529 q 281 476 331 529 q 232 340 232 422 q 281 203 232 258 q 407 149 331 149 m 1051 1014 q 1069 1008 1064 1014 q 1068 990 1074 1001 l 985 815 q 961 799 978 799 l 836 799 q 819 805 824 799 q 819 822 814 811 l 903 997 q 926 1014 910 1014 l 1051 1014 z "},"đ":{"ha":864,"x_min":56,"x_max":843,"o":"m 822 896 q 838 890 832 896 q 843 875 843 885 l 843 774 q 838 758 843 764 q 822 753 832 753 l 765 753 l 765 21 q 760 6 765 11 q 744 0 754 0 l 617 0 q 596 21 599 0 l 590 79 q 385 -18 507 -18 q 216 29 292 -18 q 98 158 140 76 q 56 339 56 240 q 98 519 56 438 q 216 649 140 601 q 385 696 292 696 q 582 607 497 696 l 582 753 l 404 753 q 389 758 394 753 q 383 774 383 764 l 383 875 q 389 890 383 885 q 404 896 394 896 l 582 896 l 582 993 q 588 1008 582 1003 q 603 1014 593 1014 l 744 1014 q 760 1008 754 1014 q 765 993 765 1003 l 765 896 l 822 896 m 407 149 q 495 175 456 149 q 558 245 535 201 q 581 340 581 289 q 531 474 581 418 q 407 529 481 529 q 281 476 331 529 q 232 340 232 422 q 281 203 232 258 q 407 149 331 149 z "},"e":{"ha":778,"x_min":56,"x_max":722,"o":"m 722 354 q 713 291 722 310 q 674 272 703 272 l 238 272 q 301 167 251 204 q 432 131 351 131 q 507 142 472 131 q 576 178 542 153 q 592 183 583 183 q 607 176 600 183 l 668 117 q 675 103 675 110 q 667 86 675 94 q 552 9 617 36 q 414 -18 488 -18 q 228 29 310 -18 q 101 158 146 76 q 56 339 56 239 q 100 519 56 438 q 223 649 144 601 q 399 696 301 696 q 568 649 494 696 q 682 525 642 603 q 722 354 722 447 m 400 540 q 291 501 336 540 q 235 392 246 463 l 560 392 q 506 501 550 463 q 400 540 463 540 z "},"é":{"ha":778,"x_min":56,"x_max":722,"o":"m 722 354 q 713 291 722 310 q 674 272 703 272 l 238 272 q 301 167 251 204 q 432 131 351 131 q 507 142 472 131 q 576 178 542 153 q 592 183 583 183 q 607 176 600 183 l 668 117 q 675 103 675 110 q 667 86 675 94 q 552 9 617 36 q 414 -18 488 -18 q 228 29 310 -18 q 101 158 146 76 q 56 339 56 239 q 100 519 56 438 q 223 649 144 601 q 399 696 301 696 q 568 649 494 696 q 682 525 642 603 q 722 354 722 447 m 400 540 q 291 501 336 540 q 235 392 246 463 l 560 392 q 506 501 550 463 q 400 540 463 540 m 547 969 q 565 963 560 969 q 564 946 569 957 l 481 771 q 457 754 474 754 l 332 754 q 315 760 319 754 q 315 778 310 767 l 399 953 q 422 969 406 969 l 547 969 z "},"ě":{"ha":778,"x_min":56,"x_max":722,"o":"m 722 354 q 713 291 722 310 q 674 272 703 272 l 238 272 q 301 167 251 204 q 432 131 351 131 q 507 142 472 131 q 576 178 542 153 q 592 183 583 183 q 607 176 600 183 l 668 117 q 675 103 675 110 q 667 86 675 94 q 552 9 617 36 q 414 -18 488 -18 q 228 29 310 -18 q 101 158 146 76 q 56 339 56 239 q 100 519 56 438 q 223 649 144 601 q 399 696 301 696 q 568 649 494 696 q 682 525 642 603 q 722 354 722 447 m 400 540 q 291 501 336 540 q 235 392 246 463 l 560 392 q 506 501 550 463 q 400 540 463 540 m 338 783 q 313 794 322 783 l 179 944 q 174 957 174 950 q 178 966 174 963 q 192 969 183 969 l 281 969 q 306 958 296 969 l 390 860 l 474 958 q 499 969 483 969 l 589 969 q 602 966 597 969 q 607 957 607 963 q 601 944 607 950 l 468 794 q 443 783 458 783 l 338 783 z "},"ê":{"ha":778,"x_min":56,"x_max":722,"o":"m 722 354 q 713 291 722 310 q 674 272 703 272 l 238 272 q 301 167 251 204 q 432 131 351 131 q 507 142 472 131 q 576 178 542 153 q 592 183 583 183 q 607 176 600 183 l 668 117 q 675 103 675 110 q 667 86 675 94 q 552 9 617 36 q 414 -18 488 -18 q 228 29 310 -18 q 101 158 146 76 q 56 339 56 239 q 100 519 56 438 q 223 649 144 601 q 399 696 301 696 q 568 649 494 696 q 682 525 642 603 q 722 354 722 447 m 400 540 q 291 501 336 540 q 235 392 246 463 l 560 392 q 506 501 550 463 q 400 540 463 540 m 443 969 q 468 958 458 969 l 601 808 q 607 796 607 803 q 602 787 607 790 q 589 783 597 783 l 499 783 q 474 794 483 783 l 390 893 l 306 794 q 281 783 296 783 l 192 783 q 178 787 183 783 q 174 796 174 790 q 179 808 174 803 l 313 958 q 338 969 322 969 l 443 969 z "},"ë":{"ha":778,"x_min":56,"x_max":722,"o":"m 722 354 q 713 291 722 310 q 674 272 703 272 l 238 272 q 301 167 251 204 q 432 131 351 131 q 507 142 472 131 q 576 178 542 153 q 592 183 583 183 q 607 176 600 183 l 668 117 q 675 103 675 110 q 667 86 675 94 q 552 9 617 36 q 414 -18 488 -18 q 228 29 310 -18 q 101 158 146 76 q 56 339 56 239 q 100 519 56 438 q 223 649 144 601 q 399 696 301 696 q 568 649 494 696 q 682 525 642 603 q 722 354 722 447 m 400 540 q 291 501 336 540 q 235 392 246 463 l 560 392 q 506 501 550 463 q 400 540 463 540 m 240 793 q 174 820 201 793 q 147 886 147 847 q 174 952 147 925 q 240 979 201 979 q 306 952 278 979 q 333 886 333 925 q 306 820 333 847 q 240 793 278 793 m 540 793 q 475 820 503 793 q 447 886 447 847 q 475 952 447 925 q 540 979 503 979 q 606 952 578 979 q 633 886 633 925 q 606 820 633 847 q 540 793 578 793 z "},"ė":{"ha":778,"x_min":56,"x_max":722,"o":"m 722 354 q 713 291 722 310 q 674 272 703 272 l 238 272 q 301 167 251 204 q 432 131 351 131 q 507 142 472 131 q 576 178 542 153 q 592 183 583 183 q 607 176 600 183 l 668 117 q 675 103 675 110 q 667 86 675 94 q 552 9 617 36 q 414 -18 488 -18 q 228 29 310 -18 q 101 158 146 76 q 56 339 56 239 q 100 519 56 438 q 223 649 144 601 q 399 696 301 696 q 568 649 494 696 q 682 525 642 603 q 722 354 722 447 m 400 540 q 291 501 336 540 q 235 392 246 463 l 560 392 q 506 501 550 463 q 400 540 463 540 m 390 793 q 324 820 351 793 q 297 886 297 847 q 324 952 297 925 q 390 979 351 979 q 456 952 428 979 q 483 886 483 925 q 456 820 483 847 q 390 793 428 793 z "},"è":{"ha":778,"x_min":56,"x_max":722,"o":"m 722 354 q 713 291 722 310 q 674 272 703 272 l 238 272 q 301 167 251 204 q 432 131 351 131 q 507 142 472 131 q 576 178 542 153 q 592 183 583 183 q 607 176 600 183 l 668 117 q 675 103 675 110 q 667 86 675 94 q 552 9 617 36 q 414 -18 488 -18 q 228 29 310 -18 q 101 158 146 76 q 56 339 56 239 q 100 519 56 438 q 223 649 144 601 q 399 696 301 696 q 568 649 494 696 q 682 525 642 603 q 722 354 722 447 m 400 540 q 291 501 336 540 q 235 392 246 463 l 560 392 q 506 501 550 463 q 400 540 463 540 m 346 969 q 369 953 363 969 l 453 778 q 456 768 456 769 q 436 754 456 754 l 311 754 q 288 771 294 754 l 204 946 q 201 956 201 954 q 221 969 201 969 l 346 969 z "},"ē":{"ha":778,"x_min":56,"x_max":722,"o":"m 722 354 q 713 291 722 310 q 674 272 703 272 l 238 272 q 301 167 251 204 q 432 131 351 131 q 507 142 472 131 q 576 178 542 153 q 592 183 583 183 q 607 176 600 183 l 668 117 q 675 103 675 110 q 667 86 675 94 q 552 9 617 36 q 414 -18 488 -18 q 228 29 310 -18 q 101 158 146 76 q 56 339 56 239 q 100 519 56 438 q 223 649 144 601 q 399 696 301 696 q 568 649 494 696 q 682 525 642 603 q 722 354 722 447 m 400 540 q 291 501 336 540 q 235 392 246 463 l 560 392 q 506 501 550 463 q 400 540 463 540 m 600 969 q 615 964 610 969 q 621 949 621 958 l 621 847 q 615 832 621 838 q 600 826 610 826 l 182 826 q 167 832 172 826 q 161 847 161 838 l 161 949 q 167 964 161 958 q 182 969 172 969 l 600 969 z "},"ę":{"ha":778,"x_min":56,"x_max":722,"o":"m 722 354 q 713 291 722 310 q 674 272 703 272 l 238 272 q 301 167 251 204 q 432 131 351 131 q 507 142 472 131 q 576 178 542 153 q 592 183 583 183 q 607 176 600 183 l 668 117 q 675 103 675 110 q 667 86 675 94 q 499 -8 596 15 q 421 -53 447 -25 q 394 -114 394 -81 q 410 -155 394 -139 q 458 -171 426 -171 q 488 -168 476 -171 l 488 -282 q 411 -297 454 -297 q 295 -260 344 -297 q 246 -150 246 -224 q 325 -8 246 -65 q 129 115 203 19 q 56 339 56 211 q 100 519 56 438 q 223 649 144 601 q 399 696 301 696 q 568 649 494 696 q 682 525 642 603 q 722 354 722 447 m 400 540 q 291 501 336 540 q 235 392 246 463 l 560 392 q 506 501 550 463 q 400 540 463 540 z "},"f":{"ha":600,"x_min":49,"x_max":614,"o":"m 610 913 q 614 904 614 908 q 608 893 614 899 l 538 824 q 518 821 528 815 q 413 858 456 858 q 349 837 365 858 q 333 772 333 815 l 333 681 l 471 681 q 486 675 481 681 q 492 660 492 669 l 492 551 q 486 536 492 542 q 471 531 481 531 l 333 531 l 333 21 q 328 6 333 11 q 313 0 322 0 l 171 0 q 156 6 161 0 q 150 21 150 11 l 150 531 l 69 531 q 54 536 60 531 q 49 551 49 542 l 49 660 q 54 675 49 669 q 69 681 60 681 l 150 681 l 150 796 q 214 965 150 908 q 390 1022 278 1022 q 519 990 464 1022 q 610 913 574 957 z "},"g":{"ha":842,"x_min":56,"x_max":765,"o":"m 744 681 q 760 675 754 681 q 765 660 765 669 l 765 7 q 711 -158 765 -94 q 576 -248 657 -221 q 408 -275 496 -275 q 247 -252 324 -275 q 115 -192 171 -229 q 107 -176 107 -186 q 110 -164 107 -168 l 156 -81 q 172 -69 163 -69 q 183 -72 179 -69 q 281 -111 231 -99 q 393 -124 332 -124 q 533 -90 471 -124 q 596 21 596 -56 l 596 96 q 385 -4 510 -4 q 217 43 292 -4 q 99 171 142 90 q 56 346 56 251 q 99 521 56 440 q 217 649 142 601 q 385 696 292 696 q 500 669 447 696 q 592 599 553 643 l 596 660 q 617 681 599 681 l 744 681 m 407 163 q 495 188 456 163 q 558 257 535 214 q 581 347 581 300 q 558 437 581 394 q 495 504 535 479 q 407 529 456 529 q 282 476 332 529 q 232 347 232 424 q 282 216 232 269 q 407 163 332 163 z "},"ğ":{"ha":842,"x_min":56,"x_max":765,"o":"m 744 681 q 760 675 754 681 q 765 660 765 669 l 765 7 q 711 -158 765 -94 q 576 -248 657 -221 q 408 -275 496 -275 q 247 -252 324 -275 q 115 -192 171 -229 q 107 -176 107 -186 q 110 -164 107 -168 l 156 -81 q 172 -69 163 -69 q 183 -72 179 -69 q 281 -111 231 -99 q 393 -124 332 -124 q 533 -90 471 -124 q 596 21 596 -56 l 596 96 q 385 -4 510 -4 q 217 43 292 -4 q 99 171 142 90 q 56 346 56 251 q 99 521 56 440 q 217 649 142 601 q 385 696 292 696 q 500 669 447 696 q 592 599 553 643 l 596 660 q 617 681 599 681 l 744 681 m 407 163 q 495 188 456 163 q 558 257 535 214 q 581 347 581 300 q 558 437 581 394 q 495 504 535 479 q 407 529 456 529 q 282 476 332 529 q 232 347 232 424 q 282 216 232 269 q 407 163 332 163 m 526 951 q 549 971 531 971 l 618 971 q 638 950 640 971 q 573 824 631 874 q 422 774 515 774 q 272 824 329 774 q 207 950 214 874 l 207 953 q 226 971 207 971 l 297 971 q 319 951 313 971 q 354 899 328 921 q 422 878 381 878 q 491 899 464 878 q 526 951 518 921 z "},"ģ":{"ha":842,"x_min":56,"x_max":765,"o":"m 419 763 q 347 794 376 763 q 318 876 318 825 q 345 996 318 939 q 404 1089 372 1053 q 419 1096 411 1096 l 438 1096 q 447 1092 444 1096 q 447 1081 450 1088 q 419 964 419 1021 q 492 935 463 964 q 521 863 521 906 q 492 792 521 821 q 419 763 463 763 m 744 681 q 760 675 754 681 q 765 660 765 669 l 765 7 q 711 -158 765 -94 q 576 -248 657 -221 q 408 -275 496 -275 q 247 -252 324 -275 q 115 -192 171 -229 q 107 -176 107 -186 q 110 -164 107 -168 l 156 -81 q 172 -69 163 -69 q 183 -72 179 -69 q 281 -111 231 -99 q 393 -124 332 -124 q 533 -90 471 -124 q 596 21 596 -56 l 596 96 q 385 -4 510 -4 q 217 43 292 -4 q 99 171 142 90 q 56 346 56 251 q 99 521 56 440 q 217 649 142 601 q 385 696 292 696 q 500 669 447 696 q 592 599 553 643 l 596 660 q 617 681 599 681 l 744 681 m 407 163 q 495 188 456 163 q 558 257 535 214 q 581 347 581 300 q 558 437 581 394 q 495 504 535 479 q 407 529 456 529 q 282 476 332 529 q 232 347 232 424 q 282 216 232 269 q 407 163 332 163 z "},"ġ":{"ha":842,"x_min":56,"x_max":765,"o":"m 744 681 q 760 675 754 681 q 765 660 765 669 l 765 7 q 711 -158 765 -94 q 576 -248 657 -221 q 408 -275 496 -275 q 247 -252 324 -275 q 115 -192 171 -229 q 107 -176 107 -186 q 110 -164 107 -168 l 156 -81 q 172 -69 163 -69 q 183 -72 179 -69 q 281 -111 231 -99 q 393 -124 332 -124 q 533 -90 471 -124 q 596 21 596 -56 l 596 96 q 385 -4 510 -4 q 217 43 292 -4 q 99 171 142 90 q 56 346 56 251 q 99 521 56 440 q 217 649 142 601 q 385 696 292 696 q 500 669 447 696 q 592 599 553 643 l 596 660 q 617 681 599 681 l 744 681 m 407 163 q 495 188 456 163 q 558 257 535 214 q 581 347 581 300 q 558 437 581 394 q 495 504 535 479 q 407 529 456 529 q 282 476 332 529 q 232 347 232 424 q 282 216 232 269 q 407 163 332 163 m 422 793 q 356 820 383 793 q 329 886 329 847 q 356 952 329 925 q 422 979 383 979 q 488 952 460 979 q 515 886 515 925 q 488 820 515 847 q 422 793 460 793 z "},"h":{"ha":797,"x_min":76,"x_max":721,"o":"m 475 696 q 601 662 544 696 q 689 563 657 628 q 721 408 721 497 l 721 21 q 715 6 721 11 q 700 0 710 0 l 558 0 q 543 6 549 0 q 538 21 538 11 l 538 375 q 501 490 538 454 q 410 526 465 526 q 328 501 363 526 q 277 444 294 476 q 260 393 260 413 l 260 21 q 254 6 260 11 q 239 0 249 0 l 97 0 q 82 6 88 0 q 76 21 76 11 l 76 993 q 82 1008 76 1003 q 97 1014 88 1014 l 239 1014 q 254 1008 249 1014 q 260 993 260 1003 l 260 569 q 350 662 296 628 q 475 696 404 696 z "},"ħ":{"ha":811,"x_min":21,"x_max":735,"o":"m 489 696 q 615 662 558 696 q 703 563 671 628 q 735 408 735 497 l 735 21 q 729 6 735 11 q 714 0 724 0 l 572 0 q 557 6 563 0 q 551 21 551 11 l 551 375 q 515 490 551 454 q 424 526 479 526 q 342 501 376 526 q 291 444 308 476 q 274 393 274 413 l 274 21 q 268 6 274 11 q 253 0 263 0 l 111 0 q 96 6 101 0 q 90 21 90 11 l 90 739 l 42 739 q 26 744 32 739 q 21 760 21 750 l 21 861 q 26 876 21 871 q 42 882 32 882 l 90 882 l 90 993 q 96 1008 90 1003 q 111 1014 101 1014 l 253 1014 q 268 1008 263 1014 q 274 993 274 1003 l 274 882 l 460 882 q 475 876 469 882 q 481 861 481 871 l 481 760 q 475 744 481 750 q 460 739 469 739 l 274 739 l 274 569 q 364 662 310 628 q 489 696 418 696 z "},"i":{"ha":340,"x_min":69,"x_max":271,"o":"m 171 810 q 99 840 128 810 q 69 911 69 869 q 99 983 69 953 q 171 1013 128 1013 q 242 983 213 1013 q 271 911 271 953 q 242 840 271 869 q 171 810 213 810 m 79 660 q 85 675 79 669 q 100 681 90 681 l 242 681 q 257 675 251 681 q 263 660 263 669 l 263 21 q 257 6 263 11 q 242 0 251 0 l 100 0 q 85 6 90 0 q 79 21 79 11 l 79 660 z "},"ı":{"ha":338,"x_min":76,"x_max":260,"o":"m 76 660 q 82 675 76 669 q 97 681 88 681 l 239 681 q 254 675 249 681 q 260 660 260 669 l 260 21 q 254 6 260 11 q 239 0 249 0 l 97 0 q 82 6 88 0 q 76 21 76 11 l 76 660 z "},"í":{"ha":338,"x_min":76,"x_max":346,"o":"m 76 660 q 82 675 76 669 q 97 681 88 681 l 239 681 q 254 675 249 681 q 260 660 260 669 l 260 21 q 254 6 260 11 q 239 0 249 0 l 97 0 q 82 6 88 0 q 76 21 76 11 l 76 660 m 326 969 q 344 963 339 969 q 343 946 349 957 l 260 771 q 236 754 253 754 l 111 754 q 94 760 99 754 q 94 778 89 767 l 178 953 q 201 969 185 969 l 326 969 z "},"ǐ":{"ha":338,"x_min":-47,"x_max":386,"o":"m 76 660 q 82 675 76 669 q 97 681 88 681 l 239 681 q 254 675 249 681 q 260 660 260 669 l 260 21 q 254 6 260 11 q 239 0 249 0 l 97 0 q 82 6 88 0 q 76 21 76 11 l 76 660 m 117 783 q 92 794 101 783 l -42 944 q -47 957 -47 950 q -42 966 -47 963 q -29 969 -37 969 l 60 969 q 85 958 75 969 l 169 860 l 253 958 q 278 969 263 969 l 368 969 q 381 966 376 969 q 386 957 386 963 q 381 944 386 950 l 247 794 q 222 783 238 783 l 117 783 z "},"î":{"ha":338,"x_min":-47,"x_max":386,"o":"m 76 660 q 82 675 76 669 q 97 681 88 681 l 239 681 q 254 675 249 681 q 260 660 260 669 l 260 21 q 254 6 260 11 q 239 0 249 0 l 97 0 q 82 6 88 0 q 76 21 76 11 l 76 660 m 222 969 q 247 958 238 969 l 381 808 q 386 796 386 803 q 381 787 386 790 q 368 783 376 783 l 278 783 q 253 794 263 783 l 169 893 l 85 794 q 60 783 75 783 l -29 783 q -42 787 -37 783 q -47 796 -47 790 q -42 808 -47 803 l 92 958 q 117 969 101 969 l 222 969 z "},"ï":{"ha":338,"x_min":-74,"x_max":413,"o":"m 76 660 q 82 675 76 669 q 97 681 88 681 l 239 681 q 254 675 249 681 q 260 660 260 669 l 260 21 q 254 6 260 11 q 239 0 249 0 l 97 0 q 82 6 88 0 q 76 21 76 11 l 76 660 m 19 793 q -47 820 -19 793 q -74 886 -74 847 q -47 952 -74 925 q 19 979 -19 979 q 85 952 57 979 q 113 886 113 925 q 85 820 113 847 q 19 793 57 793 m 319 793 q 254 820 282 793 q 226 886 226 847 q 254 952 226 925 q 319 979 282 979 q 385 952 357 979 q 413 886 413 925 q 385 820 413 847 q 319 793 357 793 z "},"ì":{"ha":338,"x_min":-19,"x_max":260,"o":"m 76 660 q 82 675 76 669 q 97 681 88 681 l 239 681 q 254 675 249 681 q 260 660 260 669 l 260 21 q 254 6 260 11 q 239 0 249 0 l 97 0 q 82 6 88 0 q 76 21 76 11 l 76 660 m 125 969 q 149 953 142 969 l 232 778 q 235 768 235 769 q 215 754 235 754 l 90 754 q 67 771 74 754 l -17 946 q -19 956 -19 954 q 0 969 -19 969 l 125 969 z "},"ĳ":{"ha":749,"x_min":69,"x_max":679,"o":"m 171 810 q 99 840 128 810 q 69 911 69 869 q 99 983 69 953 q 171 1013 128 1013 q 242 983 213 1013 q 271 911 271 953 q 242 840 271 869 q 171 810 213 810 m 79 660 q 85 675 79 669 q 100 681 90 681 l 242 681 q 257 675 251 681 q 263 660 263 669 l 263 21 q 257 6 263 11 q 242 0 251 0 l 100 0 q 85 6 90 0 q 79 21 79 11 l 79 660 m 579 810 q 507 840 536 810 q 478 911 478 869 q 507 983 478 953 q 579 1013 536 1013 q 650 983 621 1013 q 679 911 679 953 q 650 840 679 869 q 579 810 621 810 m 651 681 q 667 675 661 681 q 672 660 672 669 l 672 14 q 598 -198 672 -125 q 396 -275 524 -271 q 379 -264 382 -275 l 335 -119 l 333 -114 q 344 -104 333 -104 q 448 -63 407 -100 q 489 47 489 -26 l 489 660 q 494 675 489 669 q 510 681 500 681 l 651 681 z "},"ī":{"ha":338,"x_min":-60,"x_max":400,"o":"m 76 660 q 82 675 76 669 q 97 681 88 681 l 239 681 q 254 675 249 681 q 260 660 260 669 l 260 21 q 254 6 260 11 q 239 0 249 0 l 97 0 q 82 6 88 0 q 76 21 76 11 l 76 660 m 379 969 q 394 964 389 969 q 400 949 400 958 l 400 847 q 394 832 400 838 q 379 826 389 826 l -39 826 q -54 832 -49 826 q -60 847 -60 838 l -60 949 q -54 964 -60 958 q -39 969 -49 969 l 379 969 z "},"į":{"ha":338,"x_min":-39,"x_max":263,"o":"m 169 793 q 103 820 131 793 q 76 886 76 847 q 103 952 76 925 q 169 979 131 979 q 235 952 207 979 q 263 886 263 925 q 235 820 263 847 q 169 793 207 793 m 239 681 q 254 675 249 681 q 260 660 260 669 l 260 21 q 254 6 260 11 q 239 0 249 0 q 146 -33 181 0 q 111 -107 111 -67 q 127 -148 111 -132 q 175 -164 143 -164 q 204 -161 193 -164 l 204 -275 q 128 -290 171 -290 q 10 -253 60 -290 q -39 -143 -39 -217 q -7 -47 -39 -89 q 76 26 25 -4 l 76 660 q 82 675 76 669 q 97 681 88 681 l 239 681 z "},"j":{"ha":436,"x_min":21,"x_max":367,"o":"m 267 810 q 194 840 224 810 q 165 911 165 869 q 194 983 165 953 q 267 1013 224 1013 q 338 983 308 1013 q 367 911 367 953 q 338 840 367 869 q 267 810 308 810 m 339 681 q 354 675 349 681 q 360 660 360 669 l 360 14 q 285 -198 360 -125 q 83 -275 211 -271 q 67 -264 69 -275 l 22 -119 l 21 -114 q 32 -104 21 -104 q 135 -63 94 -100 q 176 47 176 -26 l 176 660 q 182 675 176 669 q 197 681 188 681 l 339 681 z "},"ȷ":{"ha":429,"x_min":21,"x_max":360,"o":"m 339 681 q 354 675 349 681 q 360 660 360 669 l 360 14 q 285 -198 360 -125 q 83 -275 211 -271 q 67 -264 69 -275 l 22 -119 l 21 -114 q 32 -104 21 -104 q 135 -63 94 -100 q 176 47 176 -26 l 176 660 q 182 675 176 669 q 197 681 188 681 l 339 681 z "},"k":{"ha":786,"x_min":76,"x_max":750,"o":"m 746 25 q 750 13 750 19 q 733 0 750 0 l 581 0 q 556 13 564 0 l 354 279 l 260 179 l 260 21 q 254 6 260 11 q 239 0 249 0 l 97 0 q 82 6 88 0 q 76 21 76 11 l 76 993 q 82 1008 76 1003 q 97 1014 88 1014 l 239 1014 q 254 1008 249 1014 q 260 993 260 1003 l 260 400 l 510 669 q 535 681 519 681 l 694 681 q 708 677 703 681 q 713 668 713 674 q 706 656 713 663 l 465 399 l 746 25 z "},"ķ":{"ha":786,"x_min":76,"x_max":750,"o":"m 746 25 q 750 13 750 19 q 733 0 750 0 l 581 0 q 556 13 564 0 l 354 279 l 260 179 l 260 21 q 254 6 260 11 q 239 0 249 0 l 97 0 q 82 6 88 0 q 76 21 76 11 l 76 993 q 82 1008 76 1003 q 97 1014 88 1014 l 239 1014 q 254 1008 249 1014 q 260 993 260 1003 l 260 400 l 510 669 q 535 681 519 681 l 694 681 q 708 677 703 681 q 713 668 713 674 q 706 656 713 663 l 465 399 l 746 25 m 401 -53 q 474 -84 444 -53 q 503 -167 503 -115 q 476 -286 503 -229 q 417 -379 449 -343 q 401 -386 410 -386 l 383 -386 q 374 -382 376 -386 q 374 -371 371 -378 q 401 -254 401 -311 q 329 -225 358 -254 q 300 -153 300 -196 q 329 -82 300 -111 q 401 -53 358 -53 z "},"l":{"ha":338,"x_min":76,"x_max":260,"o":"m 76 993 q 82 1008 76 1003 q 97 1014 88 1014 l 239 1014 q 254 1008 249 1014 q 260 993 260 1003 l 260 21 q 254 6 260 11 q 239 0 249 0 l 97 0 q 82 6 88 0 q 76 21 76 11 l 76 993 z "},"ĺ":{"ha":338,"x_min":76,"x_max":346,"o":"m 76 993 q 82 1008 76 1003 q 97 1014 88 1014 l 239 1014 q 254 1008 249 1014 q 260 993 260 1003 l 260 21 q 254 6 260 11 q 239 0 249 0 l 97 0 q 82 6 88 0 q 76 21 76 11 l 76 993 m 326 1303 q 344 1297 339 1303 q 343 1279 349 1290 l 260 1104 q 236 1088 253 1088 l 111 1088 q 94 1094 99 1088 q 94 1111 89 1100 l 178 1286 q 201 1303 185 1303 l 326 1303 z "},"ľ":{"ha":576,"x_min":76,"x_max":540,"o":"m 76 993 q 82 1008 76 1003 q 97 1014 88 1014 l 239 1014 q 254 1008 249 1014 q 260 993 260 1003 l 260 21 q 254 6 260 11 q 239 0 249 0 l 97 0 q 82 6 88 0 q 76 21 76 11 l 76 993 m 439 1013 q 511 981 482 1013 q 540 899 540 950 q 513 779 540 836 q 454 686 486 722 q 439 679 447 679 l 421 679 q 411 683 414 679 q 411 694 408 688 q 439 811 439 754 q 367 840 396 811 q 338 913 338 869 q 367 983 338 954 q 439 1013 396 1013 z "},"ļ":{"ha":338,"x_min":68,"x_max":271,"o":"m 76 993 q 82 1008 76 1003 q 97 1014 88 1014 l 239 1014 q 254 1008 249 1014 q 260 993 260 1003 l 260 21 q 254 6 260 11 q 239 0 249 0 l 97 0 q 82 6 88 0 q 76 21 76 11 l 76 993 m 169 -53 q 242 -84 213 -53 q 271 -167 271 -115 q 244 -286 271 -229 q 185 -379 217 -343 q 169 -386 178 -386 l 151 -386 q 142 -382 144 -386 q 142 -371 139 -378 q 169 -254 169 -311 q 97 -225 126 -254 q 68 -153 68 -196 q 97 -82 68 -111 q 169 -53 126 -53 z "},"ŀ":{"ha":572,"x_min":76,"x_max":522,"o":"m 76 993 q 82 1008 76 1003 q 97 1014 88 1014 l 239 1014 q 254 1008 249 1014 q 260 993 260 1003 l 260 21 q 254 6 260 11 q 239 0 249 0 l 97 0 q 82 6 88 0 q 76 21 76 11 l 76 993 m 422 407 q 350 436 379 407 q 321 508 321 465 q 350 579 321 550 q 422 608 379 608 q 493 579 464 608 q 522 508 522 550 q 493 436 522 465 q 422 407 464 407 z "},"ł":{"ha":488,"x_min":63,"x_max":425,"o":"m 425 606 l 318 493 l 318 21 q 313 6 318 11 q 297 0 307 0 l 156 0 q 140 6 146 0 q 135 21 135 11 l 135 300 l 63 224 l 63 382 l 135 458 l 135 993 q 140 1008 135 1003 q 156 1014 146 1014 l 297 1014 q 313 1008 307 1014 q 318 993 318 1003 l 318 651 l 424 763 l 425 763 l 425 606 z "},"m":{"ha":1257,"x_min":76,"x_max":1181,"o":"m 925 696 q 1110 619 1039 696 q 1181 408 1181 542 l 1181 21 q 1175 6 1181 11 q 1160 0 1169 0 l 1018 0 q 1003 6 1008 0 q 997 21 997 11 l 997 375 q 961 490 997 454 q 871 526 925 526 q 790 505 824 526 q 738 453 756 483 q 721 396 721 422 l 721 21 q 715 6 721 11 q 700 0 710 0 l 558 0 q 543 6 549 0 q 538 21 538 11 l 538 375 q 501 490 538 454 q 410 526 465 526 q 328 501 363 526 q 277 444 294 476 q 260 393 260 413 l 260 21 q 254 6 260 11 q 239 0 249 0 l 97 0 q 82 6 88 0 q 76 21 76 11 l 76 660 q 82 675 76 669 q 97 681 88 681 l 233 681 q 254 660 251 681 l 260 571 l 260 569 q 350 662 296 628 q 475 696 404 696 q 598 663 543 696 q 685 569 653 631 q 785 662 724 628 q 925 696 846 696 z "},"n":{"ha":797,"x_min":76,"x_max":721,"o":"m 475 696 q 601 662 544 696 q 689 563 657 628 q 721 408 721 497 l 721 21 q 715 6 721 11 q 700 0 710 0 l 558 0 q 543 6 549 0 q 538 21 538 11 l 538 375 q 501 490 538 454 q 410 526 465 526 q 328 501 363 526 q 277 444 294 476 q 260 393 260 413 l 260 21 q 254 6 260 11 q 239 0 249 0 l 97 0 q 82 6 88 0 q 76 21 76 11 l 76 660 q 82 675 76 669 q 97 681 88 681 l 233 681 q 254 660 251 681 l 260 571 l 260 569 q 350 662 296 628 q 475 696 404 696 z "},"ń":{"ha":797,"x_min":76,"x_max":721,"o":"m 475 696 q 601 662 544 696 q 689 563 657 628 q 721 408 721 497 l 721 21 q 715 6 721 11 q 700 0 710 0 l 558 0 q 543 6 549 0 q 538 21 538 11 l 538 375 q 501 490 538 454 q 410 526 465 526 q 328 501 363 526 q 277 444 294 476 q 260 393 260 413 l 260 21 q 254 6 260 11 q 239 0 249 0 l 97 0 q 82 6 88 0 q 76 21 76 11 l 76 660 q 82 675 76 669 q 97 681 88 681 l 233 681 q 254 660 251 681 l 260 571 l 260 569 q 350 662 296 628 q 475 696 404 696 m 556 969 q 573 963 568 969 q 572 946 578 957 l 489 771 q 465 754 482 754 l 340 754 q 323 760 328 754 q 324 778 318 767 l 407 953 q 431 969 414 969 l 556 969 z "},"ň":{"ha":797,"x_min":76,"x_max":721,"o":"m 475 696 q 601 662 544 696 q 689 563 657 628 q 721 408 721 497 l 721 21 q 715 6 721 11 q 700 0 710 0 l 558 0 q 543 6 549 0 q 538 21 538 11 l 538 375 q 501 490 538 454 q 410 526 465 526 q 328 501 363 526 q 277 444 294 476 q 260 393 260 413 l 260 21 q 254 6 260 11 q 239 0 249 0 l 97 0 q 82 6 88 0 q 76 21 76 11 l 76 660 q 82 675 76 669 q 97 681 88 681 l 233 681 q 254 660 251 681 l 260 571 l 260 569 q 350 662 296 628 q 475 696 404 696 m 346 783 q 321 794 331 783 l 188 944 q 182 957 182 950 q 187 966 182 963 q 200 969 192 969 l 289 969 q 314 958 304 969 l 399 860 l 482 958 q 507 969 492 969 l 597 969 q 610 966 606 969 q 615 957 615 963 q 610 944 615 950 l 476 794 q 451 783 467 783 l 346 783 z "},"ņ":{"ha":797,"x_min":76,"x_max":721,"o":"m 475 696 q 601 662 544 696 q 689 563 657 628 q 721 408 721 497 l 721 21 q 715 6 721 11 q 700 0 710 0 l 558 0 q 543 6 549 0 q 538 21 538 11 l 538 375 q 501 490 538 454 q 410 526 465 526 q 328 501 363 526 q 277 444 294 476 q 260 393 260 413 l 260 21 q 254 6 260 11 q 239 0 249 0 l 97 0 q 82 6 88 0 q 76 21 76 11 l 76 660 q 82 675 76 669 q 97 681 88 681 l 233 681 q 254 660 251 681 l 260 571 l 260 569 q 350 662 296 628 q 475 696 404 696 m 399 -53 q 471 -84 442 -53 q 500 -167 500 -115 q 473 -286 500 -229 q 414 -379 446 -343 q 399 -386 407 -386 l 381 -386 q 371 -382 374 -386 q 371 -371 368 -378 q 399 -254 399 -311 q 326 -225 356 -254 q 297 -153 297 -196 q 326 -82 297 -111 q 399 -53 356 -53 z "},"ŋ":{"ha":797,"x_min":76,"x_max":721,"o":"m 475 696 q 601 662 544 696 q 689 563 657 628 q 721 408 721 497 l 721 14 q 646 -201 721 -126 q 444 -275 571 -275 q 428 -264 432 -275 l 383 -119 l 382 -114 q 393 -104 382 -104 q 495 -66 453 -104 q 538 47 538 -28 l 538 375 q 501 490 538 454 q 410 526 465 526 q 328 501 363 526 q 277 444 294 476 q 260 393 260 413 l 260 21 q 254 6 260 11 q 239 0 249 0 l 97 0 q 82 6 88 0 q 76 21 76 11 l 76 660 q 82 675 76 669 q 97 681 88 681 l 233 681 q 254 660 251 681 l 260 571 l 260 569 q 350 662 296 628 q 475 696 404 696 z "},"ñ":{"ha":797,"x_min":76,"x_max":721,"o":"m 475 696 q 601 662 544 696 q 689 563 657 628 q 721 408 721 497 l 721 21 q 715 6 721 11 q 700 0 710 0 l 558 0 q 543 6 549 0 q 538 21 538 11 l 538 375 q 501 490 538 454 q 410 526 465 526 q 328 501 363 526 q 277 444 294 476 q 260 393 260 413 l 260 21 q 254 6 260 11 q 239 0 249 0 l 97 0 q 82 6 88 0 q 76 21 76 11 l 76 660 q 82 675 76 669 q 97 681 88 681 l 233 681 q 254 660 251 681 l 260 571 l 260 569 q 350 662 296 628 q 475 696 404 696 m 293 1000 q 361 986 332 1000 q 428 944 390 972 q 475 913 456 924 q 518 903 494 903 q 558 914 542 903 q 582 942 575 925 q 597 953 586 953 l 638 953 q 651 939 651 953 q 607 834 647 869 q 506 799 567 799 q 438 812 467 799 q 371 853 410 825 q 324 884 343 874 q 281 894 304 894 q 240 883 257 894 q 217 856 224 872 q 201 844 213 844 l 161 844 q 147 863 147 844 q 192 965 153 929 q 293 1000 232 1000 z "},"o":{"ha":817,"x_min":56,"x_max":761,"o":"m 408 -18 q 231 29 313 -18 q 103 158 150 76 q 56 339 56 240 q 103 519 56 438 q 231 649 150 601 q 408 696 313 696 q 585 649 504 696 q 714 519 667 601 q 761 339 761 438 q 714 158 761 240 q 585 29 667 76 q 408 -18 504 -18 m 408 151 q 533 205 482 151 q 585 339 585 258 q 533 473 585 419 q 408 526 482 526 q 283 474 333 526 q 232 339 232 421 q 283 204 232 257 q 408 151 333 151 z "},"ó":{"ha":817,"x_min":56,"x_max":761,"o":"m 408 -18 q 231 29 313 -18 q 103 158 150 76 q 56 339 56 240 q 103 519 56 438 q 231 649 150 601 q 408 696 313 696 q 585 649 504 696 q 714 519 667 601 q 761 339 761 438 q 714 158 761 240 q 585 29 667 76 q 408 -18 504 -18 m 408 151 q 533 205 482 151 q 585 339 585 258 q 533 473 585 419 q 408 526 482 526 q 283 474 333 526 q 232 339 232 421 q 283 204 232 257 q 408 151 333 151 m 565 969 q 583 963 578 969 q 582 946 588 957 l 499 771 q 475 754 492 754 l 350 754 q 333 760 338 754 q 333 778 328 767 l 417 953 q 440 969 424 969 l 565 969 z "},"ǒ":{"ha":817,"x_min":56,"x_max":761,"o":"m 408 -18 q 231 29 313 -18 q 103 158 150 76 q 56 339 56 240 q 103 519 56 438 q 231 649 150 601 q 408 696 313 696 q 585 649 504 696 q 714 519 667 601 q 761 339 761 438 q 714 158 761 240 q 585 29 667 76 q 408 -18 504 -18 m 408 151 q 533 205 482 151 q 585 339 585 258 q 533 473 585 419 q 408 526 482 526 q 283 474 333 526 q 232 339 232 421 q 283 204 232 257 q 408 151 333 151 m 356 783 q 331 794 340 783 l 197 944 q 192 957 192 950 q 197 966 192 963 q 210 969 201 969 l 299 969 q 324 958 314 969 l 408 860 l 492 958 q 517 969 501 969 l 607 969 q 620 966 615 969 q 625 957 625 963 q 619 944 625 950 l 486 794 q 461 783 476 783 l 356 783 z "},"ô":{"ha":817,"x_min":56,"x_max":761,"o":"m 408 -18 q 231 29 313 -18 q 103 158 150 76 q 56 339 56 240 q 103 519 56 438 q 231 649 150 601 q 408 696 313 696 q 585 649 504 696 q 714 519 667 601 q 761 339 761 438 q 714 158 761 240 q 585 29 667 76 q 408 -18 504 -18 m 408 151 q 533 205 482 151 q 585 339 585 258 q 533 473 585 419 q 408 526 482 526 q 283 474 333 526 q 232 339 232 421 q 283 204 232 257 q 408 151 333 151 m 461 969 q 486 958 476 969 l 619 808 q 625 796 625 803 q 620 787 625 790 q 607 783 615 783 l 517 783 q 492 794 501 783 l 408 893 l 324 794 q 299 783 314 783 l 210 783 q 197 787 201 783 q 192 796 192 790 q 197 808 192 803 l 331 958 q 356 969 340 969 l 461 969 z "},"ö":{"ha":817,"x_min":56,"x_max":761,"o":"m 408 -18 q 231 29 313 -18 q 103 158 150 76 q 56 339 56 240 q 103 519 56 438 q 231 649 150 601 q 408 696 313 696 q 585 649 504 696 q 714 519 667 601 q 761 339 761 438 q 714 158 761 240 q 585 29 667 76 q 408 -18 504 -18 m 408 151 q 533 205 482 151 q 585 339 585 258 q 533 473 585 419 q 408 526 482 526 q 283 474 333 526 q 232 339 232 421 q 283 204 232 257 q 408 151 333 151 m 258 793 q 192 820 219 793 q 165 886 165 847 q 192 952 165 925 q 258 979 219 979 q 324 952 296 979 q 351 886 351 925 q 324 820 351 847 q 258 793 296 793 m 558 793 q 493 820 521 793 q 465 886 465 847 q 493 952 465 925 q 558 979 521 979 q 624 952 596 979 q 651 886 651 925 q 624 820 651 847 q 558 793 596 793 z "},"ò":{"ha":817,"x_min":56,"x_max":761,"o":"m 408 -18 q 231 29 313 -18 q 103 158 150 76 q 56 339 56 240 q 103 519 56 438 q 231 649 150 601 q 408 696 313 696 q 585 649 504 696 q 714 519 667 601 q 761 339 761 438 q 714 158 761 240 q 585 29 667 76 q 408 -18 504 -18 m 408 151 q 533 205 482 151 q 585 339 585 258 q 533 473 585 419 q 408 526 482 526 q 283 474 333 526 q 232 339 232 421 q 283 204 232 257 q 408 151 333 151 m 364 969 q 388 953 381 969 l 471 778 q 474 768 474 769 q 454 754 474 754 l 329 754 q 306 771 313 754 l 222 946 q 219 956 219 954 q 239 969 219 969 l 364 969 z "},"ő":{"ha":817,"x_min":56,"x_max":761,"o":"m 408 -18 q 231 29 313 -18 q 103 158 150 76 q 56 339 56 240 q 103 519 56 438 q 231 649 150 601 q 408 696 313 696 q 585 649 504 696 q 714 519 667 601 q 761 339 761 438 q 714 158 761 240 q 585 29 667 76 q 408 -18 504 -18 m 408 151 q 533 205 482 151 q 585 339 585 258 q 533 473 585 419 q 408 526 482 526 q 283 474 333 526 q 232 339 232 421 q 283 204 232 257 q 408 151 333 151 m 721 969 q 738 963 733 969 q 738 946 743 957 l 654 771 q 631 754 647 754 l 506 754 q 488 760 493 754 q 489 778 483 767 l 572 953 q 596 969 579 969 l 721 969 m 467 969 q 484 963 479 969 q 483 946 489 957 l 400 771 q 376 754 393 754 l 251 754 q 234 760 239 754 q 235 778 229 767 l 318 953 q 342 969 325 969 l 467 969 z "},"ō":{"ha":817,"x_min":56,"x_max":761,"o":"m 408 -18 q 231 29 313 -18 q 103 158 150 76 q 56 339 56 240 q 103 519 56 438 q 231 649 150 601 q 408 696 313 696 q 585 649 504 696 q 714 519 667 601 q 761 339 761 438 q 714 158 761 240 q 585 29 667 76 q 408 -18 504 -18 m 408 151 q 533 205 482 151 q 585 339 585 258 q 533 473 585 419 q 408 526 482 526 q 283 474 333 526 q 232 339 232 421 q 283 204 232 257 q 408 151 333 151 m 618 969 q 633 964 628 969 q 639 949 639 958 l 639 847 q 633 832 639 838 q 618 826 628 826 l 200 826 q 185 832 190 826 q 179 847 179 838 l 179 949 q 185 964 179 958 q 200 969 190 969 l 618 969 z "},"ǫ":{"ha":817,"x_min":56,"x_max":761,"o":"m 461 -14 q 389 -107 389 -49 q 405 -148 389 -132 q 453 -164 421 -164 q 482 -161 471 -164 l 482 -275 q 406 -290 449 -290 q 290 -253 339 -290 q 240 -143 240 -217 q 314 -6 240 -62 q 181 64 240 14 q 89 185 122 114 q 56 339 56 257 q 103 519 56 438 q 231 649 150 601 q 408 696 313 696 q 585 649 504 696 q 714 519 667 601 q 761 339 761 438 q 722 174 761 250 q 615 48 683 97 q 461 -14 546 -1 m 232 339 q 283 204 232 257 q 408 151 333 151 q 533 205 482 151 q 585 339 585 258 q 533 473 585 419 q 408 526 482 526 q 283 474 333 526 q 232 339 232 421 z "},"ø":{"ha":817,"x_min":56,"x_max":761,"o":"m 615 629 q 722 504 683 581 q 761 339 761 428 q 714 158 761 240 q 585 29 667 76 q 408 -18 504 -18 q 329 -10 369 -18 l 297 -82 q 274 -97 292 -97 l 164 -97 q 146 -83 146 -97 l 149 -72 l 203 49 q 95 174 135 97 q 56 339 56 250 q 103 519 56 438 q 231 649 150 601 q 408 696 313 696 q 489 688 450 696 l 521 760 q 544 775 526 775 l 654 775 q 672 761 672 775 l 669 750 l 615 629 m 232 339 q 276 213 232 264 l 417 526 l 408 526 q 283 474 333 526 q 232 339 232 421 m 408 151 q 533 205 482 151 q 585 339 585 258 q 542 464 585 411 l 401 151 l 408 151 z "},"õ":{"ha":817,"x_min":56,"x_max":761,"o":"m 408 -18 q 231 29 313 -18 q 103 158 150 76 q 56 339 56 240 q 103 519 56 438 q 231 649 150 601 q 408 696 313 696 q 585 649 504 696 q 714 519 667 601 q 761 339 761 438 q 714 158 761 240 q 585 29 667 76 q 408 -18 504 -18 m 408 151 q 533 205 482 151 q 585 339 585 258 q 533 473 585 419 q 408 526 482 526 q 283 474 333 526 q 232 339 232 421 q 283 204 232 257 q 408 151 333 151 m 303 1000 q 371 986 342 1000 q 438 944 400 972 q 485 913 465 924 q 528 903 504 903 q 568 914 551 903 q 592 942 585 925 q 607 953 596 953 l 647 953 q 661 939 661 953 q 617 834 657 869 q 515 799 576 799 q 448 812 476 799 q 381 853 419 825 q 333 884 353 874 q 290 894 314 894 q 250 883 267 894 q 226 856 233 872 q 211 844 222 844 l 171 844 q 157 863 157 844 q 202 965 163 929 q 303 1000 242 1000 z "},"œ":{"ha":1306,"x_min":56,"x_max":1250,"o":"m 1250 354 q 1240 291 1250 310 q 1201 272 1231 272 l 765 272 q 829 167 779 204 q 960 131 879 131 q 1035 142 1000 131 q 1104 178 1069 153 q 1119 183 1111 183 q 1135 176 1128 183 l 1196 117 q 1203 103 1203 110 q 1194 86 1203 94 q 1080 9 1144 36 q 942 -18 1015 -18 q 788 13 858 -18 q 671 99 718 43 q 553 13 621 43 q 408 -18 485 -18 q 231 29 313 -18 q 103 158 150 76 q 56 339 56 240 q 103 519 56 438 q 231 649 150 601 q 408 696 313 696 q 553 665 485 696 q 669 581 621 635 q 784 665 718 635 q 926 696 850 696 q 1096 649 1022 696 q 1210 525 1169 603 q 1250 354 1250 447 m 928 540 q 819 501 864 540 q 763 392 774 463 l 1088 392 q 1034 501 1078 463 q 928 540 990 540 m 408 151 q 528 199 478 151 q 583 319 578 246 l 583 339 l 583 358 q 528 479 578 432 q 408 526 478 526 q 283 474 333 526 q 232 339 232 421 q 283 204 232 257 q 408 151 333 151 z "},"p":{"ha":842,"x_min":76,"x_max":786,"o":"m 457 696 q 626 649 550 696 q 744 519 701 601 q 786 339 786 438 q 744 158 786 240 q 626 29 701 76 q 457 -18 550 -18 q 260 68 342 -18 l 260 -243 q 254 -258 260 -253 q 239 -264 249 -264 l 97 -264 q 82 -258 88 -264 q 76 -243 76 -253 l 76 660 q 82 675 76 669 q 97 681 88 681 l 225 681 q 246 660 243 681 l 250 596 q 457 696 338 696 m 435 149 q 560 203 511 149 q 610 340 610 258 q 560 476 610 422 q 435 529 511 529 q 311 474 361 529 q 261 340 261 418 q 284 245 261 289 q 347 175 307 201 q 435 149 386 149 z "},"þ":{"ha":847,"x_min":76,"x_max":792,"o":"m 463 696 q 631 649 556 696 q 749 519 707 601 q 792 339 792 438 q 749 158 792 240 q 631 29 707 76 q 463 -18 556 -18 l 460 -18 l 457 -18 q 265 63 346 -18 l 265 -243 q 260 -258 265 -253 q 244 -264 254 -264 l 103 -264 q 88 -258 93 -264 q 82 -243 82 -253 l 82 6 q 76 21 76 11 l 76 993 q 82 1008 76 1003 q 97 1014 88 1014 l 239 1014 q 254 1008 249 1014 q 260 993 260 1003 l 260 607 q 457 696 344 696 l 460 696 l 463 696 m 267 340 q 289 247 267 290 q 350 176 311 203 q 438 149 389 149 q 561 204 513 150 q 610 340 610 258 q 561 474 610 421 q 438 529 513 528 q 315 473 364 528 q 267 340 267 418 z "},"q":{"ha":842,"x_min":56,"x_max":765,"o":"m 744 681 q 760 675 754 681 q 765 660 765 669 l 765 -243 q 760 -258 765 -253 q 744 -264 754 -264 l 603 -264 q 588 -258 593 -264 q 582 -243 582 -253 l 582 68 q 385 -18 500 -18 q 216 29 292 -18 q 98 158 140 76 q 56 339 56 240 q 98 519 56 438 q 216 649 140 601 q 385 696 292 696 q 592 596 504 696 l 596 660 q 617 681 599 681 l 744 681 m 407 149 q 495 175 456 149 q 558 245 535 201 q 581 340 581 289 q 531 474 581 418 q 407 529 481 529 q 281 476 331 529 q 232 340 232 422 q 281 203 232 258 q 407 149 331 149 z "},"r":{"ha":546,"x_min":76,"x_max":533,"o":"m 524 664 q 533 647 533 656 q 531 636 533 644 l 489 533 q 458 519 482 513 q 401 529 426 529 q 299 488 338 529 q 260 382 260 446 l 260 21 q 254 6 260 11 q 239 0 249 0 l 97 0 q 82 6 88 0 q 76 21 76 11 l 76 660 q 82 675 76 669 q 97 681 88 681 l 232 681 q 253 660 250 681 l 258 585 q 432 696 319 696 q 483 687 460 696 q 524 664 507 678 z "},"ŕ":{"ha":546,"x_min":76,"x_max":533,"o":"m 524 664 q 533 647 533 656 q 531 636 533 644 l 489 533 q 458 519 482 513 q 401 529 426 529 q 299 488 338 529 q 260 382 260 446 l 260 21 q 254 6 260 11 q 239 0 249 0 l 97 0 q 82 6 88 0 q 76 21 76 11 l 76 660 q 82 675 76 669 q 97 681 88 681 l 232 681 q 253 660 250 681 l 258 585 q 432 696 319 696 q 483 687 460 696 q 524 664 507 678 m 415 969 q 433 963 428 969 q 432 946 438 957 l 349 771 q 325 754 342 754 l 200 754 q 183 760 188 754 q 183 778 178 767 l 267 953 q 290 969 274 969 l 415 969 z "},"ř":{"ha":546,"x_min":42,"x_max":533,"o":"m 524 664 q 533 647 533 656 q 531 636 533 644 l 489 533 q 458 519 482 513 q 401 529 426 529 q 299 488 338 529 q 260 382 260 446 l 260 21 q 254 6 260 11 q 239 0 249 0 l 97 0 q 82 6 88 0 q 76 21 76 11 l 76 660 q 82 675 76 669 q 97 681 88 681 l 232 681 q 253 660 250 681 l 258 585 q 432 696 319 696 q 483 687 460 696 q 524 664 507 678 m 206 783 q 181 794 190 783 l 47 944 q 42 957 42 950 q 47 966 42 963 q 60 969 51 969 l 149 969 q 174 958 164 969 l 258 860 l 342 958 q 367 969 351 969 l 457 969 q 470 966 465 969 q 475 957 475 963 q 469 944 475 950 l 336 794 q 311 783 326 783 l 206 783 z "},"ŗ":{"ha":546,"x_min":67,"x_max":533,"o":"m 524 664 q 533 647 533 656 q 531 636 533 644 l 489 533 q 458 519 482 513 q 401 529 426 529 q 299 488 338 529 q 260 382 260 446 l 260 21 q 254 6 260 11 q 239 0 249 0 l 97 0 q 82 6 88 0 q 76 21 76 11 l 76 660 q 82 675 76 669 q 97 681 88 681 l 232 681 q 253 660 250 681 l 258 585 q 432 696 319 696 q 483 687 460 696 q 524 664 507 678 m 168 -53 q 240 -84 211 -53 q 269 -167 269 -115 q 242 -286 269 -229 q 183 -379 215 -343 q 168 -386 176 -386 l 150 -386 q 140 -382 143 -386 q 140 -371 138 -378 q 168 -254 168 -311 q 96 -225 125 -254 q 67 -153 67 -196 q 96 -82 67 -111 q 168 -53 125 -53 z "},"s":{"ha":622,"x_min":49,"x_max":574,"o":"m 243 490 q 271 444 243 461 q 360 408 299 428 q 469 366 426 388 q 542 302 511 344 q 574 190 574 260 q 536 80 574 128 q 438 7 499 32 q 314 -18 378 -18 q 163 15 232 -18 q 54 96 94 49 q 49 108 49 101 q 54 124 49 115 l 108 200 q 121 207 114 207 q 139 199 129 207 q 308 136 235 136 q 371 149 346 136 q 396 193 396 163 q 367 241 396 224 q 276 279 338 258 q 169 324 211 303 q 97 386 128 346 q 67 489 67 426 q 99 599 67 551 q 186 671 132 646 q 303 696 240 696 q 432 669 369 696 q 536 593 494 642 q 542 581 542 588 q 535 564 542 571 l 482 494 q 469 488 476 488 q 451 496 463 488 q 379 537 407 525 q 318 549 351 549 q 265 533 286 549 q 243 490 243 517 z "},"ś":{"ha":622,"x_min":49,"x_max":574,"o":"m 243 490 q 271 444 243 461 q 360 408 299 428 q 469 366 426 388 q 542 302 511 344 q 574 190 574 260 q 536 80 574 128 q 438 7 499 32 q 314 -18 378 -18 q 163 15 232 -18 q 54 96 94 49 q 49 108 49 101 q 54 124 49 115 l 108 200 q 121 207 114 207 q 139 199 129 207 q 308 136 235 136 q 371 149 346 136 q 396 193 396 163 q 367 241 396 224 q 276 279 338 258 q 169 324 211 303 q 97 386 128 346 q 67 489 67 426 q 99 599 67 551 q 186 671 132 646 q 303 696 240 696 q 432 669 369 696 q 536 593 494 642 q 542 581 542 588 q 535 564 542 571 l 482 494 q 469 488 476 488 q 451 496 463 488 q 379 537 407 525 q 318 549 351 549 q 265 533 286 549 q 243 490 243 517 m 469 969 q 487 963 482 969 q 486 946 492 957 l 403 771 q 379 754 396 754 l 254 754 q 237 760 242 754 q 238 778 232 767 l 321 953 q 344 969 328 969 l 469 969 z "},"š":{"ha":622,"x_min":49,"x_max":574,"o":"m 243 490 q 271 444 243 461 q 360 408 299 428 q 469 366 426 388 q 542 302 511 344 q 574 190 574 260 q 536 80 574 128 q 438 7 499 32 q 314 -18 378 -18 q 163 15 232 -18 q 54 96 94 49 q 49 108 49 101 q 54 124 49 115 l 108 200 q 121 207 114 207 q 139 199 129 207 q 308 136 235 136 q 371 149 346 136 q 396 193 396 163 q 367 241 396 224 q 276 279 338 258 q 169 324 211 303 q 97 386 128 346 q 67 489 67 426 q 99 599 67 551 q 186 671 132 646 q 303 696 240 696 q 432 669 369 696 q 536 593 494 642 q 542 581 542 588 q 535 564 542 571 l 482 494 q 469 488 476 488 q 451 496 463 488 q 379 537 407 525 q 318 549 351 549 q 265 533 286 549 q 243 490 243 517 m 260 783 q 235 794 244 783 l 101 944 q 96 957 96 950 q 101 966 96 963 q 114 969 106 969 l 203 969 q 228 958 218 969 l 313 860 l 396 958 q 421 969 406 969 l 511 969 q 524 966 519 969 q 529 957 529 963 q 524 944 529 950 l 390 794 q 365 783 381 783 l 260 783 z "},"ş":{"ha":622,"x_min":49,"x_max":574,"o":"m 574 190 q 512 54 574 108 q 361 -14 450 0 l 326 -46 q 413 -81 376 -50 q 450 -161 450 -111 q 397 -270 450 -235 q 264 -306 344 -306 q 207 -301 236 -306 q 194 -286 194 -300 l 194 -222 q 210 -208 194 -208 q 246 -211 235 -211 q 304 -200 283 -211 q 325 -169 325 -189 q 308 -145 325 -156 q 264 -135 292 -135 q 211 -144 239 -135 q 204 -146 208 -146 q 194 -135 194 -146 l 194 -69 q 201 -53 194 -60 l 244 -11 q 135 30 185 0 q 54 96 86 60 q 49 108 49 101 q 54 124 49 115 l 108 200 q 121 207 114 207 q 139 199 129 207 q 308 136 235 136 q 371 149 346 136 q 396 193 396 163 q 367 241 396 224 q 276 279 338 258 q 169 324 211 303 q 97 386 128 346 q 67 489 67 426 q 99 599 67 551 q 186 671 132 646 q 303 696 240 696 q 432 669 369 696 q 536 593 494 642 q 542 581 542 588 q 535 564 542 571 l 482 494 q 469 488 476 488 q 451 496 463 488 q 379 537 407 525 q 318 549 351 549 q 265 533 286 549 q 243 490 243 517 q 271 444 243 461 q 360 408 299 428 q 469 366 426 388 q 542 302 511 344 q 574 190 574 260 z "},"ș":{"ha":622,"x_min":49,"x_max":574,"o":"m 243 490 q 271 444 243 461 q 360 408 299 428 q 469 366 426 388 q 542 302 511 344 q 574 190 574 260 q 536 80 574 128 q 438 7 499 32 q 314 -18 378 -18 q 163 15 232 -18 q 54 96 94 49 q 49 108 49 101 q 54 124 49 115 l 108 200 q 121 207 114 207 q 139 199 129 207 q 308 136 235 136 q 371 149 346 136 q 396 193 396 163 q 367 241 396 224 q 276 279 338 258 q 169 324 211 303 q 97 386 128 346 q 67 489 67 426 q 99 599 67 551 q 186 671 132 646 q 303 696 240 696 q 432 669 369 696 q 536 593 494 642 q 542 581 542 588 q 535 564 542 571 l 482 494 q 469 488 476 488 q 451 496 463 488 q 379 537 407 525 q 318 549 351 549 q 265 533 286 549 q 243 490 243 517 m 313 -53 q 385 -84 356 -53 q 414 -167 414 -115 q 387 -286 414 -229 q 328 -379 360 -343 q 313 -386 321 -386 l 294 -386 q 285 -382 288 -386 q 285 -371 282 -378 q 313 -254 313 -311 q 240 -225 269 -254 q 211 -153 211 -196 q 240 -82 211 -111 q 313 -53 269 -53 z "},"ß":{"ha":868,"x_min":90,"x_max":819,"o":"m 599 507 q 756 434 693 493 q 819 276 819 375 q 724 64 819 128 q 428 0 629 0 l 364 0 q 349 6 354 0 q 343 21 343 11 l 343 122 q 349 138 343 132 q 364 143 354 143 l 428 143 q 591 174 539 143 q 643 283 643 206 q 586 385 643 357 q 411 414 529 414 l 364 414 q 349 419 354 414 q 343 435 343 425 l 343 536 q 349 551 343 546 q 364 557 354 557 l 411 557 q 588 696 588 557 q 544 778 588 749 q 429 807 501 807 q 312 778 350 807 q 274 683 274 750 l 274 21 q 268 6 274 11 q 253 0 263 0 l 111 0 q 96 6 101 0 q 90 21 90 11 l 90 683 q 185 898 90 824 q 429 972 279 972 q 599 942 524 972 q 719 855 675 913 q 764 717 764 797 q 715 571 764 626 q 599 507 665 515 z "},"t":{"ha":518,"x_min":49,"x_max":468,"o":"m 447 681 q 463 675 457 681 q 468 660 468 669 l 468 551 q 463 536 468 542 q 447 531 457 531 l 350 531 l 350 21 q 344 6 350 11 q 329 0 339 0 l 188 0 q 172 6 178 0 q 167 21 167 11 l 167 531 l 69 531 q 54 536 60 531 q 49 551 49 542 l 49 660 q 54 675 49 669 q 69 681 60 681 l 167 681 l 167 868 q 172 883 167 878 q 188 889 178 889 l 329 889 q 344 883 339 889 q 350 868 350 878 l 350 681 l 447 681 z "},"ŧ":{"ha":518,"x_min":49,"x_max":468,"o":"m 350 531 l 350 464 l 447 464 q 463 458 457 464 q 468 443 468 453 l 468 335 q 463 319 468 325 q 447 314 457 314 l 350 314 l 350 21 q 344 6 350 11 q 329 0 339 0 l 188 0 q 172 6 178 0 q 167 21 167 11 l 167 314 l 69 314 q 54 319 60 314 q 49 335 49 325 l 49 443 q 54 458 49 453 q 69 464 60 464 l 167 464 l 167 531 l 69 531 q 54 536 60 531 q 49 551 49 542 l 49 660 q 54 675 49 669 q 69 681 60 681 l 167 681 l 167 868 q 172 883 167 878 q 188 889 178 889 l 329 889 q 344 883 339 889 q 350 868 350 878 l 350 681 l 447 681 q 463 675 457 681 q 468 660 468 669 l 468 551 q 463 536 468 542 q 447 531 457 531 l 350 531 z "},"ť":{"ha":674,"x_min":49,"x_max":653,"o":"m 447 681 q 463 675 457 681 q 468 660 468 669 l 468 551 q 463 536 468 542 q 447 531 457 531 l 350 531 l 350 21 q 344 6 350 11 q 329 0 339 0 l 188 0 q 172 6 178 0 q 167 21 167 11 l 167 531 l 69 531 q 54 536 60 531 q 49 551 49 542 l 49 660 q 54 675 49 669 q 69 681 60 681 l 167 681 l 167 868 q 172 883 167 878 q 188 889 178 889 l 329 889 q 344 883 339 889 q 350 868 350 878 l 350 681 l 447 681 m 633 972 q 651 966 646 972 q 650 949 656 960 l 567 774 q 543 757 560 757 l 418 757 q 401 763 406 757 q 401 781 396 769 l 485 956 q 508 972 492 972 l 633 972 z "},"ţ":{"ha":518,"x_min":49,"x_max":468,"o":"m 447 681 q 463 675 457 681 q 468 660 468 669 l 468 551 q 463 536 468 542 q 447 531 457 531 l 350 531 l 350 21 q 344 6 350 11 q 329 0 339 0 l 319 0 l 274 -40 q 360 -75 324 -44 q 397 -156 397 -106 q 344 -265 397 -229 q 211 -300 292 -300 q 154 -296 183 -300 q 142 -281 142 -294 l 142 -217 q 157 -203 142 -203 q 193 -206 182 -206 q 251 -194 231 -206 q 272 -164 272 -183 q 256 -140 272 -150 q 211 -129 239 -129 q 158 -139 186 -129 q 151 -140 156 -140 q 142 -129 142 -140 l 142 -64 q 149 -47 142 -54 l 197 0 l 188 0 q 172 6 178 0 q 167 21 167 11 l 167 531 l 69 531 q 54 536 60 531 q 49 551 49 542 l 49 660 q 54 675 49 669 q 69 681 60 681 l 167 681 l 167 868 q 172 883 167 878 q 188 889 178 889 l 329 889 q 344 883 339 889 q 350 868 350 878 l 350 681 l 447 681 z "},"ț":{"ha":518,"x_min":49,"x_max":468,"o":"m 447 681 q 463 675 457 681 q 468 660 468 669 l 468 551 q 463 536 468 542 q 447 531 457 531 l 350 531 l 350 21 q 344 6 350 11 q 329 0 339 0 l 188 0 q 172 6 178 0 q 167 21 167 11 l 167 531 l 69 531 q 54 536 60 531 q 49 551 49 542 l 49 660 q 54 675 49 669 q 69 681 60 681 l 167 681 l 167 868 q 172 883 167 878 q 188 889 178 889 l 329 889 q 344 883 339 889 q 350 868 350 878 l 350 681 l 447 681 m 260 -47 q 332 -78 303 -47 q 361 -161 361 -110 q 334 -281 361 -224 q 275 -374 307 -337 q 260 -381 268 -381 l 242 -381 q 232 -376 235 -381 q 232 -365 229 -372 q 260 -249 260 -306 q 188 -219 217 -249 q 158 -147 158 -190 q 188 -76 158 -106 q 260 -47 217 -47 z "},"u":{"ha":790,"x_min":69,"x_max":714,"o":"m 693 681 q 708 675 703 681 q 714 660 714 669 l 714 21 q 708 6 714 11 q 693 0 703 0 l 557 0 q 536 21 539 0 l 531 97 q 441 13 493 44 q 328 -18 389 -18 q 140 58 211 -18 q 69 269 69 135 l 69 660 q 75 675 69 669 q 90 681 81 681 l 232 681 q 247 675 242 681 q 253 660 253 669 l 253 303 q 290 188 253 225 q 383 151 328 151 q 463 173 429 151 q 513 226 496 194 q 531 283 531 257 l 531 660 q 536 675 531 669 q 551 681 542 681 l 693 681 z "},"ú":{"ha":790,"x_min":69,"x_max":714,"o":"m 693 681 q 708 675 703 681 q 714 660 714 669 l 714 21 q 708 6 714 11 q 693 0 703 0 l 557 0 q 536 21 539 0 l 531 97 q 441 13 493 44 q 328 -18 389 -18 q 140 58 211 -18 q 69 269 69 135 l 69 660 q 75 675 69 669 q 90 681 81 681 l 232 681 q 247 675 242 681 q 253 660 253 669 l 253 303 q 290 188 253 225 q 383 151 328 151 q 463 173 429 151 q 513 226 496 194 q 531 283 531 257 l 531 660 q 536 675 531 669 q 551 681 542 681 l 693 681 m 549 969 q 566 963 561 969 q 565 946 571 957 l 482 771 q 458 754 475 754 l 333 754 q 316 760 321 754 q 317 778 311 767 l 400 953 q 424 969 407 969 l 549 969 z "},"ŭ":{"ha":790,"x_min":69,"x_max":714,"o":"m 693 681 q 708 675 703 681 q 714 660 714 669 l 714 21 q 708 6 714 11 q 693 0 703 0 l 557 0 q 536 21 539 0 l 531 97 q 441 13 493 44 q 328 -18 389 -18 q 140 58 211 -18 q 69 269 69 135 l 69 660 q 75 675 69 669 q 90 681 81 681 l 232 681 q 247 675 242 681 q 253 660 253 669 l 253 303 q 290 188 253 225 q 383 151 328 151 q 463 173 429 151 q 513 226 496 194 q 531 283 531 257 l 531 660 q 536 675 531 669 q 551 681 542 681 l 693 681 m 496 951 q 518 971 500 971 l 588 971 q 607 950 610 971 q 542 824 600 874 q 392 774 485 774 q 241 824 299 774 q 176 950 183 874 l 176 953 q 196 971 176 971 l 267 971 q 289 951 282 971 q 324 899 297 921 q 392 878 350 878 q 460 899 433 878 q 496 951 488 921 z "},"ǔ":{"ha":790,"x_min":69,"x_max":714,"o":"m 693 681 q 708 675 703 681 q 714 660 714 669 l 714 21 q 708 6 714 11 q 693 0 703 0 l 557 0 q 536 21 539 0 l 531 97 q 441 13 493 44 q 328 -18 389 -18 q 140 58 211 -18 q 69 269 69 135 l 69 660 q 75 675 69 669 q 90 681 81 681 l 232 681 q 247 675 242 681 q 253 660 253 669 l 253 303 q 290 188 253 225 q 383 151 328 151 q 463 173 429 151 q 513 226 496 194 q 531 283 531 257 l 531 660 q 536 675 531 669 q 551 681 542 681 l 693 681 m 339 783 q 314 794 324 783 l 181 944 q 175 957 175 950 q 180 966 175 963 q 193 969 185 969 l 282 969 q 307 958 297 969 l 392 860 l 475 958 q 500 969 485 969 l 590 969 q 603 966 599 969 q 608 957 608 963 q 603 944 608 950 l 469 794 q 444 783 460 783 l 339 783 z "},"û":{"ha":790,"x_min":69,"x_max":714,"o":"m 693 681 q 708 675 703 681 q 714 660 714 669 l 714 21 q 708 6 714 11 q 693 0 703 0 l 557 0 q 536 21 539 0 l 531 97 q 441 13 493 44 q 328 -18 389 -18 q 140 58 211 -18 q 69 269 69 135 l 69 660 q 75 675 69 669 q 90 681 81 681 l 232 681 q 247 675 242 681 q 253 660 253 669 l 253 303 q 290 188 253 225 q 383 151 328 151 q 463 173 429 151 q 513 226 496 194 q 531 283 531 257 l 531 660 q 536 675 531 669 q 551 681 542 681 l 693 681 m 444 969 q 469 958 460 969 l 603 808 q 608 796 608 803 q 603 787 608 790 q 590 783 599 783 l 500 783 q 475 794 485 783 l 392 893 l 307 794 q 282 783 297 783 l 193 783 q 180 787 185 783 q 175 796 175 790 q 181 808 175 803 l 314 958 q 339 969 324 969 l 444 969 z "},"ü":{"ha":790,"x_min":69,"x_max":714,"o":"m 693 681 q 708 675 703 681 q 714 660 714 669 l 714 21 q 708 6 714 11 q 693 0 703 0 l 557 0 q 536 21 539 0 l 531 97 q 441 13 493 44 q 328 -18 389 -18 q 140 58 211 -18 q 69 269 69 135 l 69 660 q 75 675 69 669 q 90 681 81 681 l 232 681 q 247 675 242 681 q 253 660 253 669 l 253 303 q 290 188 253 225 q 383 151 328 151 q 463 173 429 151 q 513 226 496 194 q 531 283 531 257 l 531 660 q 536 675 531 669 q 551 681 542 681 l 693 681 m 242 793 q 176 820 203 793 q 149 886 149 847 q 176 952 149 925 q 242 979 203 979 q 307 952 279 979 q 335 886 335 925 q 307 820 335 847 q 242 793 279 793 m 542 793 q 476 820 504 793 q 449 886 449 847 q 476 952 449 925 q 542 979 504 979 q 607 952 579 979 q 635 886 635 925 q 607 820 635 847 q 542 793 579 793 z "},"ù":{"ha":790,"x_min":69,"x_max":714,"o":"m 693 681 q 708 675 703 681 q 714 660 714 669 l 714 21 q 708 6 714 11 q 693 0 703 0 l 557 0 q 536 21 539 0 l 531 97 q 441 13 493 44 q 328 -18 389 -18 q 140 58 211 -18 q 69 269 69 135 l 69 660 q 75 675 69 669 q 90 681 81 681 l 232 681 q 247 675 242 681 q 253 660 253 669 l 253 303 q 290 188 253 225 q 383 151 328 151 q 463 173 429 151 q 513 226 496 194 q 531 283 531 257 l 531 660 q 536 675 531 669 q 551 681 542 681 l 693 681 m 347 969 q 371 953 364 969 l 454 778 q 457 768 457 769 q 438 754 457 754 l 313 754 q 289 771 296 754 l 206 946 q 203 956 203 954 q 222 969 203 969 l 347 969 z "},"ű":{"ha":790,"x_min":69,"x_max":724,"o":"m 693 681 q 708 675 703 681 q 714 660 714 669 l 714 21 q 708 6 714 11 q 693 0 703 0 l 557 0 q 536 21 539 0 l 531 97 q 441 13 493 44 q 328 -18 389 -18 q 140 58 211 -18 q 69 269 69 135 l 69 660 q 75 675 69 669 q 90 681 81 681 l 232 681 q 247 675 242 681 q 253 660 253 669 l 253 303 q 290 188 253 225 q 383 151 328 151 q 463 173 429 151 q 513 226 496 194 q 531 283 531 257 l 531 660 q 536 675 531 669 q 551 681 542 681 l 693 681 m 704 969 q 722 963 717 969 q 721 946 726 957 l 638 771 q 614 754 631 754 l 489 754 q 472 760 476 754 q 472 778 467 767 l 556 953 q 579 969 563 969 l 704 969 m 450 969 q 467 963 463 969 q 467 946 472 957 l 383 771 q 360 754 376 754 l 235 754 q 217 760 222 754 q 218 778 213 767 l 301 953 q 325 969 308 969 l 450 969 z "},"ū":{"ha":790,"x_min":69,"x_max":714,"o":"m 693 681 q 708 675 703 681 q 714 660 714 669 l 714 21 q 708 6 714 11 q 693 0 703 0 l 557 0 q 536 21 539 0 l 531 97 q 441 13 493 44 q 328 -18 389 -18 q 140 58 211 -18 q 69 269 69 135 l 69 660 q 75 675 69 669 q 90 681 81 681 l 232 681 q 247 675 242 681 q 253 660 253 669 l 253 303 q 290 188 253 225 q 383 151 328 151 q 463 173 429 151 q 513 226 496 194 q 531 283 531 257 l 531 660 q 536 675 531 669 q 551 681 542 681 l 693 681 m 601 969 q 617 964 611 969 q 622 949 622 958 l 622 847 q 617 832 622 838 q 601 826 611 826 l 183 826 q 168 832 174 826 q 163 847 163 838 l 163 949 q 168 964 163 958 q 183 969 174 969 l 601 969 z "},"ų":{"ha":790,"x_min":69,"x_max":714,"o":"m 693 681 q 708 675 703 681 q 714 660 714 669 l 714 21 q 699 0 714 4 q 605 -33 639 0 q 571 -107 571 -67 q 586 -148 571 -132 q 633 -164 601 -164 q 664 -161 653 -164 l 664 -275 q 588 -290 631 -290 q 470 -253 519 -290 q 421 -143 421 -217 q 453 -46 421 -89 q 536 26 485 -3 l 531 97 q 441 13 493 44 q 328 -18 389 -18 q 140 58 211 -18 q 69 269 69 135 l 69 660 q 75 675 69 669 q 90 681 81 681 l 232 681 q 247 675 242 681 q 253 660 253 669 l 253 303 q 290 188 253 225 q 383 151 328 151 q 463 173 429 151 q 513 226 496 194 q 531 283 531 257 l 531 660 q 536 675 531 669 q 551 681 542 681 l 693 681 z "},"ů":{"ha":790,"x_min":69,"x_max":714,"o":"m 693 681 q 708 675 703 681 q 714 660 714 669 l 714 21 q 708 6 714 11 q 693 0 703 0 l 557 0 q 536 21 539 0 l 531 97 q 441 13 493 44 q 328 -18 389 -18 q 140 58 211 -18 q 69 269 69 135 l 69 660 q 75 675 69 669 q 90 681 81 681 l 232 681 q 247 675 242 681 q 253 660 253 669 l 253 303 q 290 188 253 225 q 383 151 328 151 q 463 173 429 151 q 513 226 496 194 q 531 283 531 257 l 531 660 q 536 675 531 669 q 551 681 542 681 l 693 681 m 393 1026 q 490 985 449 1026 q 531 888 531 943 q 490 791 531 832 q 393 750 449 750 q 293 791 335 750 q 251 888 251 832 q 293 985 251 944 q 393 1026 335 1026 m 392 856 q 415 865 406 856 q 425 889 425 875 q 415 913 425 903 q 392 922 406 922 q 368 913 378 922 q 358 889 358 903 q 368 865 358 875 q 392 856 378 856 z "},"v":{"ha":792,"x_min":43,"x_max":750,"o":"m 561 664 q 586 681 568 681 l 729 681 q 745 674 740 681 q 746 657 750 668 l 492 17 q 467 0 486 0 l 325 0 q 300 17 307 0 l 44 657 q 43 667 43 661 q 61 681 43 681 l 204 681 q 229 664 224 681 l 396 214 l 561 664 z "},"w":{"ha":1267,"x_min":43,"x_max":1225,"o":"m 1204 681 q 1220 674 1215 681 q 1221 657 1225 668 l 983 17 q 958 0 978 0 l 821 0 q 796 17 803 0 l 633 442 l 471 17 q 446 0 465 0 l 307 0 q 282 17 288 0 l 44 657 q 43 667 43 661 q 61 681 43 681 l 200 681 q 225 664 219 681 l 382 213 l 543 664 q 557 678 547 676 q 568 681 563 681 l 699 681 q 710 678 704 681 q 724 664 719 676 l 886 213 l 1040 664 q 1065 681 1047 681 l 1204 681 z "},"ẃ":{"ha":1267,"x_min":43,"x_max":1222,"o":"m 1204 681 q 1220 674 1215 681 q 1221 657 1225 668 l 983 17 q 958 0 978 0 l 821 0 q 796 17 803 0 l 633 442 l 471 17 q 446 0 465 0 l 307 0 q 282 17 288 0 l 44 657 q 43 667 43 661 q 61 681 43 681 l 200 681 q 225 664 219 681 l 382 213 l 543 664 q 557 678 547 676 q 568 681 563 681 l 699 681 q 710 678 704 681 q 724 664 719 676 l 886 213 l 1040 664 q 1065 681 1047 681 l 1204 681 m 790 969 q 808 963 803 969 q 807 946 813 957 l 724 771 q 700 754 717 754 l 575 754 q 558 760 563 754 q 558 778 553 767 l 642 953 q 665 969 649 969 l 790 969 z "},"ŵ":{"ha":1267,"x_min":43,"x_max":1222,"o":"m 1204 681 q 1220 674 1215 681 q 1221 657 1225 668 l 983 17 q 958 0 978 0 l 821 0 q 796 17 803 0 l 633 442 l 471 17 q 446 0 465 0 l 307 0 q 282 17 288 0 l 44 657 q 43 667 43 661 q 61 681 43 681 l 200 681 q 225 664 219 681 l 382 213 l 543 664 q 557 678 547 676 q 568 681 563 681 l 699 681 q 710 678 704 681 q 724 664 719 676 l 886 213 l 1040 664 q 1065 681 1047 681 l 1204 681 m 686 969 q 711 958 701 969 l 844 808 q 850 796 850 803 q 845 787 850 790 q 832 783 840 783 l 742 783 q 717 794 726 783 l 633 893 l 549 794 q 524 783 539 783 l 435 783 q 422 787 426 783 q 417 796 417 790 q 422 808 417 803 l 556 958 q 581 969 565 969 l 686 969 z "},"ẅ":{"ha":1267,"x_min":43,"x_max":1222,"o":"m 1204 681 q 1220 674 1215 681 q 1221 657 1225 668 l 983 17 q 958 0 978 0 l 821 0 q 796 17 803 0 l 633 442 l 471 17 q 446 0 465 0 l 307 0 q 282 17 288 0 l 44 657 q 43 667 43 661 q 61 681 43 681 l 200 681 q 225 664 219 681 l 382 213 l 543 664 q 557 678 547 676 q 568 681 563 681 l 699 681 q 710 678 704 681 q 724 664 719 676 l 886 213 l 1040 664 q 1065 681 1047 681 l 1204 681 m 483 793 q 417 820 444 793 q 390 886 390 847 q 417 952 390 925 q 483 979 444 979 q 549 952 521 979 q 576 886 576 925 q 549 820 576 847 q 483 793 521 793 m 783 793 q 718 820 746 793 q 690 886 690 847 q 718 952 690 925 q 783 979 746 979 q 849 952 821 979 q 876 886 876 925 q 849 820 876 847 q 783 793 821 793 z "},"ẁ":{"ha":1267,"x_min":43,"x_max":1222,"o":"m 1204 681 q 1220 674 1215 681 q 1221 657 1225 668 l 983 17 q 958 0 978 0 l 821 0 q 796 17 803 0 l 633 442 l 471 17 q 446 0 465 0 l 307 0 q 282 17 288 0 l 44 657 q 43 667 43 661 q 61 681 43 681 l 200 681 q 225 664 219 681 l 382 213 l 543 664 q 557 678 547 676 q 568 681 563 681 l 699 681 q 710 678 704 681 q 724 664 719 676 l 886 213 l 1040 664 q 1065 681 1047 681 l 1204 681 m 589 969 q 613 953 606 969 l 696 778 q 699 768 699 769 q 679 754 699 754 l 554 754 q 531 771 538 754 l 447 946 q 444 956 444 954 q 464 969 444 969 l 589 969 z "},"x":{"ha":775,"x_min":57,"x_max":718,"o":"m 714 25 q 718 13 718 19 q 713 3 718 7 q 700 0 708 0 l 539 0 q 514 14 524 0 l 388 210 l 261 14 q 236 0 251 0 l 75 0 q 62 3 67 0 q 57 13 57 7 q 61 25 57 19 l 283 349 l 72 656 q 68 668 68 663 q 73 677 68 674 q 86 681 78 681 l 247 681 q 272 667 263 681 l 388 488 l 503 667 q 528 681 513 681 l 689 681 q 702 677 697 681 q 707 668 707 674 q 703 656 707 663 l 492 349 l 714 25 z "},"y":{"ha":794,"x_min":43,"x_max":753,"o":"m 732 681 q 748 674 743 681 q 749 657 753 668 l 389 -247 q 364 -264 383 -264 l 225 -264 q 208 -258 213 -264 q 208 -240 203 -251 l 307 -1 l 44 657 q 43 667 43 661 q 61 681 43 681 l 204 681 q 229 664 224 681 l 396 214 l 561 664 q 586 681 568 681 l 732 681 z "},"ý":{"ha":794,"x_min":43,"x_max":750,"o":"m 732 681 q 748 674 743 681 q 749 657 753 668 l 389 -247 q 364 -264 383 -264 l 225 -264 q 208 -258 213 -264 q 208 -240 203 -251 l 307 -1 l 44 657 q 43 667 43 661 q 61 681 43 681 l 204 681 q 229 664 224 681 l 396 214 l 561 664 q 586 681 568 681 l 732 681 m 553 969 q 570 963 565 969 q 569 946 575 957 l 486 771 q 463 754 479 754 l 338 754 q 320 760 325 754 q 321 778 315 767 l 404 953 q 428 969 411 969 l 553 969 z "},"ŷ":{"ha":794,"x_min":43,"x_max":750,"o":"m 732 681 q 748 674 743 681 q 749 657 753 668 l 389 -247 q 364 -264 383 -264 l 225 -264 q 208 -258 213 -264 q 208 -240 203 -251 l 307 -1 l 44 657 q 43 667 43 661 q 61 681 43 681 l 204 681 q 229 664 224 681 l 396 214 l 561 664 q 586 681 568 681 l 732 681 m 449 969 q 474 958 464 969 l 607 808 q 613 796 613 803 q 608 787 613 790 q 594 783 603 783 l 504 783 q 479 794 489 783 l 396 893 l 311 794 q 286 783 301 783 l 197 783 q 184 787 189 783 q 179 796 179 790 q 185 808 179 803 l 318 958 q 343 969 328 969 l 449 969 z "},"ÿ":{"ha":794,"x_min":43,"x_max":750,"o":"m 732 681 q 748 674 743 681 q 749 657 753 668 l 389 -247 q 364 -264 383 -264 l 225 -264 q 208 -258 213 -264 q 208 -240 203 -251 l 307 -1 l 44 657 q 43 667 43 661 q 61 681 43 681 l 204 681 q 229 664 224 681 l 396 214 l 561 664 q 586 681 568 681 l 732 681 m 246 793 q 180 820 207 793 q 153 886 153 847 q 180 952 153 925 q 246 979 207 979 q 311 952 283 979 q 339 886 339 925 q 311 820 339 847 q 246 793 283 793 m 546 793 q 481 820 508 793 q 453 886 453 847 q 481 952 453 925 q 546 979 508 979 q 611 952 583 979 q 639 886 639 925 q 611 820 639 847 q 546 793 583 793 z "},"ỳ":{"ha":794,"x_min":43,"x_max":750,"o":"m 732 681 q 748 674 743 681 q 749 657 753 668 l 389 -247 q 364 -264 383 -264 l 225 -264 q 208 -258 213 -264 q 208 -240 203 -251 l 307 -1 l 44 657 q 43 667 43 661 q 61 681 43 681 l 204 681 q 229 664 224 681 l 396 214 l 561 664 q 586 681 568 681 l 732 681 m 351 969 q 375 953 368 969 l 458 778 q 461 768 461 769 q 442 754 461 754 l 317 754 q 293 771 300 754 l 210 946 q 207 956 207 954 q 226 969 207 969 l 351 969 z "},"z":{"ha":674,"x_min":49,"x_max":624,"o":"m 624 546 q 614 519 624 529 l 269 150 l 603 150 q 618 144 613 150 q 624 129 624 139 l 624 21 q 618 6 624 11 q 603 0 613 0 l 69 0 q 54 6 60 0 q 49 21 49 11 l 49 135 q 58 161 49 151 l 404 531 l 69 531 q 54 536 60 531 q 49 551 49 542 l 49 660 q 54 675 49 669 q 69 681 60 681 l 603 681 q 618 675 613 681 q 624 660 624 669 l 624 546 z "},"ź":{"ha":674,"x_min":49,"x_max":624,"o":"m 624 546 q 614 519 624 529 l 269 150 l 603 150 q 618 144 613 150 q 624 129 624 139 l 624 21 q 618 6 624 11 q 603 0 613 0 l 69 0 q 54 6 60 0 q 49 21 49 11 l 49 135 q 58 161 49 151 l 404 531 l 69 531 q 54 536 60 531 q 49 551 49 542 l 49 660 q 54 675 49 669 q 69 681 60 681 l 603 681 q 618 675 613 681 q 624 660 624 669 l 624 546 m 494 969 q 512 963 507 969 q 511 946 517 957 l 428 771 q 404 754 421 754 l 279 754 q 262 760 267 754 q 263 778 257 767 l 346 953 q 369 969 353 969 l 494 969 z "},"ž":{"ha":674,"x_min":49,"x_max":624,"o":"m 624 546 q 614 519 624 529 l 269 150 l 603 150 q 618 144 613 150 q 624 129 624 139 l 624 21 q 618 6 624 11 q 603 0 613 0 l 69 0 q 54 6 60 0 q 49 21 49 11 l 49 135 q 58 161 49 151 l 404 531 l 69 531 q 54 536 60 531 q 49 551 49 542 l 49 660 q 54 675 49 669 q 69 681 60 681 l 603 681 q 618 675 613 681 q 624 660 624 669 l 624 546 m 285 783 q 260 794 269 783 l 126 944 q 121 957 121 950 q 126 966 121 963 q 139 969 131 969 l 228 969 q 253 958 243 969 l 338 860 l 421 958 q 446 969 431 969 l 536 969 q 549 966 544 969 q 554 957 554 963 q 549 944 554 950 l 415 794 q 390 783 406 783 l 285 783 z "},"ż":{"ha":674,"x_min":49,"x_max":624,"o":"m 624 546 q 614 519 624 529 l 269 150 l 603 150 q 618 144 613 150 q 624 129 624 139 l 624 21 q 618 6 624 11 q 603 0 613 0 l 69 0 q 54 6 60 0 q 49 21 49 11 l 49 135 q 58 161 49 151 l 404 531 l 69 531 q 54 536 60 531 q 49 551 49 542 l 49 660 q 54 675 49 669 q 69 681 60 681 l 603 681 q 618 675 613 681 q 624 660 624 669 l 624 546 m 338 793 q 272 820 299 793 q 244 886 244 847 q 272 952 244 925 q 338 979 299 979 q 403 952 375 979 q 431 886 431 925 q 403 820 431 847 q 338 793 375 793 z "},"ﬁ":{"ha":863,"x_min":49,"x_max":793,"o":"m 501 999 q 515 974 515 990 l 515 850 q 512 837 515 842 q 503 832 508 832 q 490 836 496 832 q 410 858 451 858 q 349 838 364 858 q 333 772 333 817 l 333 681 l 478 681 q 493 675 488 681 q 499 660 499 669 l 499 551 q 493 536 499 542 q 478 531 488 531 l 333 531 l 333 21 q 328 6 333 11 q 313 0 322 0 l 171 0 q 156 6 161 0 q 150 21 150 11 l 150 531 l 69 531 q 54 536 60 531 q 49 551 49 542 l 49 660 q 54 675 49 669 q 69 681 60 681 l 150 681 l 150 796 q 213 965 150 908 q 388 1022 275 1022 q 501 999 460 1022 m 693 810 q 621 840 650 810 q 592 911 592 869 q 621 983 592 953 q 693 1013 650 1013 q 764 983 735 1013 q 793 911 793 953 q 764 840 793 869 q 693 810 735 810 m 601 660 q 607 675 601 669 q 622 681 613 681 l 764 681 q 779 675 774 681 q 785 660 785 669 l 785 21 q 779 6 785 11 q 764 0 774 0 l 622 0 q 607 6 613 0 q 601 21 601 11 l 601 660 z "},"ﬂ":{"ha":872,"x_min":49,"x_max":796,"o":"m 613 993 q 618 1008 613 1003 q 633 1014 624 1014 l 775 1014 q 790 1008 785 1014 q 796 993 796 1003 l 796 21 q 790 6 796 11 q 775 0 785 0 l 633 0 q 618 6 624 0 q 613 21 613 11 l 613 993 m 501 999 q 515 974 515 990 l 515 850 q 512 837 515 842 q 503 832 508 832 q 490 836 496 832 q 410 858 451 858 q 349 838 364 858 q 333 772 333 817 l 333 681 l 478 681 q 493 675 488 681 q 499 660 499 669 l 499 551 q 493 536 499 542 q 478 531 488 531 l 333 531 l 333 21 q 328 6 333 11 q 313 0 322 0 l 171 0 q 156 6 161 0 q 150 21 150 11 l 150 531 l 69 531 q 54 536 60 531 q 49 551 49 542 l 49 660 q 54 675 49 669 q 69 681 60 681 l 150 681 l 150 796 q 213 965 150 908 q 388 1022 275 1022 q 501 999 460 1022 z "},"ª":{"ha":613,"x_min":56,"x_max":556,"o":"m 556 972 l 556 474 l 440 474 l 429 514 q 308 474 375 474 q 181 508 239 474 q 90 599 124 542 q 56 726 56 657 q 90 853 56 796 q 181 945 124 911 q 308 979 239 979 q 429 939 375 979 l 440 972 l 556 972 m 308 603 q 397 639 361 603 q 433 726 433 675 q 397 815 433 779 q 308 851 361 851 q 221 815 257 851 q 185 726 185 779 q 221 639 185 675 q 308 603 257 603 z "},"º":{"ha":618,"x_min":56,"x_max":561,"o":"m 308 474 q 181 508 239 474 q 90 599 124 542 q 56 726 56 657 q 90 853 56 796 q 181 945 124 911 q 308 979 239 979 q 435 945 378 979 q 527 853 493 911 q 561 726 561 796 q 527 599 561 657 q 435 508 493 542 q 308 474 378 474 m 308 603 q 397 639 361 603 q 433 726 433 675 q 397 815 433 779 q 308 851 361 851 q 221 815 257 851 q 185 726 185 779 q 221 639 185 675 q 308 603 257 603 z "},"А":{"ha":953,"x_min":43,"x_max":910,"o":"m 908 24 q 910 15 910 21 q 892 0 910 0 l 738 0 q 714 17 719 0 l 657 185 l 296 185 l 239 17 q 215 0 233 0 l 61 0 q 45 7 50 0 q 44 24 40 14 l 382 956 q 406 972 389 972 l 544 972 q 571 956 565 972 l 908 24 m 604 346 l 476 725 l 349 346 l 604 346 z "},"Б":{"ha":800,"x_min":90,"x_max":751,"o":"m 399 635 q 590 594 511 635 q 710 483 669 554 q 751 317 751 411 q 710 152 751 224 q 590 40 669 81 q 399 0 511 0 l 111 0 q 96 6 101 0 q 90 21 90 11 l 90 951 q 96 967 90 961 q 111 972 101 972 l 628 972 q 643 967 638 972 q 649 951 649 961 l 649 825 q 643 810 649 815 q 628 804 638 804 l 281 804 l 281 635 l 399 635 m 394 168 q 519 203 469 168 q 569 317 569 239 q 520 431 569 396 q 394 465 471 465 l 281 465 l 281 168 l 394 168 z "},"В":{"ha":850,"x_min":90,"x_max":800,"o":"m 607 521 q 744 435 689 500 q 800 281 800 371 q 442 0 800 0 l 111 0 q 96 6 101 0 q 90 21 90 11 l 90 951 q 96 967 90 961 q 111 972 101 972 l 442 972 q 600 939 535 972 q 698 850 665 906 q 731 726 731 794 q 696 597 731 653 q 607 521 661 542 m 551 703 q 424 804 551 804 l 281 804 l 281 589 l 424 589 q 517 617 483 589 q 551 703 551 646 m 447 168 q 567 201 525 168 q 610 301 610 235 q 567 399 610 365 q 447 432 525 432 l 281 432 l 281 168 l 447 168 z "},"Г":{"ha":697,"x_min":90,"x_max":649,"o":"m 628 972 q 643 967 638 972 q 649 951 649 961 l 649 825 q 643 810 649 815 q 628 804 638 804 l 281 804 l 281 21 q 275 6 281 11 q 260 0 269 0 l 111 0 q 96 6 101 0 q 90 21 90 11 l 90 951 q 96 967 90 961 q 111 972 101 972 l 628 972 z "},"Ѓ":{"ha":697,"x_min":90,"x_max":649,"o":"m 628 972 q 643 967 638 972 q 649 951 649 961 l 649 825 q 643 810 649 815 q 628 804 638 804 l 281 804 l 281 21 q 275 6 281 11 q 260 0 269 0 l 111 0 q 96 6 101 0 q 90 21 90 11 l 90 951 q 96 967 90 961 q 111 972 101 972 l 628 972 m 508 1261 q 526 1255 521 1261 q 525 1238 531 1249 l 442 1063 q 418 1046 435 1046 l 293 1046 q 276 1052 281 1046 q 276 1069 271 1058 l 360 1244 q 383 1261 367 1261 l 508 1261 z "},"Ґ":{"ha":697,"x_min":90,"x_max":649,"o":"m 628 1043 q 643 1038 638 1043 q 649 1022 649 1032 l 649 825 q 643 810 649 815 q 628 804 638 804 l 281 804 l 281 21 q 275 6 281 11 q 260 0 269 0 l 111 0 q 96 6 101 0 q 90 21 90 11 l 90 951 q 96 967 90 961 q 111 972 101 972 l 481 972 l 481 1022 q 486 1038 481 1032 q 501 1043 492 1043 l 628 1043 z "},"Д":{"ha":1135,"x_min":56,"x_max":1079,"o":"m 1058 168 q 1074 163 1068 168 q 1079 147 1079 157 l 1079 -75 q 1074 -90 1079 -85 q 1058 -96 1068 -96 l 910 -96 q 894 -90 900 -96 q 889 -75 889 -85 l 889 0 l 246 0 l 246 -75 q 240 -90 246 -85 q 225 -96 235 -96 l 76 -96 q 61 -90 67 -96 q 56 -75 56 -85 l 56 147 q 61 163 56 157 q 76 168 67 168 l 106 168 q 183 216 153 179 q 213 315 213 253 l 213 951 q 218 967 213 961 q 233 972 224 972 l 938 972 q 953 967 947 972 q 958 951 958 961 l 958 168 l 1058 168 m 403 282 q 386 168 403 218 l 768 168 l 768 804 l 403 804 l 403 282 z "},"Е":{"ha":728,"x_min":90,"x_max":644,"o":"m 624 168 q 639 163 633 168 q 644 147 644 157 l 644 21 q 639 6 644 11 q 624 0 633 0 l 111 0 q 96 6 101 0 q 90 21 90 11 l 90 951 q 96 967 90 961 q 111 972 101 972 l 622 972 q 638 967 632 972 q 643 951 643 961 l 643 825 q 638 810 643 815 q 622 804 632 804 l 281 804 l 281 585 l 601 585 q 617 579 611 585 q 622 564 622 574 l 622 438 q 617 422 622 428 q 601 417 611 417 l 281 417 l 281 168 l 624 168 z "},"Ё":{"ha":728,"x_min":90,"x_max":644,"o":"m 624 168 q 639 163 633 168 q 644 147 644 157 l 644 21 q 639 6 644 11 q 624 0 633 0 l 111 0 q 96 6 101 0 q 90 21 90 11 l 90 951 q 96 967 90 961 q 111 972 101 972 l 622 972 q 638 967 632 972 q 643 951 643 961 l 643 825 q 638 810 643 815 q 622 804 632 804 l 281 804 l 281 585 l 601 585 q 617 579 611 585 q 622 564 622 574 l 622 438 q 617 422 622 428 q 601 417 611 417 l 281 417 l 281 168 l 624 168 m 222 1085 q 156 1112 183 1085 q 129 1178 129 1139 q 156 1244 129 1217 q 222 1271 183 1271 q 288 1244 260 1271 q 315 1178 315 1217 q 288 1112 315 1139 q 222 1085 260 1085 m 522 1085 q 457 1112 485 1085 q 429 1178 429 1139 q 457 1244 429 1217 q 522 1271 485 1271 q 588 1244 560 1271 q 615 1178 615 1217 q 588 1112 615 1139 q 522 1085 560 1085 z "},"Ж":{"ha":1453,"x_min":49,"x_max":1410,"o":"m 1406 25 q 1410 13 1410 19 q 1393 0 1410 0 l 1217 0 q 1192 13 1200 0 l 901 413 l 825 324 l 825 21 q 819 6 825 11 q 804 0 814 0 l 654 0 q 639 6 644 0 q 633 21 633 11 l 633 324 l 557 413 l 267 13 q 242 0 258 0 l 65 0 q 49 13 49 0 q 53 25 49 19 l 431 557 l 89 947 q 83 961 83 953 q 88 969 83 965 q 100 972 92 972 l 285 972 q 310 961 300 972 l 633 576 l 633 951 q 639 967 633 961 q 654 972 644 972 l 804 972 q 819 967 814 972 q 825 951 825 961 l 825 576 l 1149 961 q 1174 972 1158 972 l 1358 972 q 1371 969 1367 972 q 1375 961 1375 965 q 1369 947 1375 953 l 1028 557 l 1406 25 z "},"З":{"ha":769,"x_min":63,"x_max":707,"o":"m 539 517 q 658 428 610 489 q 707 286 707 367 q 663 135 707 203 q 540 28 619 68 q 361 -11 461 -11 q 193 21 269 -11 q 68 110 117 53 q 63 124 63 115 q 69 139 63 132 l 163 228 q 178 235 169 235 q 193 228 186 235 q 265 184 228 199 q 353 169 301 169 q 470 204 428 169 q 513 297 513 239 q 464 390 513 351 q 310 431 415 429 q 289 451 289 431 l 289 561 q 311 582 289 582 q 489 696 489 585 q 449 774 489 746 q 364 803 410 803 q 222 749 285 803 q 206 742 213 742 q 192 749 201 742 l 101 835 q 94 850 94 842 q 100 864 94 858 q 218 951 147 919 q 369 983 289 983 q 519 950 449 983 q 633 858 590 917 q 675 722 675 799 q 636 599 675 654 q 539 517 597 544 z "},"И":{"ha":961,"x_min":90,"x_max":871,"o":"m 850 972 q 865 967 860 972 q 871 951 871 961 l 871 21 q 865 6 871 11 q 850 0 860 0 l 701 0 q 686 6 692 0 q 681 21 681 11 l 681 674 l 307 14 q 282 0 299 0 l 111 0 q 96 6 101 0 q 90 21 90 11 l 90 951 q 96 967 90 961 q 111 972 101 972 l 260 972 q 275 967 269 972 q 281 951 281 961 l 281 299 l 654 958 q 679 972 663 972 l 850 972 z "},"Й":{"ha":961,"x_min":90,"x_max":871,"o":"m 481 1065 q 330 1115 388 1065 q 265 1242 272 1165 l 265 1244 q 285 1263 265 1263 l 356 1263 q 378 1243 371 1263 q 413 1191 386 1213 q 481 1169 439 1169 q 549 1191 522 1169 q 585 1243 576 1213 q 607 1263 589 1263 l 676 1263 q 696 1242 699 1263 q 631 1115 689 1165 q 481 1065 574 1065 m 850 972 q 865 967 860 972 q 871 951 871 961 l 871 21 q 865 6 871 11 q 850 0 860 0 l 701 0 q 686 6 692 0 q 681 21 681 11 l 681 674 l 307 14 q 282 0 299 0 l 111 0 q 96 6 101 0 q 90 21 90 11 l 90 951 q 96 967 90 961 q 111 972 101 972 l 260 972 q 275 967 269 972 q 281 951 281 961 l 281 299 l 654 958 q 679 972 663 972 l 850 972 z "},"К":{"ha":910,"x_min":90,"x_max":867,"o":"m 863 25 q 867 13 867 19 q 850 0 867 0 l 674 0 q 649 13 657 0 l 358 413 l 281 322 l 281 21 q 275 6 281 11 q 260 0 269 0 l 111 0 q 96 6 101 0 q 90 21 90 11 l 90 951 q 96 967 90 961 q 111 972 101 972 l 260 972 q 275 967 269 972 q 281 951 281 961 l 281 575 l 606 961 q 631 972 615 972 l 815 972 q 828 969 824 972 q 832 961 832 965 q 826 947 832 953 l 485 557 l 863 25 z "},"Л":{"ha":1019,"x_min":28,"x_max":929,"o":"m 908 972 q 924 967 918 972 q 929 951 929 961 l 929 21 q 924 6 929 11 q 908 0 918 0 l 760 0 q 744 6 750 0 q 739 21 739 11 l 739 804 l 374 804 l 374 282 q 296 68 374 143 q 90 -7 218 -7 q 74 4 78 -7 l 29 149 l 28 154 q 39 164 28 164 q 141 202 99 164 q 183 315 183 240 l 183 951 q 189 967 183 961 q 204 972 194 972 l 908 972 z "},"М":{"ha":1196,"x_min":90,"x_max":1106,"o":"m 1085 972 q 1100 967 1094 972 q 1106 951 1106 961 l 1106 21 q 1100 6 1106 11 q 1085 0 1094 0 l 936 0 q 921 6 926 0 q 915 21 915 11 l 915 574 l 690 17 q 665 0 685 0 l 531 0 q 506 17 513 0 l 281 574 l 281 21 q 275 6 281 11 q 260 0 269 0 l 111 0 q 96 6 101 0 q 90 21 90 11 l 90 951 q 96 967 90 961 q 111 972 101 972 l 282 972 q 307 958 301 972 l 599 218 l 889 958 q 914 972 894 972 l 1085 972 z "},"Н":{"ha":928,"x_min":90,"x_max":836,"o":"m 815 972 q 831 967 825 972 q 836 951 836 961 l 836 21 q 831 6 836 11 q 815 0 825 0 l 667 0 q 651 6 657 0 q 646 21 646 11 l 646 394 l 281 394 l 281 21 q 275 6 281 11 q 260 0 269 0 l 111 0 q 96 6 101 0 q 90 21 90 11 l 90 951 q 96 967 90 961 q 111 972 101 972 l 260 972 q 275 967 269 972 q 281 951 281 961 l 281 563 l 646 563 l 646 951 q 651 967 646 961 q 667 972 657 972 l 815 972 z "},"О":{"ha":1125,"x_min":63,"x_max":1063,"o":"m 563 -18 q 312 49 426 -18 q 130 231 197 115 q 63 482 63 346 q 130 734 63 619 q 312 916 197 849 q 563 983 426 983 q 813 916 699 983 q 995 734 928 849 q 1063 482 1063 619 q 995 231 1063 346 q 813 49 928 115 q 563 -18 699 -18 m 563 165 q 719 207 649 165 q 831 322 790 249 q 872 482 872 394 q 831 642 872 569 q 719 758 790 715 q 563 800 649 800 q 406 758 476 800 q 294 642 335 715 q 253 482 253 569 q 294 322 253 394 q 406 207 335 249 q 563 165 476 165 z "},"П":{"ha":928,"x_min":90,"x_max":836,"o":"m 815 972 q 831 967 825 972 q 836 951 836 961 l 836 21 q 831 6 836 11 q 815 0 825 0 l 667 0 q 651 6 657 0 q 646 21 646 11 l 646 804 l 281 804 l 281 21 q 275 6 281 11 q 260 0 269 0 l 111 0 q 96 6 101 0 q 90 21 90 11 l 90 951 q 96 967 90 961 q 111 972 101 972 l 815 972 z "},"Р":{"ha":800,"x_min":90,"x_max":751,"o":"m 399 972 q 590 932 511 972 q 710 820 669 892 q 751 656 751 749 q 710 490 751 561 q 590 378 669 418 q 399 338 511 338 l 281 338 l 281 21 q 275 6 281 11 q 260 0 269 0 l 111 0 q 96 6 101 0 q 90 21 90 11 l 90 951 q 96 967 90 961 q 111 972 101 972 l 399 972 m 394 507 q 520 542 471 507 q 569 656 569 576 q 519 769 569 733 q 394 804 469 804 l 281 804 l 281 507 l 394 507 z "},"С":{"ha":965,"x_min":63,"x_max":908,"o":"m 901 151 q 908 138 908 146 q 901 122 908 129 q 748 19 835 56 q 563 -18 661 -18 q 311 49 426 -18 q 129 230 196 115 q 63 482 63 344 q 129 735 63 619 q 310 917 196 850 q 563 983 425 983 q 748 947 661 983 q 901 843 835 910 q 908 829 908 838 q 901 814 908 821 l 810 715 q 794 708 804 708 q 781 714 786 708 q 561 797 686 797 q 408 756 478 797 q 299 643 339 715 q 258 482 258 571 q 299 322 258 394 q 408 209 339 250 q 561 168 478 168 q 781 251 686 168 q 794 257 786 257 q 810 250 804 257 l 901 151 z "},"Т":{"ha":778,"x_min":63,"x_max":715,"o":"m 694 972 q 710 967 704 972 q 715 951 715 961 l 715 825 q 710 810 715 815 q 694 804 704 804 l 485 804 l 485 21 q 479 6 485 11 q 464 0 474 0 l 315 0 q 300 6 306 0 q 294 21 294 11 l 294 804 l 83 804 q 68 810 74 804 q 63 825 63 815 l 63 951 q 68 967 63 961 q 83 972 74 972 l 694 972 z "},"У":{"ha":976,"x_min":56,"x_max":921,"o":"m 903 972 q 916 969 911 972 q 921 960 921 965 q 917 947 921 954 l 353 14 q 328 0 344 0 l 171 0 q 153 13 153 0 q 157 25 153 19 l 388 406 l 60 947 q 56 960 56 954 q 60 969 56 965 q 74 972 65 972 l 231 972 q 256 958 247 972 l 489 574 l 721 958 q 746 972 729 972 l 903 972 z "},"Ф":{"ha":1268,"x_min":56,"x_max":1211,"o":"m 757 889 q 1000 832 897 889 q 1157 682 1103 775 q 1211 486 1211 589 q 1157 290 1211 383 q 1000 140 1103 197 q 757 83 897 83 l 729 83 l 729 21 q 724 6 729 11 q 708 0 718 0 l 560 0 q 544 6 550 0 q 539 21 539 11 l 539 83 l 511 83 q 267 140 371 83 q 110 290 164 197 q 56 486 56 383 q 110 682 56 589 q 267 832 164 775 q 511 889 371 889 l 539 889 l 539 951 q 544 967 539 961 q 560 972 550 972 l 708 972 q 724 967 718 972 q 729 951 729 961 l 729 889 l 757 889 m 539 251 l 539 721 l 511 721 q 318 654 388 721 q 249 486 249 588 q 318 318 249 385 q 511 251 388 251 l 539 251 m 757 251 q 949 318 879 251 q 1018 486 1018 385 q 949 654 1018 588 q 757 721 879 721 l 729 721 l 729 251 l 757 251 z "},"Х":{"ha":894,"x_min":56,"x_max":839,"o":"m 835 25 q 839 13 839 19 q 821 0 839 0 l 664 0 q 639 14 647 0 l 447 331 l 256 14 q 231 0 247 0 l 74 0 q 56 13 56 0 q 60 25 56 19 l 346 497 l 74 947 q 69 960 69 954 q 88 972 69 972 l 244 972 q 269 958 261 972 l 447 665 l 625 958 q 650 972 633 972 l 807 972 q 825 960 825 972 q 821 947 825 954 l 549 497 l 835 25 z "},"Ч":{"ha":892,"x_min":56,"x_max":801,"o":"m 781 972 q 796 967 790 972 q 801 951 801 961 l 801 21 q 796 6 801 11 q 781 0 790 0 l 632 0 q 617 6 622 0 q 611 21 611 11 l 611 413 q 495 317 565 353 q 336 282 425 282 q 197 320 261 282 q 94 428 132 358 q 56 586 56 497 l 56 951 q 61 967 56 961 q 76 972 67 972 l 225 972 q 240 967 235 972 q 246 951 246 961 l 246 619 q 292 505 246 542 q 397 468 338 468 q 506 490 457 468 q 583 542 554 513 q 611 589 611 571 l 611 951 q 617 967 611 961 q 632 972 622 972 l 781 972 z "},"Ц":{"ha":1015,"x_min":90,"x_max":960,"o":"m 939 168 q 954 163 949 168 q 960 147 960 157 l 960 -75 q 954 -90 960 -85 q 939 -96 949 -96 l 790 -96 q 775 -90 781 -96 q 769 -75 769 -85 l 769 0 l 111 0 q 96 6 101 0 q 90 21 90 11 l 90 951 q 96 967 90 961 q 111 972 101 972 l 260 972 q 275 967 269 972 q 281 951 281 961 l 281 168 l 646 168 l 646 951 q 651 967 646 961 q 667 972 657 972 l 815 972 q 831 967 825 972 q 836 951 836 961 l 836 168 l 939 168 z "},"Ш":{"ha":1483,"x_min":90,"x_max":1392,"o":"m 1371 972 q 1386 967 1381 972 q 1392 951 1392 961 l 1392 21 q 1386 6 1392 11 q 1371 0 1381 0 l 111 0 q 96 6 101 0 q 90 21 90 11 l 90 951 q 96 967 90 961 q 111 972 101 972 l 260 972 q 275 967 269 972 q 281 951 281 961 l 281 168 l 646 168 l 646 951 q 651 967 646 961 q 667 972 657 972 l 815 972 q 831 967 825 972 q 836 951 836 961 l 836 168 l 1201 168 l 1201 951 q 1207 967 1201 961 q 1222 972 1213 972 l 1371 972 z "},"Щ":{"ha":1571,"x_min":90,"x_max":1515,"o":"m 1494 168 q 1510 163 1504 168 q 1515 147 1515 157 l 1515 -75 q 1510 -90 1515 -85 q 1494 -96 1504 -96 l 1346 -96 q 1331 -90 1336 -96 q 1325 -75 1325 -85 l 1325 0 l 111 0 q 96 6 101 0 q 90 21 90 11 l 90 951 q 96 967 90 961 q 111 972 101 972 l 260 972 q 275 967 269 972 q 281 951 281 961 l 281 168 l 646 168 l 646 951 q 651 967 646 961 q 667 972 657 972 l 815 972 q 831 967 825 972 q 836 951 836 961 l 836 168 l 1201 168 l 1201 951 q 1207 967 1201 961 q 1222 972 1213 972 l 1371 972 q 1386 967 1381 972 q 1392 951 1392 961 l 1392 168 l 1494 168 z "},"Ь":{"ha":800,"x_min":90,"x_max":751,"o":"m 111 0 q 96 6 101 0 q 90 21 90 11 l 90 951 q 96 967 90 961 q 111 972 101 972 l 260 972 q 275 967 269 972 q 281 951 281 961 l 281 635 l 399 635 q 590 594 511 635 q 710 483 669 554 q 751 317 751 411 q 710 152 751 224 q 590 40 669 81 q 399 0 511 0 l 111 0 m 281 465 l 281 168 l 394 168 q 519 203 469 168 q 569 317 569 239 q 520 431 569 396 q 394 465 471 465 l 281 465 z "},"Ъ":{"ha":911,"x_min":35,"x_max":863,"o":"m 510 635 q 701 594 622 635 q 822 483 781 554 q 863 317 863 411 q 822 152 863 224 q 701 40 781 81 q 510 0 622 0 l 222 0 q 207 6 213 0 q 201 21 201 11 l 201 804 l 56 804 q 40 810 46 804 q 35 825 35 815 l 35 951 q 40 967 35 961 q 56 972 46 972 l 371 972 q 386 967 381 972 q 392 951 392 961 l 392 635 l 510 635 m 506 168 q 631 203 581 168 q 681 317 681 239 q 631 431 681 396 q 506 465 582 465 l 392 465 l 392 168 l 506 168 z "},"Ы":{"ha":1203,"x_min":90,"x_max":1111,"o":"m 111 0 q 96 6 101 0 q 90 21 90 11 l 90 951 q 96 967 90 961 q 111 972 101 972 l 260 972 q 275 967 269 972 q 281 951 281 961 l 281 635 l 399 635 q 590 594 511 635 q 710 483 669 554 q 751 317 751 411 q 710 152 751 224 q 590 40 669 81 q 399 0 511 0 l 111 0 m 281 465 l 281 168 l 394 168 q 519 203 469 168 q 569 317 569 239 q 520 431 569 396 q 394 465 471 465 l 281 465 m 921 951 q 926 967 921 961 q 942 972 932 972 l 1090 972 q 1106 967 1100 972 q 1111 951 1111 961 l 1111 21 q 1106 6 1111 11 q 1090 0 1100 0 l 942 0 q 926 6 932 0 q 921 21 921 11 l 921 951 z "},"Є":{"ha":965,"x_min":63,"x_max":908,"o":"m 901 151 q 908 138 908 146 q 901 122 908 129 q 748 19 835 56 q 563 -18 661 -18 q 311 49 426 -18 q 129 230 196 115 q 63 482 63 344 q 129 735 63 619 q 310 917 196 850 q 563 983 425 983 q 748 947 661 983 q 901 843 835 910 q 908 829 908 838 q 901 814 908 821 l 810 715 q 794 708 804 708 q 781 714 786 708 q 561 797 686 797 q 377 735 457 797 q 269 571 297 672 l 589 571 q 604 565 599 571 q 610 550 610 560 l 610 422 q 604 407 610 413 q 589 401 599 401 l 268 401 q 374 233 293 297 q 561 168 454 168 q 781 251 686 168 q 794 257 786 257 q 810 250 804 257 l 901 151 z "},"Э":{"ha":965,"x_min":64,"x_max":910,"o":"m 410 983 q 662 917 547 983 q 843 735 776 850 q 910 482 910 619 q 843 230 910 344 q 661 49 776 115 q 410 -18 546 -18 q 224 19 311 -18 q 71 122 138 56 q 64 138 64 132 q 71 151 64 144 l 163 250 q 178 257 168 257 q 192 251 186 257 q 411 168 286 168 q 599 233 518 168 q 704 401 679 297 l 383 401 q 368 407 374 401 q 363 422 363 413 l 363 550 q 368 565 363 560 q 383 571 374 571 l 703 571 q 595 735 675 672 q 411 797 515 797 q 192 714 286 797 q 178 708 186 708 q 163 715 168 708 l 71 814 q 64 829 64 824 q 71 843 64 836 q 224 947 138 910 q 410 983 311 983 z "},"І":{"ha":371,"x_min":90,"x_max":281,"o":"m 90 951 q 96 967 90 961 q 111 972 101 972 l 260 972 q 275 967 269 972 q 281 951 281 961 l 281 21 q 275 6 281 11 q 260 0 269 0 l 111 0 q 96 6 101 0 q 90 21 90 11 l 90 951 z "},"Ї":{"ha":371,"x_min":-57,"x_max":429,"o":"m 90 951 q 96 967 90 961 q 111 972 101 972 l 260 972 q 275 967 269 972 q 281 951 281 961 l 281 21 q 275 6 281 11 q 260 0 269 0 l 111 0 q 96 6 101 0 q 90 21 90 11 l 90 951 m 36 1085 q -30 1112 -3 1085 q -57 1178 -57 1139 q -30 1244 -57 1217 q 36 1271 -3 1271 q 101 1244 74 1271 q 129 1178 129 1217 q 101 1112 129 1139 q 36 1085 74 1085 m 336 1085 q 271 1112 299 1085 q 243 1178 243 1139 q 271 1244 243 1217 q 336 1271 299 1271 q 401 1244 374 1271 q 429 1178 429 1217 q 401 1112 429 1139 q 336 1085 374 1085 z "},"Ю":{"ha":1424,"x_min":90,"x_max":1361,"o":"m 861 983 q 1112 916 997 983 q 1294 734 1226 849 q 1361 482 1361 619 q 1294 231 1361 346 q 1112 49 1226 115 q 861 -18 997 -18 q 633 37 739 -18 q 457 188 528 92 q 368 401 386 283 l 281 401 l 281 21 q 275 6 281 11 q 260 0 269 0 l 111 0 q 96 6 101 0 q 90 21 90 11 l 90 951 q 96 967 90 961 q 111 972 101 972 l 260 972 q 275 967 269 972 q 281 951 281 961 l 281 571 l 369 571 q 460 782 390 688 q 635 930 531 876 q 861 983 740 983 m 861 165 q 1018 207 947 165 q 1130 322 1089 249 q 1171 482 1171 394 q 1130 642 1171 569 q 1018 758 1089 715 q 861 800 947 800 q 704 758 775 800 q 592 642 633 715 q 551 482 551 569 q 592 322 551 394 q 704 207 633 249 q 861 165 775 165 z "},"Я":{"ha":835,"x_min":63,"x_max":744,"o":"m 724 972 q 739 967 733 972 q 744 951 744 961 l 744 21 q 739 6 744 11 q 724 0 733 0 l 575 0 q 560 6 565 0 q 554 21 554 11 l 554 338 l 474 338 l 264 14 q 239 0 256 0 l 81 0 q 63 13 63 0 q 67 25 63 19 l 288 360 q 136 471 189 393 q 83 656 83 549 q 124 820 83 749 q 244 932 165 892 q 436 972 324 972 l 724 972 m 554 804 l 440 804 q 315 769 365 804 q 265 656 265 733 q 315 542 265 576 q 440 507 364 507 l 554 507 l 554 804 z "},"а":{"ha":842,"x_min":56,"x_max":765,"o":"m 744 681 q 760 675 754 681 q 765 660 765 669 l 765 21 q 760 6 765 11 q 744 0 754 0 l 617 0 q 596 21 599 0 l 590 79 q 385 -18 507 -18 q 216 29 292 -18 q 98 158 140 76 q 56 339 56 240 q 98 519 56 438 q 216 649 140 601 q 385 696 292 696 q 592 596 504 696 l 596 660 q 617 681 599 681 l 744 681 m 407 149 q 495 175 456 149 q 558 245 535 201 q 581 340 581 289 q 531 474 581 418 q 407 529 481 529 q 281 476 331 529 q 232 340 232 422 q 281 203 232 258 q 407 149 331 149 z "},"б":{"ha":842,"x_min":76,"x_max":786,"o":"m 457 696 q 626 649 550 696 q 744 519 701 601 q 786 339 786 438 q 744 158 786 240 q 626 29 701 76 q 457 -18 550 -18 q 251 78 336 -18 l 247 21 q 226 0 244 0 l 97 0 q 82 6 88 0 q 76 21 76 11 l 76 719 q 133 910 76 849 q 303 972 189 972 l 471 972 q 538 979 515 972 q 575 1000 560 986 l 718 1000 q 650 853 714 894 q 471 811 586 811 l 349 811 q 278 787 299 811 q 258 713 258 763 l 258 604 q 457 696 343 696 m 435 149 q 560 203 511 149 q 610 340 610 258 q 560 476 610 422 q 435 529 511 529 q 311 474 361 529 q 261 340 261 418 q 284 245 261 289 q 347 175 307 201 q 435 149 386 149 z "},"в":{"ha":803,"x_min":76,"x_max":754,"o":"m 606 358 q 714 299 674 344 q 754 196 754 254 q 672 49 754 97 q 443 0 589 0 l 97 0 q 82 6 88 0 q 76 21 76 11 l 76 660 q 82 675 76 669 q 97 681 88 681 l 443 681 q 630 631 558 681 q 701 493 701 581 q 676 410 701 446 q 606 358 650 375 m 536 474 q 517 515 536 500 q 436 531 497 531 l 260 531 l 260 414 l 436 414 q 517 431 497 414 q 536 474 536 447 m 436 150 q 549 167 521 150 q 578 218 578 185 q 549 267 578 250 q 436 285 521 285 l 260 285 l 260 150 l 436 150 z "},"г":{"ha":610,"x_min":76,"x_max":561,"o":"m 540 681 q 556 675 550 681 q 561 660 561 669 l 561 551 q 556 536 561 542 q 540 531 550 531 l 260 531 l 260 21 q 254 6 260 11 q 239 0 249 0 l 97 0 q 82 6 88 0 q 76 21 76 11 l 76 660 q 82 675 76 669 q 97 681 88 681 l 540 681 z "},"ѓ":{"ha":610,"x_min":76,"x_max":561,"o":"m 540 681 q 556 675 550 681 q 561 660 561 669 l 561 551 q 556 536 561 542 q 540 531 550 531 l 260 531 l 260 21 q 254 6 260 11 q 239 0 249 0 l 97 0 q 82 6 88 0 q 76 21 76 11 l 76 660 q 82 675 76 669 q 97 681 88 681 l 540 681 m 460 969 q 477 963 472 969 q 476 946 482 957 l 393 771 q 369 754 386 754 l 244 754 q 227 760 232 754 q 228 778 222 767 l 311 953 q 335 969 318 969 l 460 969 z "},"ґ":{"ha":610,"x_min":76,"x_max":561,"o":"m 540 767 q 556 761 550 767 q 561 746 561 756 l 561 551 q 556 536 561 542 q 540 531 550 531 l 260 531 l 260 21 q 254 6 260 11 q 239 0 249 0 l 97 0 q 82 6 88 0 q 76 21 76 11 l 76 660 q 82 675 76 669 q 97 681 88 681 l 378 681 l 378 746 q 383 761 378 756 q 399 767 389 767 l 540 767 z "},"д":{"ha":1035,"x_min":56,"x_max":979,"o":"m 958 150 q 974 144 968 150 q 979 129 979 139 l 979 -62 q 974 -78 979 -72 q 958 -83 968 -83 l 817 -83 q 801 -78 807 -83 q 796 -62 796 -72 l 796 0 l 239 0 l 239 -62 q 233 -78 239 -72 q 218 -83 228 -83 l 76 -83 q 61 -78 67 -83 q 56 -62 56 -72 l 56 151 q 67 164 56 164 q 169 202 126 164 q 211 315 211 240 l 211 660 q 217 675 211 669 q 232 681 222 681 l 826 681 q 842 675 836 681 q 847 660 847 669 l 847 150 l 958 150 m 394 282 q 372 150 394 210 l 664 150 l 664 531 l 394 531 l 394 282 z "},"е":{"ha":778,"x_min":56,"x_max":722,"o":"m 722 354 q 713 291 722 310 q 674 272 703 272 l 238 272 q 301 167 251 204 q 432 131 351 131 q 507 142 472 131 q 576 178 542 153 q 592 183 583 183 q 607 176 600 183 l 668 117 q 675 103 675 110 q 667 86 675 94 q 552 9 617 36 q 414 -18 488 -18 q 228 29 310 -18 q 101 158 146 76 q 56 339 56 239 q 100 519 56 438 q 223 649 144 601 q 399 696 301 696 q 568 649 494 696 q 682 525 642 603 q 722 354 722 447 m 400 540 q 291 501 336 540 q 235 392 246 463 l 560 392 q 506 501 550 463 q 400 540 463 540 z "},"ё":{"ha":778,"x_min":56,"x_max":722,"o":"m 722 354 q 713 291 722 310 q 674 272 703 272 l 238 272 q 301 167 251 204 q 432 131 351 131 q 507 142 472 131 q 576 178 542 153 q 592 183 583 183 q 607 176 600 183 l 668 117 q 675 103 675 110 q 667 86 675 94 q 552 9 617 36 q 414 -18 488 -18 q 228 29 310 -18 q 101 158 146 76 q 56 339 56 239 q 100 519 56 438 q 223 649 144 601 q 399 696 301 696 q 568 649 494 696 q 682 525 642 603 q 722 354 722 447 m 400 540 q 291 501 336 540 q 235 392 246 463 l 560 392 q 506 501 550 463 q 400 540 463 540 m 264 835 q 198 862 225 835 q 171 928 171 889 q 198 994 171 967 q 264 1021 225 1021 q 329 994 301 1021 q 357 928 357 967 q 329 862 357 889 q 264 835 301 835 m 564 835 q 499 862 526 835 q 471 928 471 889 q 499 994 471 967 q 564 1021 526 1021 q 629 994 601 1021 q 657 928 657 967 q 629 862 657 889 q 564 835 601 835 z "},"ж":{"ha":1306,"x_min":43,"x_max":1263,"o":"m 1257 25 q 1263 13 1263 19 q 1244 0 1263 0 l 1074 0 q 1049 11 1058 0 l 825 267 l 744 185 l 744 21 q 739 6 744 11 q 724 0 733 0 l 582 0 q 567 6 572 0 q 561 21 561 11 l 561 185 l 481 267 l 257 11 q 232 0 247 0 l 61 0 q 43 13 43 0 q 49 25 43 19 l 365 386 l 101 656 q 94 669 94 665 q 113 681 94 681 l 282 681 q 308 669 299 681 l 561 411 l 561 660 q 567 675 561 669 q 582 681 572 681 l 724 681 q 739 675 733 681 q 744 660 744 669 l 744 411 l 997 669 q 1024 681 1007 681 l 1193 681 q 1211 669 1211 681 q 1204 656 1211 665 l 940 386 l 1257 25 z "},"з":{"ha":615,"x_min":63,"x_max":553,"o":"m 444 364 q 524 294 496 338 q 553 199 553 251 q 518 88 553 135 q 426 15 483 40 q 304 -11 369 -11 q 71 76 142 -11 q 63 96 63 88 q 74 118 63 107 l 138 182 q 153 189 144 189 q 175 179 163 189 q 286 142 222 142 q 358 161 326 142 q 389 218 389 181 q 356 274 389 251 q 257 296 324 296 q 233 304 242 296 q 224 326 224 313 l 224 386 q 233 409 224 400 q 257 418 242 418 q 338 435 313 418 q 364 482 364 453 q 341 523 364 508 q 282 538 318 538 q 192 510 238 538 q 164 500 178 500 q 142 510 150 500 l 92 564 q 82 585 82 574 q 90 604 82 594 q 180 665 124 642 q 304 689 236 689 q 415 667 363 689 q 499 603 467 644 q 532 507 532 563 q 508 427 532 464 q 444 364 485 390 z "},"и":{"ha":825,"x_min":76,"x_max":747,"o":"m 728 681 q 742 675 736 681 q 747 660 747 669 l 747 21 q 742 6 747 11 q 726 0 736 0 l 585 0 q 569 6 575 0 q 564 21 564 11 l 564 439 l 276 14 q 250 0 267 0 l 97 0 q 82 6 88 0 q 76 21 76 11 l 76 660 q 82 675 76 669 q 97 681 88 681 l 239 681 q 254 675 249 681 q 260 660 260 669 l 260 239 l 549 667 q 575 681 558 681 l 728 681 z "},"й":{"ha":825,"x_min":76,"x_max":747,"o":"m 728 681 q 742 675 736 681 q 747 660 747 669 l 747 21 q 742 6 747 11 q 726 0 736 0 l 585 0 q 569 6 575 0 q 564 21 564 11 l 564 439 l 276 14 q 250 0 267 0 l 97 0 q 82 6 88 0 q 76 21 76 11 l 76 660 q 82 675 76 669 q 97 681 88 681 l 239 681 q 254 675 249 681 q 260 660 260 669 l 260 239 l 549 667 q 575 681 558 681 l 728 681 m 533 951 q 556 971 538 971 l 625 971 q 644 950 647 971 q 580 824 638 874 q 429 774 522 774 q 278 824 336 774 q 214 950 221 874 l 214 953 q 233 971 214 971 l 304 971 q 326 951 319 971 q 361 899 335 921 q 429 878 388 878 q 498 899 471 878 q 533 951 525 921 z "},"к":{"ha":821,"x_min":76,"x_max":778,"o":"m 772 25 q 778 13 778 19 q 760 0 778 0 l 589 0 q 564 11 574 0 l 340 267 l 260 185 l 260 21 q 254 6 260 11 q 239 0 249 0 l 97 0 q 82 6 88 0 q 76 21 76 11 l 76 660 q 82 675 76 669 q 97 681 88 681 l 239 681 q 254 675 249 681 q 260 660 260 669 l 260 411 l 513 669 q 539 681 522 681 l 708 681 q 726 669 726 681 q 719 656 726 665 l 456 386 l 772 25 z "},"л":{"ha":890,"x_min":21,"x_max":813,"o":"m 792 681 q 807 675 801 681 q 813 660 813 669 l 813 21 q 807 6 813 11 q 792 0 801 0 l 650 0 q 635 6 640 0 q 629 21 629 11 l 629 531 l 360 531 l 360 282 q 285 67 360 142 q 83 -7 210 -7 q 67 4 71 -7 l 22 149 l 21 154 q 32 164 21 164 q 134 202 92 164 q 176 315 176 240 l 176 660 q 182 675 176 669 q 197 681 188 681 l 792 681 z "},"м":{"ha":1051,"x_min":76,"x_max":974,"o":"m 953 681 q 968 675 963 681 q 974 660 974 669 l 974 21 q 968 6 974 11 q 953 0 963 0 l 811 0 q 796 6 801 0 q 790 21 790 11 l 790 364 l 625 15 q 601 0 618 0 l 449 0 q 425 15 432 0 l 260 365 l 260 21 q 254 6 260 11 q 239 0 249 0 l 97 0 q 82 6 88 0 q 76 21 76 11 l 76 660 q 82 675 76 669 q 97 681 88 681 l 271 681 q 294 665 286 681 l 526 192 l 756 665 q 779 681 764 681 l 953 681 z "},"н":{"ha":831,"x_min":76,"x_max":754,"o":"m 733 681 q 749 675 743 681 q 754 660 754 669 l 754 21 q 749 6 754 11 q 733 0 743 0 l 592 0 q 576 6 582 0 q 571 21 571 11 l 571 265 l 260 265 l 260 21 q 254 6 260 11 q 239 0 249 0 l 97 0 q 82 6 88 0 q 76 21 76 11 l 76 660 q 82 675 76 669 q 97 681 88 681 l 239 681 q 254 675 249 681 q 260 660 260 669 l 260 415 l 571 415 l 571 660 q 576 675 571 669 q 592 681 582 681 l 733 681 z "},"о":{"ha":817,"x_min":56,"x_max":761,"o":"m 408 -18 q 231 29 313 -18 q 103 158 150 76 q 56 339 56 240 q 103 519 56 438 q 231 649 150 601 q 408 696 313 696 q 585 649 504 696 q 714 519 667 601 q 761 339 761 438 q 714 158 761 240 q 585 29 667 76 q 408 -18 504 -18 m 408 151 q 533 205 482 151 q 585 339 585 258 q 533 473 585 419 q 408 526 482 526 q 283 474 333 526 q 232 339 232 421 q 283 204 232 257 q 408 151 333 151 z "},"п":{"ha":831,"x_min":76,"x_max":754,"o":"m 733 681 q 749 675 743 681 q 754 660 754 669 l 754 21 q 749 6 754 11 q 733 0 743 0 l 592 0 q 576 6 582 0 q 571 21 571 11 l 571 531 l 260 531 l 260 21 q 254 6 260 11 q 239 0 249 0 l 97 0 q 82 6 88 0 q 76 21 76 11 l 76 660 q 82 675 76 669 q 97 681 88 681 l 733 681 z "},"р":{"ha":842,"x_min":76,"x_max":786,"o":"m 457 696 q 626 649 550 696 q 744 519 701 601 q 786 339 786 438 q 744 158 786 240 q 626 29 701 76 q 457 -18 550 -18 q 260 68 342 -18 l 260 -243 q 254 -258 260 -253 q 239 -264 249 -264 l 97 -264 q 82 -258 88 -264 q 76 -243 76 -253 l 76 660 q 82 675 76 669 q 97 681 88 681 l 225 681 q 246 660 243 681 l 250 596 q 457 696 338 696 m 435 149 q 560 203 511 149 q 610 340 610 258 q 560 476 610 422 q 435 529 511 529 q 311 474 361 529 q 261 340 261 418 q 284 245 261 289 q 347 175 307 201 q 435 149 386 149 z "},"с":{"ha":724,"x_min":56,"x_max":675,"o":"m 407 151 q 486 167 453 151 q 553 213 519 183 q 568 219 560 219 q 583 213 578 219 l 668 132 q 675 117 675 125 q 669 103 675 108 q 551 14 621 46 q 403 -18 482 -18 q 227 29 307 -18 q 101 158 147 76 q 56 339 56 240 q 101 519 56 438 q 227 649 147 601 q 403 696 307 696 q 549 664 481 696 q 665 575 617 632 q 671 561 671 569 q 664 546 671 553 l 579 464 q 565 457 572 457 q 549 465 557 457 q 483 510 515 494 q 407 526 450 526 q 281 473 331 526 q 232 339 232 419 q 281 205 232 258 q 407 151 331 151 z "},"т":{"ha":653,"x_min":56,"x_max":597,"o":"m 576 681 q 592 675 586 681 q 597 660 597 669 l 597 551 q 592 536 597 542 q 576 531 586 531 l 418 531 l 418 21 q 413 6 418 11 q 397 0 407 0 l 256 0 q 240 6 246 0 q 235 21 235 11 l 235 531 l 76 531 q 61 536 67 531 q 56 551 56 542 l 56 660 q 61 675 56 669 q 76 681 67 681 l 576 681 z "},"у":{"ha":794,"x_min":43,"x_max":750,"o":"m 732 681 q 748 674 743 681 q 749 657 753 668 l 389 -247 q 364 -264 383 -264 l 225 -264 q 208 -258 213 -264 q 208 -240 203 -251 l 307 -1 l 44 657 q 43 667 43 661 q 61 681 43 681 l 204 681 q 229 664 224 681 l 396 214 l 561 664 q 586 681 568 681 l 732 681 z "},"ф":{"ha":1351,"x_min":56,"x_max":1296,"o":"m 967 696 q 1135 649 1060 696 q 1253 519 1211 601 q 1296 339 1296 438 q 1253 158 1296 240 q 1135 29 1211 76 q 967 -18 1060 -18 q 769 68 851 -18 l 769 -243 q 764 -258 769 -253 q 749 -264 758 -264 l 607 -264 q 592 -258 597 -264 q 586 -243 586 -253 l 586 79 q 385 -15 501 -15 q 216 32 292 -15 q 98 161 140 79 q 56 342 56 243 q 98 522 56 440 q 216 651 140 604 q 385 699 292 699 q 582 613 500 699 l 582 924 q 588 939 582 933 q 603 944 593 944 l 744 944 q 760 939 754 944 q 765 924 765 933 l 765 601 q 967 696 850 696 m 407 151 q 531 207 481 151 q 581 340 581 263 q 558 435 581 392 q 495 506 535 479 q 407 532 456 532 q 281 477 331 532 q 232 340 232 422 q 281 205 232 258 q 407 151 331 151 m 944 149 q 1070 203 1021 149 q 1119 340 1119 258 q 1070 476 1119 422 q 944 529 1021 529 q 821 474 871 529 q 771 340 771 418 q 794 245 771 289 q 856 175 817 201 q 944 149 896 149 z "},"х":{"ha":775,"x_min":57,"x_max":718,"o":"m 714 25 q 718 13 718 19 q 713 3 718 7 q 700 0 708 0 l 539 0 q 514 14 524 0 l 388 210 l 261 14 q 236 0 251 0 l 75 0 q 62 3 67 0 q 57 13 57 7 q 61 25 57 19 l 283 349 l 72 656 q 68 668 68 663 q 73 677 68 674 q 86 681 78 681 l 247 681 q 272 667 263 681 l 388 488 l 503 667 q 528 681 513 681 l 689 681 q 702 677 697 681 q 707 668 707 674 q 703 656 707 663 l 492 349 l 714 25 z "},"ч":{"ha":824,"x_min":56,"x_max":746,"o":"m 725 681 q 740 675 735 681 q 746 660 746 669 l 746 21 q 740 6 746 11 q 725 0 735 0 l 583 0 q 568 6 574 0 q 563 21 563 11 l 563 261 q 342 164 475 164 q 137 236 218 164 q 56 456 56 308 l 56 660 q 61 675 56 669 q 76 681 67 681 l 218 681 q 233 675 228 681 q 239 660 239 669 l 239 454 q 274 341 239 385 q 379 297 308 297 q 563 407 485 297 l 563 660 q 568 675 563 669 q 583 681 574 681 l 725 681 z "},"ц":{"ha":903,"x_min":76,"x_max":847,"o":"m 826 150 q 842 144 836 150 q 847 129 847 139 l 847 -62 q 842 -78 847 -72 q 826 -83 836 -83 l 685 -83 q 669 -78 675 -83 q 664 -62 664 -72 l 664 0 l 97 0 q 82 6 88 0 q 76 21 76 11 l 76 660 q 82 675 76 669 q 97 681 88 681 l 239 681 q 254 675 249 681 q 260 660 260 669 l 260 150 l 571 150 l 571 660 q 576 675 571 669 q 592 681 582 681 l 733 681 q 749 675 743 681 q 754 660 754 669 l 754 150 l 826 150 z "},"ш":{"ha":1071,"x_min":76,"x_max":993,"o":"m 972 681 q 988 675 982 681 q 993 660 993 669 l 993 21 q 988 6 993 11 q 972 0 982 0 l 97 0 q 82 6 88 0 q 76 21 76 11 l 76 660 q 82 675 76 669 q 97 681 88 681 l 239 681 q 254 675 249 681 q 260 660 260 669 l 260 150 l 443 150 l 443 660 q 449 675 443 669 q 464 681 454 681 l 606 681 q 621 675 615 681 q 626 660 626 669 l 626 150 l 810 150 l 810 660 q 815 675 810 669 q 831 681 821 681 l 972 681 z "},"щ":{"ha":1156,"x_min":76,"x_max":1100,"o":"m 1079 150 q 1094 144 1089 150 q 1100 129 1100 139 l 1100 -62 q 1094 -78 1100 -72 q 1079 -83 1089 -83 l 938 -83 q 922 -78 928 -83 q 917 -62 917 -72 l 917 0 l 97 0 q 82 6 88 0 q 76 21 76 11 l 76 660 q 82 675 76 669 q 97 681 88 681 l 239 681 q 254 675 249 681 q 260 660 260 669 l 260 150 l 443 150 l 443 660 q 449 675 443 669 q 464 681 454 681 l 606 681 q 621 675 615 681 q 626 660 626 669 l 626 150 l 810 150 l 810 660 q 815 675 810 669 q 831 681 821 681 l 972 681 q 988 675 982 681 q 993 660 993 669 l 993 150 l 1079 150 z "},"ь":{"ha":776,"x_min":76,"x_max":728,"o":"m 431 453 q 650 398 572 453 q 728 226 728 343 q 650 55 728 110 q 431 0 572 0 l 97 0 q 82 6 88 0 q 76 21 76 11 l 76 660 q 82 675 76 669 q 97 681 88 681 l 239 681 q 254 675 249 681 q 260 660 260 669 l 260 453 l 431 453 m 433 136 q 523 157 494 136 q 551 226 551 178 q 523 296 551 275 q 433 317 494 317 l 260 317 l 260 136 l 433 136 z "},"ъ":{"ha":826,"x_min":42,"x_max":776,"o":"m 479 453 q 699 398 621 453 q 776 226 776 343 q 699 55 776 110 q 479 0 621 0 l 146 0 q 131 6 136 0 q 125 21 125 11 l 125 531 l 63 531 q 47 536 53 531 q 42 551 42 542 l 42 660 q 47 675 42 669 q 63 681 53 681 l 288 681 q 303 675 297 681 q 308 660 308 669 l 308 453 l 479 453 m 482 136 q 572 157 543 136 q 600 226 600 178 q 572 296 600 275 q 482 317 543 317 l 308 317 l 308 136 l 482 136 z "},"ы":{"ha":1101,"x_min":76,"x_max":1025,"o":"m 431 453 q 650 398 572 453 q 728 226 728 343 q 650 55 728 110 q 431 0 572 0 l 97 0 q 82 6 88 0 q 76 21 76 11 l 76 660 q 82 675 76 669 q 97 681 88 681 l 239 681 q 254 675 249 681 q 260 660 260 669 l 260 453 l 431 453 m 433 136 q 523 157 494 136 q 551 226 551 178 q 523 296 551 275 q 433 317 494 317 l 260 317 l 260 136 l 433 136 m 842 660 q 847 675 842 669 q 863 681 853 681 l 1004 681 q 1019 675 1014 681 q 1025 660 1025 669 l 1025 21 q 1019 6 1025 11 q 1004 0 1014 0 l 863 0 q 847 6 853 0 q 842 21 842 11 l 842 660 z "},"є":{"ha":724,"x_min":56,"x_max":675,"o":"m 668 132 q 675 117 675 125 q 669 103 675 108 q 551 14 621 46 q 403 -18 482 -18 q 227 29 307 -18 q 101 158 147 76 q 56 339 56 240 q 101 519 56 438 q 227 649 147 601 q 403 696 307 696 q 549 664 481 696 q 665 575 617 632 q 671 561 671 569 q 664 546 671 553 l 579 464 q 565 457 572 457 q 549 465 557 457 q 483 510 515 494 q 407 526 450 526 q 303 494 347 526 q 242 406 260 461 l 444 406 q 460 400 454 406 q 465 385 465 394 l 465 293 q 460 278 465 283 q 444 272 454 272 l 242 272 q 303 184 260 217 q 407 151 347 151 q 486 167 453 151 q 553 213 519 183 q 568 219 560 219 q 583 213 578 219 l 668 132 z "},"э":{"ha":724,"x_min":56,"x_max":675,"o":"m 328 696 q 503 649 424 696 q 629 519 583 601 q 675 339 675 438 q 629 158 675 240 q 503 29 583 76 q 328 -18 424 -18 q 179 14 249 -18 q 61 103 110 46 q 56 117 56 108 q 63 132 56 125 l 147 213 q 163 219 154 219 q 178 213 171 219 q 244 167 211 183 q 324 151 278 151 q 427 184 383 151 q 489 272 471 217 l 286 272 q 271 278 276 272 q 265 293 265 283 l 265 385 q 271 400 265 394 q 286 406 276 406 l 489 406 q 427 494 471 461 q 324 526 383 526 q 248 510 281 526 q 182 465 215 494 q 165 457 174 457 q 151 464 158 457 l 67 546 q 60 561 60 553 q 65 575 60 569 q 182 664 114 632 q 328 696 250 696 z "},"ї":{"ha":338,"x_min":-74,"x_max":413,"o":"m 76 660 q 82 675 76 669 q 97 681 88 681 l 239 681 q 254 675 249 681 q 260 660 260 669 l 260 21 q 254 6 260 11 q 239 0 249 0 l 97 0 q 82 6 88 0 q 76 21 76 11 l 76 660 m 19 793 q -47 820 -19 793 q -74 886 -74 847 q -47 952 -74 925 q 19 979 -19 979 q 85 952 57 979 q 113 886 113 925 q 85 820 113 847 q 19 793 57 793 m 319 793 q 254 820 282 793 q 226 886 226 847 q 254 952 226 925 q 319 979 282 979 q 385 952 357 979 q 413 886 413 925 q 385 820 413 847 q 319 793 357 793 z "},"ю":{"ha":1114,"x_min":76,"x_max":1058,"o":"m 706 696 q 883 649 801 696 q 1011 519 964 601 q 1058 339 1058 438 q 1011 158 1058 240 q 883 29 964 76 q 706 -18 801 -18 q 549 18 622 -18 q 426 119 476 54 q 360 264 376 183 l 260 264 l 260 19 q 254 4 260 10 q 239 -1 249 -1 l 97 -1 q 82 4 88 -1 q 76 19 76 10 l 76 658 q 82 674 76 668 q 97 679 88 679 l 239 679 q 254 674 249 679 q 260 658 260 668 l 260 414 l 360 414 q 426 559 376 494 q 549 660 476 624 q 706 696 622 696 m 706 151 q 831 205 779 151 q 882 339 882 258 q 831 473 882 419 q 706 526 779 526 q 580 474 631 526 q 529 339 529 421 q 580 204 529 257 q 706 151 631 151 z "},"я":{"ha":803,"x_min":56,"x_max":725,"o":"m 704 681 q 719 675 714 681 q 725 660 725 669 l 725 21 q 719 6 725 11 q 704 0 714 0 l 563 0 q 547 6 553 0 q 542 21 542 11 l 542 228 l 446 228 l 250 11 q 225 0 240 0 l 78 0 q 65 3 69 0 q 60 13 60 7 q 67 25 60 18 l 260 235 q 56 454 56 268 q 133 626 56 571 q 353 681 211 681 l 704 681 m 232 454 q 264 386 232 408 q 350 364 296 364 l 542 364 l 542 544 l 350 544 q 264 522 296 544 q 232 454 232 500 z "},"Δ":{"ha":953,"x_min":40,"x_max":910,"o":"m 908 24 q 910 15 910 21 q 892 0 910 0 l 61 0 q 45 7 50 0 q 44 24 40 14 l 382 956 q 406 972 389 972 l 544 972 q 571 956 565 972 l 908 24 m 283 150 l 669 150 l 476 725 l 283 150 z "},"Ω":{"ha":1125,"x_min":63,"x_max":1063,"o":"m 900 150 l 1063 150 l 1063 0 l 710 0 l 710 215 q 829 330 786 257 q 872 500 872 403 q 831 653 872 585 q 719 761 790 722 q 563 800 649 800 q 406 761 476 800 q 294 653 335 722 q 253 500 253 585 q 296 330 253 403 q 415 215 339 257 l 415 0 l 63 0 l 63 150 l 225 150 l 225 153 q 102 308 142 214 q 63 500 63 403 q 130 745 63 635 q 312 919 197 856 q 563 983 426 983 q 813 919 699 983 q 995 745 928 856 q 1063 500 1063 635 q 1023 308 1063 403 q 900 153 983 214 l 900 150 z "},"μ":{"ha":790,"x_min":69,"x_max":714,"o":"m 693 681 q 708 675 703 681 q 714 660 714 669 l 714 21 q 708 6 714 11 q 693 0 703 0 l 557 0 q 536 21 539 0 l 531 97 q 441 13 493 44 q 328 -18 389 -18 q 253 -8 286 -18 l 253 -243 q 247 -258 253 -253 q 232 -264 242 -264 l 90 -264 q 75 -258 81 -264 q 69 -243 69 -253 l 69 660 q 75 675 69 669 q 90 681 81 681 l 232 681 q 247 675 242 681 q 253 660 253 669 l 253 303 q 290 188 253 225 q 383 151 328 151 q 463 173 429 151 q 513 226 496 194 q 531 283 531 257 l 531 660 q 536 675 531 669 q 551 681 542 681 l 693 681 z "},"π":{"ha":981,"x_min":83,"x_max":932,"o":"m 913 158 q 932 139 932 158 l 932 31 q 895 -1 932 8 q 811 -10 858 -10 q 674 37 728 -10 q 621 183 621 83 l 621 531 l 404 531 l 404 21 q 399 6 404 11 q 383 0 393 0 l 242 0 q 226 6 232 0 q 221 21 221 11 l 221 531 l 104 531 q 89 536 94 531 q 83 551 83 542 l 83 660 q 89 675 83 669 q 104 681 94 681 l 888 681 q 903 675 897 681 q 908 660 908 669 l 908 551 q 903 536 908 542 q 888 531 897 531 l 804 531 l 804 215 q 819 171 804 186 q 858 156 833 156 q 907 158 890 156 l 913 158 z "},"¹":{"ha":222,"x_min":56,"x_max":144,"o":"m 144 611 l 93 611 l 93 924 l 56 924 l 56 974 l 144 974 l 144 611 z "},"²":{"ha":343,"x_min":43,"x_max":281,"o":"m 160 978 q 242 947 207 978 q 276 874 276 915 q 256 808 276 838 q 182 724 236 779 l 117 656 l 281 656 l 281 611 l 47 611 l 47 656 l 142 751 q 209 827 194 807 q 224 874 224 847 q 204 917 224 899 q 160 935 185 935 q 114 917 133 935 q 94 865 94 899 l 94 846 l 43 846 l 43 865 q 77 946 43 914 q 160 978 111 978 z "},"³":{"ha":381,"x_min":64,"x_max":318,"o":"m 190 976 q 268 948 235 976 q 301 882 301 919 q 260 808 301 838 q 302 774 286 797 q 318 717 318 750 q 280 638 318 669 q 190 606 242 606 q 97 643 133 606 q 64 732 60 681 l 117 732 q 115 719 115 728 q 138 671 115 692 q 190 650 160 650 q 243 669 221 650 q 265 717 265 688 q 189 781 265 781 q 163 779 172 781 l 163 822 q 250 882 250 826 q 233 918 250 903 q 190 933 215 933 q 142 912 160 933 q 126 854 124 890 l 74 854 q 104 942 69 907 q 190 976 139 976 z "},"⁄":{"ha":206,"x_min":-229,"x_max":435,"o":"m -162 0 l -229 0 l 376 972 l 435 972 l -162 0 z "},"½":{"ha":793,"x_min":56,"x_max":738,"o":"m 144 611 l 93 611 l 93 924 l 56 924 l 56 974 l 144 974 l 144 611 m 132 0 l 65 0 l 671 972 l 729 972 l 132 0 m 617 367 q 699 335 664 367 q 733 263 733 304 q 713 197 733 226 q 639 113 693 168 l 574 44 l 738 44 l 738 0 l 504 0 l 504 44 l 599 140 q 666 216 651 196 q 681 263 681 236 q 661 306 681 288 q 617 324 642 324 q 571 306 590 324 q 551 254 551 288 l 551 235 l 500 235 l 500 254 q 534 335 500 303 q 617 367 568 367 z "},"¼":{"ha":828,"x_min":56,"x_max":772,"o":"m 144 611 l 93 611 l 93 924 l 56 924 l 56 974 l 144 974 l 144 611 m 132 0 l 65 0 l 671 972 l 729 972 l 132 0 m 735 149 l 772 149 l 772 106 l 735 106 l 735 0 l 683 0 l 683 106 l 500 106 l 683 363 l 735 363 l 735 149 m 586 149 l 683 149 l 683 288 l 586 149 z "},"¾":{"ha":857,"x_min":56,"x_max":801,"o":"m 182 976 q 260 948 226 976 q 293 882 293 919 q 251 808 293 838 q 294 774 278 797 q 310 717 310 750 q 272 638 310 669 q 182 606 233 606 q 88 643 125 606 q 56 732 51 681 l 108 732 q 107 719 107 728 q 129 671 107 692 q 182 650 151 650 q 235 669 213 650 q 257 717 257 688 q 181 781 257 781 q 154 779 164 781 l 154 822 q 242 882 242 826 q 224 918 242 903 q 182 933 207 933 q 133 912 151 933 q 118 854 115 890 l 65 854 q 96 942 61 907 q 182 976 131 976 m 175 0 l 108 0 l 714 972 l 772 972 l 175 0 m 764 149 l 801 149 l 801 106 l 764 106 l 764 0 l 713 0 l 713 106 l 529 106 l 713 363 l 764 363 l 764 149 m 615 149 l 713 149 l 713 288 l 615 149 z "},"⅛":{"ha":810,"x_min":56,"x_max":754,"o":"m 144 611 l 93 611 l 93 924 l 56 924 l 56 974 l 144 974 l 144 611 m 132 0 l 65 0 l 671 972 l 729 972 l 132 0 m 626 365 q 706 338 676 365 q 736 272 736 310 q 694 199 736 225 q 754 107 754 169 q 717 28 754 60 q 626 -3 679 -3 q 538 28 575 -3 q 500 107 500 60 q 516 161 500 138 q 560 199 532 185 q 528 232 539 213 q 518 272 518 251 q 548 337 518 308 q 626 365 578 365 m 626 322 q 584 308 599 322 q 569 272 569 293 q 587 235 569 251 q 626 218 604 218 q 667 235 651 218 q 683 272 683 251 q 670 308 683 293 q 626 322 657 322 m 626 175 q 574 156 596 175 q 551 107 551 136 q 574 60 551 79 q 626 40 596 40 q 681 58 660 40 q 701 107 701 76 q 681 156 701 138 q 626 175 660 175 z "},"⅜":{"ha":839,"x_min":56,"x_max":783,"o":"m 182 976 q 260 948 226 976 q 293 882 293 919 q 251 808 293 838 q 294 774 278 797 q 310 717 310 750 q 272 638 310 669 q 182 606 233 606 q 88 643 125 606 q 56 732 51 681 l 108 732 q 107 719 107 728 q 129 671 107 692 q 182 650 151 650 q 235 669 213 650 q 257 717 257 688 q 181 781 257 781 q 154 779 164 781 l 154 822 q 242 882 242 826 q 224 918 242 903 q 182 933 207 933 q 133 912 151 933 q 118 854 115 890 l 65 854 q 96 942 61 907 q 182 976 131 976 m 164 0 l 97 0 l 703 972 l 761 972 l 164 0 m 656 365 q 735 338 706 365 q 765 272 765 310 q 724 199 765 225 q 783 107 783 169 q 746 28 783 60 q 656 -3 708 -3 q 567 28 604 -3 q 529 107 529 60 q 545 161 529 138 q 589 199 561 185 q 558 232 568 213 q 547 272 547 251 q 577 337 547 308 q 656 365 607 365 m 656 322 q 613 308 628 322 q 599 272 599 293 q 616 235 599 251 q 656 218 633 218 q 697 235 681 218 q 713 272 713 251 q 699 308 713 293 q 656 322 686 322 m 656 175 q 603 156 625 175 q 581 107 581 136 q 603 60 581 79 q 656 40 625 40 q 710 58 689 40 q 731 107 731 76 q 710 156 731 138 q 656 175 689 175 z "}}}
